<svg width="26" height="27" viewBox="0 0 26 27" fill="none" xmlns="http://www.w3.org/2000/svg">
<rect x="14.172" y="8.08334" width="4.16667" height="4.33333" rx="2.08333" stroke="white" stroke-width="1.5"/>
<path d="M5.54505 19.1348L7.35639 17.251C9.04911 15.4906 11.7935 15.4906 13.4863 17.251L15.2976 19.1348M15.2976 19.1348L16.0313 18.3718C17.383 16.966 19.6036 17.0707 20.8274 18.598L21.2575 19.1348M15.2976 19.1348L18.0066 21.9522M4.12295 16.8037C3.63284 14.6307 3.63284 12.3693 4.12295 10.1963C4.80159 7.18742 7.06059 4.83807 9.95374 4.13228C12.0431 3.62257 14.2176 3.62257 16.307 4.13228C19.2002 4.83807 21.4592 7.18743 22.1378 10.1963C22.6279 12.3693 22.6279 14.6307 22.1378 16.8037C21.4592 19.8126 19.2002 22.1619 16.307 22.8677C14.2176 23.3774 12.0431 23.3774 9.95374 22.8677C7.06059 22.1619 4.80159 19.8126 4.12295 16.8037Z" stroke="white" stroke-width="1.5" stroke-linecap="round" stroke-linejoin="round"/>
</svg>
