<svg width="19" height="19" viewBox="0 0 19 19" fill="none" xmlns="http://www.w3.org/2000/svg">
<path d="M15.8645 12.7643C14.8161 12.7643 13.8909 13.2693 13.3277 14.0407L6.91583 10.308C6.91962 10.247 6.92538 10.1865 6.92538 10.1246C6.92538 9.88098 6.89239 9.6453 6.83619 9.41838L13.8547 6.01355C14.3968 6.46006 15.0977 6.7307 15.8645 6.7307C17.5817 6.7307 18.9738 5.38004 18.9738 3.71388C18.9738 2.04774 17.5817 0.697083 15.8645 0.697083C14.1473 0.697083 12.7553 2.04774 12.7553 3.71388C12.7553 4.13751 12.8461 4.54032 13.0085 4.90611L6.21288 8.20297C5.64257 7.53411 4.7807 7.10779 3.81612 7.10779C2.09892 7.10779 0.706848 8.45848 0.706848 10.1246C0.706848 11.7908 2.09892 13.1414 3.81612 13.1414C4.96015 13.1414 5.95715 12.5402 6.49708 11.6473L12.7962 15.3144C12.7717 15.4669 12.7553 15.622 12.7553 15.7811C12.7553 17.4473 14.1473 18.798 15.8645 18.798C17.5817 18.798 18.9738 17.4473 18.9738 15.7811C18.9738 14.115 17.5817 12.7643 15.8645 12.7643Z" fill="white"/>
</svg>
