<svg width="28" height="26" viewBox="0 0 28 26" fill="none" xmlns="http://www.w3.org/2000/svg">
<path fill-rule="evenodd" clip-rule="evenodd" d="M5.27612 8.12501C5.27612 6.03093 7.039 4.33334 9.21362 4.33334C11.3882 4.33334 13.1511 6.03093 13.1511 8.12501C13.1511 10.2191 11.3882 11.9167 9.21362 11.9167C7.039 11.9167 5.27612 10.2191 5.27612 8.12501ZM11.4636 8.12501C11.4636 6.92839 10.4563 5.95834 9.21362 5.95834C7.97098 5.95834 6.96362 6.92839 6.96362 8.12501C6.96362 9.32163 7.97098 10.2917 9.21362 10.2917C10.4563 10.2917 11.4636 9.32163 11.4636 8.12501Z" fill="white"/>
<path fill-rule="evenodd" clip-rule="evenodd" d="M16.5261 8.12501C16.5261 6.03093 18.289 4.33334 20.4636 4.33334C22.6382 4.33334 24.4011 6.03093 24.4011 8.12501C24.4011 10.2191 22.6382 11.9167 20.4636 11.9167C18.289 11.9167 16.5261 10.2191 16.5261 8.12501ZM22.7136 8.12501C22.7136 6.92839 21.7063 5.95834 20.4636 5.95834C19.221 5.95834 18.2136 6.92839 18.2136 8.12501C18.2136 9.32163 19.221 10.2917 20.4636 10.2917C21.7063 10.2917 22.7136 9.32163 22.7136 8.12501Z" fill="white"/>
<path fill-rule="evenodd" clip-rule="evenodd" d="M5.27612 18.9583C5.27612 16.8643 7.039 15.1667 9.21362 15.1667C11.3882 15.1667 13.1511 16.8643 13.1511 18.9583C13.1511 21.0524 11.3882 22.75 9.21362 22.75C7.039 22.75 5.27612 21.0524 5.27612 18.9583ZM11.4636 18.9583C11.4636 17.7617 10.4563 16.7917 9.21362 16.7917C7.97098 16.7917 6.96362 17.7617 6.96362 18.9583C6.96362 20.155 7.97098 21.125 9.21362 21.125C10.4563 21.125 11.4636 20.155 11.4636 18.9583Z" fill="white"/>
<path fill-rule="evenodd" clip-rule="evenodd" d="M16.5261 18.9583C16.5261 16.8643 18.289 15.1667 20.4636 15.1667C22.6382 15.1667 24.4011 16.8643 24.4011 18.9583C24.4011 21.0524 22.6382 22.75 20.4636 22.75C18.289 22.75 16.5261 21.0524 16.5261 18.9583ZM22.7136 18.9583C22.7136 17.7617 21.7063 16.7917 20.4636 16.7917C19.221 16.7917 18.2136 17.7617 18.2136 18.9583C18.2136 20.155 19.221 21.125 20.4636 21.125C21.7063 21.125 22.7136 20.155 22.7136 18.9583Z" fill="white"/>
</svg>
