<svg width="30" height="25" viewBox="0 0 30 25" fill="none" xmlns="http://www.w3.org/2000/svg">
<path d="M14.6331 16.8699C14.5812 16.8699 14.5282 16.8608 14.4764 16.8415C12.3301 16.0355 10.3381 14.9149 8.54879 13.5082C6.83231 14.8791 4.82751 15.9991 2.58508 16.8415C2.35967 16.9262 2.10688 16.8164 2.02068 16.5963L1.09983 14.2591C1.05847 14.1533 1.06138 14.0361 1.10856 13.9326C1.15574 13.829 1.24253 13.7483 1.35086 13.7079C3.11685 13.0447 4.68947 12.1977 6.03202 11.1881C5.08903 10.1648 4.44892 9.25411 4.06625 8.64662C4.00567 8.55049 3.98645 8.43445 4.01325 8.32411C4.04004 8.21433 4.11052 8.11876 4.20953 8.05961L6.39372 6.74736C6.59933 6.62393 6.86842 6.6865 6.99481 6.88729C7.23245 7.26384 7.72463 7.98339 8.50569 8.84627C8.87788 8.39976 9.22269 7.93049 9.53372 7.44643C10.0451 6.65067 10.3981 5.91121 10.6346 5.32591H1.31184C1.0707 5.32591 0.875 5.13479 0.875 4.8993V2.39483C0.875 2.15934 1.0707 1.96822 1.31184 1.96822H6.9057V0.899996C6.9057 0.664509 7.1014 0.473389 7.34254 0.473389H9.90707C10.1482 0.473389 10.3439 0.664509 10.3439 0.899996V1.96822H15.9378C16.1789 1.96822 16.3746 2.15934 16.3746 2.39483V4.8993C16.3746 5.13479 16.1789 5.32591 15.9378 5.32591H14.2673C13.9848 6.27241 13.4653 7.61537 12.5269 9.10508C12.0854 9.80586 11.5793 10.4879 11.0196 11.1374C12.4413 12.2079 14.0174 13.072 15.7118 13.7085C15.9372 13.7932 16.049 14.0401 15.9628 14.2596C15.876 14.4798 15.6238 14.5895 15.3984 14.5048C13.4769 13.783 11.6993 12.7813 10.1162 11.5271C10.0236 11.4537 9.9659 11.3468 9.956 11.2307C9.94609 11.1147 9.98512 10.9998 10.0643 10.9128C10.712 10.1995 11.2904 9.44068 11.7837 8.658C12.7768 7.08182 13.2725 5.6854 13.5136 4.79066C13.5643 4.60352 13.7379 4.47269 13.9359 4.47269H15.5015V2.82144H9.90765C9.66652 2.82144 9.47081 2.63032 9.47081 2.39483V1.3266H7.77996V2.39483C7.77996 2.63032 7.58425 2.82144 7.34312 2.82144H1.74868V4.47269H11.2589C11.3993 4.47269 11.5315 4.53867 11.6137 4.65016C11.6958 4.76165 11.7179 4.90442 11.6736 5.03468C11.443 5.70701 11.0137 6.75021 10.2746 7.90034C9.8529 8.55675 9.37296 9.18699 8.84817 9.77457C8.76721 9.86558 8.65014 9.91848 8.52666 9.92076C8.40085 9.92417 8.28436 9.87354 8.1999 9.78538C7.39554 8.94525 6.83173 8.19726 6.48808 7.69386L5.0471 8.56016C5.46879 9.18585 6.10483 10.0266 6.99132 10.9446C7.07461 11.0305 7.11713 11.1465 7.10956 11.2649C7.10198 11.3832 7.04432 11.4924 6.95055 11.5675C5.55965 12.6789 3.92064 13.6129 2.07252 14.3478L2.67943 15.8887C4.78732 15.0526 6.66515 13.9576 8.26514 12.63C8.42706 12.4958 8.66412 12.4946 8.82779 12.6272C10.6147 14.0799 12.6213 15.23 14.7915 16.0451C15.0169 16.1299 15.1287 16.3767 15.0425 16.5963C14.9756 16.7658 14.8101 16.8699 14.6348 16.8699H14.6331Z" fill="white"/>
<path d="M29.5607 24.0489H25.9862C25.8074 24.0489 25.6466 23.9425 25.5802 23.7798L24.1212 20.1974H18.6893L17.2302 23.7798C17.1644 23.9425 17.0031 24.0489 16.8243 24.0489H13.3639C13.2183 24.0489 13.082 23.9778 13.0005 23.8594C12.9195 23.7411 12.9044 23.591 12.9603 23.459L19.6136 7.77407C19.6812 7.6148 19.8408 7.51071 20.0173 7.51071H22.7932C22.9691 7.51071 23.1275 7.61366 23.1957 7.77179L29.9632 23.4567C30.0203 23.5887 30.0057 23.7394 29.9248 23.8583C29.8438 23.9772 29.7069 24.0489 29.5607 24.0489ZM26.2821 23.1956H28.9025L22.5032 8.36392H20.3091L14.0174 23.1956H16.5278L17.9868 19.6133C18.0526 19.4506 18.214 19.3442 18.3928 19.3442H24.4177C24.5965 19.3442 24.7572 19.4506 24.8236 19.6133L26.2821 23.1956ZM23.2254 17.2715H19.5845C19.4395 17.2715 19.3043 17.2015 19.2228 17.0844C19.1413 16.9672 19.1249 16.8187 19.1785 16.6873L20.9993 12.2176C21.0651 12.0555 21.2264 11.9486 21.4052 11.9486C21.5841 11.9486 21.7448 12.0549 21.8112 12.2176L23.6314 16.6873C23.685 16.8187 23.6681 16.9672 23.5871 17.0844C23.5056 17.2015 23.3704 17.2715 23.2254 17.2715ZM20.2287 16.4183H22.5818L21.4052 13.5293L20.2287 16.4183Z" fill="white"/>
</svg>
