<svg width="25" height="20" viewBox="0 0 25 20" fill="none" xmlns="http://www.w3.org/2000/svg">
<path d="M12.0079 13.9369C11.9646 13.9369 11.9203 13.9293 11.877 13.9132C10.0839 13.2398 8.41978 12.3037 6.92497 11.1285C5.491 12.2738 3.81616 13.2094 1.94279 13.9132C1.75448 13.984 1.5433 13.8923 1.47128 13.7084L0.701984 11.7558C0.667436 11.6674 0.669869 11.5695 0.709283 11.483C0.748696 11.3966 0.821198 11.3291 0.911704 11.2953C2.38704 10.7413 3.70083 10.0337 4.82242 9.19023C4.03463 8.33536 3.49987 7.57457 3.18018 7.06707C3.12958 6.98676 3.11352 6.88982 3.1359 6.79763C3.15829 6.70592 3.21716 6.62609 3.29988 6.57667L5.12459 5.4804C5.29636 5.37728 5.52116 5.42955 5.62675 5.59729C5.82528 5.91187 6.23645 6.51299 6.88897 7.23386C7.1999 6.86083 7.48796 6.4688 7.7478 6.06441C8.17502 5.39961 8.4699 4.78186 8.66745 4.29289H0.879102C0.677654 4.29289 0.51416 4.13322 0.51416 3.93649V1.84422C0.51416 1.64749 0.677654 1.48782 0.879102 1.48782H5.55231V0.595409C5.55231 0.398679 5.7158 0.239014 5.91725 0.239014H8.0597C8.26115 0.239014 8.42464 0.398679 8.42464 0.595409V1.48782H13.0978C13.2993 1.48782 13.4628 1.64749 13.4628 1.84422V3.93649C13.4628 4.13322 13.2993 4.29289 13.0978 4.29289H11.7023C11.4663 5.08361 11.0323 6.20554 10.2484 7.45007C9.87955 8.03551 9.4567 8.60527 8.98909 9.14794C10.1769 10.0423 11.4936 10.7641 12.909 11.2958C13.0974 11.3666 13.1908 11.5729 13.1188 11.7563C13.0463 11.9402 12.8356 12.0319 12.6473 11.9611C11.042 11.3581 9.55694 10.5212 8.23439 9.47345C8.15702 9.41215 8.10885 9.32281 8.10057 9.22587C8.0923 9.12893 8.1249 9.03294 8.19108 8.96024C8.73217 8.36435 9.21535 7.73044 9.62749 7.07657C10.4571 5.75981 10.8712 4.59321 11.0727 3.84573C11.115 3.68939 11.26 3.5801 11.4254 3.5801H12.7334V2.20061H8.06019C7.85874 2.20061 7.69525 2.04095 7.69525 1.84422V0.951804H6.28268V1.84422C6.28268 2.04095 6.11918 2.20061 5.91774 2.20061H1.24404V3.5801H9.18907C9.30634 3.5801 9.4168 3.63522 9.48541 3.72836C9.55402 3.8215 9.57251 3.94077 9.53553 4.04959C9.34284 4.61127 8.98422 5.48277 8.36674 6.44361C8.01445 6.99199 7.6135 7.5185 7.17508 8.00938C7.10745 8.08541 7.00964 8.1296 6.90648 8.1315C6.80138 8.13435 6.70406 8.09206 6.63351 8.0184C5.96153 7.31654 5.49051 6.69167 5.20342 6.27112L3.9996 6.99484C4.35189 7.51755 4.88325 8.21989 5.62384 8.98685C5.69342 9.0586 5.72894 9.15554 5.72261 9.25438C5.71629 9.35322 5.66811 9.44446 5.58977 9.50718C4.4278 10.4357 3.05854 11.216 1.51459 11.8299L2.02161 13.1172C3.78258 12.4187 5.35134 11.5039 6.68801 10.3948C6.82328 10.2827 7.02132 10.2818 7.15805 10.3925C8.65091 11.6061 10.3272 12.567 12.1402 13.2479C12.3285 13.3187 12.422 13.5249 12.35 13.7084C12.294 13.85 12.1558 13.9369 12.0093 13.9369H12.0079Z" fill="#E95345"/>
<path d="M24.4787 19.9344H21.4925C21.3431 19.9344 21.2088 19.8455 21.1533 19.7096L19.9344 16.7168H15.3965L14.1776 19.7096C14.1226 19.8455 13.9878 19.9344 13.8384 19.9344H10.9476C10.826 19.9344 10.7121 19.875 10.644 19.7761C10.5763 19.6773 10.5637 19.5518 10.6104 19.4416L16.1687 6.33812C16.2252 6.20507 16.3585 6.11811 16.5059 6.11811H18.825C18.972 6.11811 19.1043 6.20412 19.1612 6.33622L24.8149 19.4397C24.8626 19.5499 24.8504 19.6758 24.7828 19.7752C24.7152 19.8745 24.6008 19.9344 24.4787 19.9344ZM21.7397 19.2216H23.9288L18.5827 6.8309H16.7497L11.4936 19.2216H13.5908L14.8097 16.2288C14.8647 16.0929 14.9994 16.004 15.1488 16.004H20.1821C20.3315 16.004 20.4658 16.0929 20.5213 16.2288L21.7397 19.2216ZM19.1861 14.2724H16.1444C16.0232 14.2724 15.9103 14.214 15.8422 14.1161C15.7741 14.0182 15.7605 13.8942 15.8052 13.7844L17.3263 10.0503C17.3813 9.9149 17.5161 9.82557 17.6655 9.82557C17.8148 9.82557 17.9491 9.91443 18.0046 10.0503L19.5252 13.7844C19.57 13.8942 19.5559 14.0182 19.4882 14.1161C19.4201 14.214 19.3072 14.2724 19.1861 14.2724ZM16.6826 13.5596H18.6484L17.6655 11.1461L16.6826 13.5596Z" fill="#E95345"/>
</svg>
