<svg width="105" height="58" viewBox="0 0 105 58" fill="none" xmlns="http://www.w3.org/2000/svg">
<path d="M5.21697 38.2966L4.52739 37.6498L5.21697 37.0027L5.90616 37.6498L5.21697 38.2966ZM4.40525 36.9723L3.71568 36.3251L4.40525 35.6783L5.09445 36.3251L4.40525 36.9723ZM3.59354 38.2966L2.90435 37.6498L3.59354 37.0027L4.28273 37.6498L3.59354 38.2966ZM7.68504 38.5325C7.78115 38.6969 7.86806 38.8836 7.94617 39.0923C8.02389 39.3012 8.09243 39.5134 8.15178 39.7288C8.21112 39.9445 8.25745 40.162 8.29076 40.3809C8.32408 40.6001 8.34092 40.8017 8.34092 40.987C8.34092 41.5549 8.03308 41.9743 7.41817 42.2445C6.80288 42.515 5.84643 42.6504 4.5496 42.6504C3.88989 42.6504 3.32131 42.614 2.84309 42.5422C2.36486 42.4704 1.97049 42.3576 1.65921 42.2035C1.34792 42.0493 1.11819 41.8544 0.970014 41.6182C0.821455 41.3823 0.747559 41.0994 0.747559 40.7709C0.747559 40.4905 0.803077 40.1843 0.914113 39.8522C1.02553 39.5201 1.17715 39.2001 1.37013 38.8921L1.95939 39.1587C1.84069 39.3988 1.74995 39.6276 1.68677 39.8469C1.6236 40.0665 1.59258 40.2645 1.59258 40.4424C1.59258 40.6684 1.64619 40.8622 1.75378 41.0227C1.86099 41.1836 2.03328 41.3137 2.27067 41.4128C2.50768 41.5121 2.81322 41.586 3.18768 41.6338C3.56214 41.6815 4.01624 41.7056 4.5496 41.7056C4.96465 41.7056 5.35557 41.6886 5.72238 41.6543C6.08956 41.62 6.40812 41.5719 6.67882 41.5104C6.94914 41.4488 7.16394 41.3788 7.3236 41.2999C7.48288 41.2214 7.56252 41.1373 7.56252 41.0482C7.56252 40.9184 7.54567 40.7677 7.51236 40.5966C7.47943 40.4254 7.43081 40.2458 7.36801 40.0573C7.30484 39.8692 7.23286 39.6796 7.1513 39.4873C7.06975 39.2963 6.98053 39.1145 6.88443 38.9434L7.68504 38.5325Z" fill="white"/>
<path d="M9.66406 42.5781L9.60815 36.0993L10.4869 35.9554L10.4314 42.5781H9.66406Z" fill="white"/>
<path d="M15.7119 42.5781C15.2076 42.5781 14.7964 42.4788 14.4779 42.2804C14.3144 42.773 13.9809 43.2231 13.477 43.6305C12.9731 44.0379 12.3322 44.3714 11.5538 44.6316L11.0422 43.8208C11.8578 43.5329 12.5133 43.2009 13.0103 42.8246C13.5069 42.448 13.7956 42.0544 13.8771 41.6435C13.7734 41.4656 13.6677 41.2467 13.5605 40.9868C13.4533 40.7265 13.3288 40.4012 13.1879 40.0112L14.0218 39.6515C14.1107 39.9051 14.2014 40.1583 14.2941 40.4118C14.3867 40.6647 14.4591 40.8464 14.5112 40.956C14.5701 41.0929 14.6333 41.2057 14.6999 41.2945C14.7666 41.3836 14.8447 41.4554 14.9335 41.5102C15.0223 41.5653 15.1299 41.6028 15.2559 41.623C15.3818 41.6435 15.5339 41.6538 15.7119 41.6538L15.8896 41.7567V42.4756L15.7119 42.5781Z" fill="white"/>
<path d="M15.5337 42.4758V41.7568L15.7117 41.6543H16.6008L16.7788 41.7568V42.4758L16.6008 42.5783H15.7117L15.5337 42.4758Z" fill="white"/>
<path d="M16.4233 42.4758V41.7568L16.6014 41.6543H17.4908L17.6685 41.7568V42.4758L17.4908 42.5783H16.6014L16.4233 42.4758Z" fill="white"/>
<path d="M17.3123 42.4758V41.7568L17.4899 41.6543H18.3794L18.5574 41.7568V42.4758L18.3794 42.5783H17.4899L17.3123 42.4758Z" fill="white"/>
<path d="M18.2012 42.4758V41.7568L18.3792 41.6543H19.2687L19.4463 41.7568V42.4758L19.2687 42.5783H18.3792L18.2012 42.4758Z" fill="white"/>
<path d="M19.0913 42.4758V41.7568L19.269 41.6543H20.1584L20.3364 41.7568V42.4758L20.1584 42.5783H19.269L19.0913 42.4758Z" fill="white"/>
<path d="M19.9807 42.4758V41.7568L20.1584 41.6543H21.0478L21.2259 41.7568V42.4758L21.0478 42.5783H20.1584L19.9807 42.4758Z" fill="white"/>
<path d="M20.8696 42.4758V41.7568L21.0477 41.6543H21.9371L22.1148 41.7568V42.4758L21.9371 42.5783H21.0477L20.8696 42.4758Z" fill="white"/>
<path d="M21.759 42.4758V41.7568L21.9367 41.6543H22.8261L23.0042 41.7568V42.4758L22.8261 42.5783H21.9367L21.759 42.4758Z" fill="white"/>
<path d="M22.6482 42.4758V41.7568L22.8262 41.6543H23.7157L23.8933 41.7568V42.4758L23.7157 42.5783H22.8262L22.6482 42.4758Z" fill="white"/>
<path d="M23.5371 42.4758V41.7568L23.7152 41.6543H24.6046L24.7826 41.7568V42.4758L24.6046 42.5783H23.7152L23.5371 42.4758Z" fill="white"/>
<path d="M24.4265 42.4758V41.7568L24.6042 41.6543H25.494L25.6717 41.7568V42.4758L25.494 42.5783H24.6042L24.4265 42.4758Z" fill="white"/>
<path d="M25.3157 42.4758V41.7568L25.4937 41.6543H26.3832L26.5612 41.7568V42.4758L26.3832 42.5783H25.4937L25.3157 42.4758Z" fill="white"/>
<path d="M26.2051 42.4758V41.7568L26.3831 41.6543H27.2722L27.4502 41.7568V42.4758L27.2722 42.5783H26.3831L26.2051 42.4758Z" fill="white"/>
<path d="M27.094 42.4758V41.7568L27.272 41.6543H28.1615L28.3395 41.7568V42.4758L28.1615 42.5783H27.272L27.094 42.4758Z" fill="white"/>
<path d="M27.9834 42.4758V41.7568L28.1614 41.6543H29.0509L29.2289 41.7568V42.4758L29.0509 42.5783H28.1614L27.9834 42.4758Z" fill="white"/>
<path d="M28.873 42.4758V41.7568L29.0507 41.6543H29.9401L30.1182 41.7568V42.4758L29.9401 42.5783H29.0507L28.873 42.4758Z" fill="white"/>
<path d="M29.762 42.4758V41.7568L29.94 41.6543H30.8294L31.0071 41.7568V42.4758L30.8294 42.5783H29.94L29.762 42.4758Z" fill="white"/>
<path d="M30.6514 42.4758V41.7568L30.829 41.6543H31.7185L31.8965 41.7568V42.4758L31.7185 42.5783H30.829L30.6514 42.4758Z" fill="white"/>
<path d="M31.5405 42.4758V41.7568L31.7186 41.6543H32.608L32.7857 41.7568V42.4758L32.608 42.5783H31.7186L31.5405 42.4758Z" fill="white"/>
<path d="M32.4304 42.4758V41.7568L32.6081 41.6543H33.4975L33.6756 41.7568V42.4758L33.4975 42.5783H32.6081L32.4304 42.4758Z" fill="white"/>
<path d="M33.3193 42.4758V41.7568L33.4974 41.6543H34.3868L34.5645 41.7568V42.4758L34.3868 42.5783H33.4974L33.3193 42.4758Z" fill="white"/>
<path d="M34.2083 42.4758V41.7568L34.3863 41.6543H35.2757L35.4534 41.7568V42.4758L35.2757 42.5783H34.3863L34.2083 42.4758Z" fill="white"/>
<path d="M35.0974 42.4758V41.7568L35.2755 41.6543H36.1649L36.3429 41.7568V42.4758L36.1649 42.5783H35.2755L35.0974 42.4758Z" fill="white"/>
<path d="M35.9863 42.4758V41.7568L36.1644 41.6543H37.0538L37.2315 41.7568V42.4758L37.0538 42.5783H36.1644L35.9863 42.4758Z" fill="white"/>
<path d="M36.8757 42.4758V41.7568L37.0538 41.6543H37.9432L38.1213 41.7568V42.4758L37.9432 42.5783H37.0538L36.8757 42.4758Z" fill="white"/>
<path d="M37.7659 42.4758V41.7568L37.9439 41.6543H38.833L39.011 41.7568V42.4758L38.833 42.5783H37.9439L37.7659 42.4758Z" fill="white"/>
<path d="M38.6548 42.4758V41.7568L38.8328 41.6543H39.7223L39.9003 41.7568V42.4758L39.7223 42.5783H38.8328L38.6548 42.4758Z" fill="white"/>
<path d="M39.5437 42.4758V41.7568L39.7214 41.6543H40.6108L40.7888 41.7568V42.4758L40.6108 42.5783H39.7214L39.5437 42.4758Z" fill="white"/>
<path d="M43.6021 38.8713L42.9125 38.2245L43.6021 37.5774L44.2913 38.2245L43.6021 38.8713ZM41.9791 38.8713L41.2895 38.2245L41.9791 37.5774L42.6682 38.2245L41.9791 38.8713ZM44.2802 42.578C43.413 42.578 42.8348 42.3489 42.5457 41.8899C42.3975 42.1095 42.1548 42.2785 41.8175 42.398C41.4805 42.5183 41.0781 42.578 40.6114 42.578L40.4333 42.4755V41.7566L40.6114 41.654C41.0931 41.654 41.4507 41.6024 41.6842 41.5002C41.9178 41.3969 42.0637 41.2261 42.1234 40.9867C42.138 40.911 42.1567 40.817 42.1789 40.7038C42.2011 40.5914 42.2233 40.4764 42.2455 40.3601C42.2677 40.2437 42.2861 40.1274 42.3014 40.0111C42.316 39.8947 42.3309 39.7918 42.3459 39.703L43.1017 39.7854C43.0645 40.0726 43.0312 40.336 43.0017 40.5758C42.9719 40.8156 42.9569 40.9627 42.9569 41.0171C42.9569 41.4418 43.398 41.654 44.2802 41.654L44.4582 41.7566V42.4755L44.2802 42.578Z" fill="white"/>
<path d="M44.1016 42.4755V41.7566L44.2792 41.654C44.4351 41.654 44.5909 41.6456 44.7463 41.6286C44.9022 41.6113 45.0408 41.5823 45.1633 41.5409C45.2854 41.4999 45.3854 41.4454 45.4635 41.3768C45.5412 41.3082 45.5803 41.2262 45.5803 41.13L45.5466 36.0993L46.4253 35.9554L46.3805 41.0479C46.3805 41.3358 46.3196 41.577 46.1971 41.7718C46.0749 41.967 45.9153 42.1247 45.7192 42.2442C45.5228 42.3645 45.3004 42.4493 45.0523 42.5013C44.8038 42.5526 44.5461 42.5781 44.2792 42.5781L44.1016 42.4755Z" fill="white"/>
<path d="M47.8823 42.5781L47.8264 36.0993L48.7048 35.9554L48.6492 42.5781H47.8823Z" fill="white"/>
<path d="M54.7194 36.6737L54.0302 36.0272L54.7194 35.3805L55.4086 36.0272L54.7194 36.6737ZM53.7744 40.7708C54.1301 40.7708 54.4414 40.7231 54.7083 40.6272L54.6857 38.974C54.4116 39.0012 54.1485 39.0476 53.8966 39.113C53.6443 39.1781 53.4203 39.2601 53.2238 39.3591C53.0274 39.4585 52.872 39.5713 52.7571 39.6979C52.6422 39.8248 52.5848 39.9631 52.5848 40.1138C52.5848 40.2372 52.6162 40.3397 52.6794 40.4218C52.7422 40.5038 52.8295 40.5706 52.9405 40.6219C53.0515 40.6732 53.1794 40.711 53.3238 40.7351C53.4685 40.7591 53.6186 40.7708 53.7744 40.7708ZM53.096 36.6737L52.4068 36.0272L53.096 35.3805L53.7855 36.0272L53.096 36.6737ZM56.5312 42.5782C55.4641 42.5782 54.8676 42.1917 54.7416 41.4179C54.4303 41.5824 54.0631 41.6644 53.6408 41.6644C53.3889 41.6644 53.1534 41.6336 52.9351 41.5718C52.7161 41.5102 52.5255 41.4215 52.3624 41.3051C52.1992 41.1884 52.0694 41.0431 51.9733 40.8684C51.8769 40.6941 51.8286 40.4974 51.8286 40.2778C51.8286 39.7509 52.079 39.3025 52.5794 38.933C53.0795 38.5631 53.7779 38.2929 54.675 38.1218V37.4951L55.5533 37.3519L55.5089 40.8327C55.5012 41.1272 55.579 41.3373 55.7421 41.4643C55.9052 41.5909 56.1682 41.6542 56.5312 41.6542L56.7092 41.7567V42.4756L56.5312 42.5782Z" fill="white"/>
<path d="M56.353 42.4758V41.7568L56.5311 41.6543H57.4205L57.5982 41.7568V42.4758L57.4205 42.5783H56.5311L56.353 42.4758Z" fill="white"/>
<path d="M57.2424 42.4758V41.7568L57.4205 41.6543H58.3099L58.4876 41.7568V42.4758L58.3099 42.5783H57.4205L57.2424 42.4758Z" fill="white"/>
<path d="M58.1318 42.4758V41.7568L58.3095 41.6543H59.1989L59.377 41.7568V42.4758L59.1989 42.5783H58.3095L58.1318 42.4758Z" fill="white"/>
<path d="M59.0203 42.4758V41.7568L59.1983 41.6543H60.0877L60.2654 41.7568V42.4758L60.0877 42.5783H59.1983L59.0203 42.4758Z" fill="white"/>
<path d="M59.9104 42.4758V41.7568L60.0881 41.6543H60.9775L61.1555 41.7568V42.4758L60.9775 42.5783H60.0881L59.9104 42.4758Z" fill="white"/>
<path d="M60.7998 42.4758V41.7568L60.9775 41.6543H61.8669L62.0449 41.7568V42.4758L61.8669 42.5783H60.9775L60.7998 42.4758Z" fill="white"/>
<path d="M61.6892 42.4758V41.7568L61.8669 41.6543H62.7563L62.9343 41.7568V42.4758L62.7563 42.5783H61.8669L61.6892 42.4758Z" fill="white"/>
<path d="M62.5784 42.4758V41.7568L62.756 41.6543H63.6455L63.8235 41.7568V42.4758L63.6455 42.5783H62.756L62.5784 42.4758Z" fill="white"/>
<path d="M63.4678 42.4758V41.7568L63.6454 41.6543H64.5349L64.7129 41.7568V42.4758L64.5349 42.5783H63.6454L63.4678 42.4758Z" fill="white"/>
<path d="M64.3567 42.4758V41.7568L64.5347 41.6543H65.4242L65.6022 41.7568V42.4758L65.4242 42.5783H64.5347L64.3567 42.4758Z" fill="white"/>
<path d="M65.2451 42.4758V41.7568L65.4232 41.6543H66.3126L66.4906 41.7568V42.4758L66.3126 42.5783H65.4232L65.2451 42.4758Z" fill="white"/>
<path d="M66.1348 42.4758V41.7568L66.3128 41.6543H67.2022L67.3803 41.7568V42.4758L67.2022 42.5783H66.3128L66.1348 42.4758Z" fill="white"/>
<path d="M67.0247 42.4758V41.7568L67.2027 41.6543H68.0921L68.2702 41.7568V42.4758L68.0921 42.5783H67.2027L67.0247 42.4758Z" fill="white"/>
<path d="M67.9131 42.4758V41.7568L68.0911 41.6543H68.9806L69.1582 41.7568V42.4758L68.9806 42.5783H68.0911L67.9131 42.4758Z" fill="white"/>
<path d="M68.8027 42.4758V41.7568L68.9808 41.6543H69.8702L70.0479 41.7568V42.4758L69.8702 42.5783H68.9808L68.8027 42.4758Z" fill="white"/>
<path d="M69.6921 42.4758V41.7568L69.8702 41.6543H70.7596L70.9373 41.7568V42.4758L70.7596 42.5783H69.8702L69.6921 42.4758Z" fill="white"/>
<path d="M70.582 42.4758V41.7568L70.7601 41.6543H71.6495L71.8272 41.7568V42.4758L71.6495 42.5783H70.7601L70.582 42.4758Z" fill="white"/>
<path d="M71.4707 42.4758V41.7568L71.6487 41.6543H72.5382L72.7158 41.7568V42.4758L72.5382 42.5783H71.6487L71.4707 42.4758Z" fill="white"/>
<path d="M72.3596 42.4758V41.7568L72.5377 41.6543H73.4271L73.6048 41.7568V42.4758L73.4271 42.5783H72.5377L72.3596 42.4758Z" fill="white"/>
<path d="M73.249 42.4758V41.7568L73.4271 41.6543H74.3165L74.4942 41.7568V42.4758L74.3165 42.5783H73.4271L73.249 42.4758Z" fill="white"/>
<path d="M74.1379 42.4758V41.7568L74.316 41.6543H75.2054L75.3831 41.7568V42.4758L75.2054 42.5783H74.316L74.1379 42.4758Z" fill="white"/>
<path d="M75.0276 42.4758V41.7568L75.2056 41.6543H76.0951L76.2727 41.7568V42.4758L76.0951 42.5783H75.2056L75.0276 42.4758Z" fill="white"/>
<path d="M75.9175 42.4758V41.7568L76.0955 41.6543H76.985L77.1626 41.7568V42.4758L76.985 42.5783H76.0955L75.9175 42.4758Z" fill="white"/>
<path d="M76.8059 42.4758V41.7568L76.9836 41.6543H77.8734L78.051 41.7568V42.4758L77.8734 42.5783H76.9836L76.8059 42.4758Z" fill="white"/>
<path d="M77.6953 42.4758V41.7568L77.873 41.6543H78.7628L78.9405 41.7568V42.4758L78.7628 42.5783H77.873L77.6953 42.4758Z" fill="white"/>
<path d="M78.5845 42.4758V41.7568L78.7625 41.6543H79.6516L79.8296 41.7568V42.4758L79.6516 42.5783H78.7625L78.5845 42.4758Z" fill="white"/>
<path d="M79.4739 42.4758V41.7568L79.6519 41.6543H80.541L80.719 41.7568V42.4758L80.541 42.5783H79.6519L79.4739 42.4758Z" fill="white"/>
<path d="M80.3628 42.4758V41.7568L80.5405 41.6543H81.4299L81.6079 41.7568V42.4758L81.4299 42.5783H80.5405L80.3628 42.4758Z" fill="white"/>
<path d="M81.2529 42.4758V41.7568L81.4306 41.6543H82.32L82.4981 41.7568V42.4758L82.32 42.5783H81.4306L81.2529 42.4758Z" fill="white"/>
<path d="M82.1423 42.4758V41.7568L82.32 41.6543H83.2094L83.3875 41.7568V42.4758L83.2094 42.5783H82.32L82.1423 42.4758Z" fill="white"/>
<path d="M83.0312 42.4758V41.7568L83.2089 41.6543H84.0983L84.2764 41.7568V42.4758L84.0983 42.5783H83.2089L83.0312 42.4758Z" fill="white"/>
<path d="M83.9204 42.4758V41.7568L84.0981 41.6543H84.9875L85.1656 41.7568V42.4758L84.9875 42.5783H84.0981L83.9204 42.4758Z" fill="white"/>
<path d="M84.8098 42.4758V41.7568L84.9875 41.6543H85.8769L86.055 41.7568V42.4758L85.8769 42.5783H84.9875L84.8098 42.4758Z" fill="white"/>
<path d="M85.6987 42.4758V41.7568L85.8764 41.6543H86.7658L86.9439 41.7568V42.4758L86.7658 42.5783H85.8764L85.6987 42.4758Z" fill="white"/>
<path d="M86.5876 42.4758V41.7568L86.7657 41.6543H87.6551L87.8332 41.7568V42.4758L87.6551 42.5783H86.7657L86.5876 42.4758Z" fill="white"/>
<path d="M87.4773 42.4758V41.7568L87.6553 41.6543H88.5448L88.7228 41.7568V42.4758L88.5448 42.5783H87.6553L87.4773 42.4758Z" fill="white"/>
<path d="M88.3667 42.4758V41.7568L88.5447 41.6543H89.4342L89.6122 41.7568V42.4758L89.4342 42.5783H88.5447L88.3667 42.4758Z" fill="white"/>
<path d="M89.2556 42.4758V41.7568L89.4333 41.6543H90.3227L90.5008 41.7568V42.4758L90.3227 42.5783H89.4333L89.2556 42.4758Z" fill="white"/>
<path d="M90.1458 42.4758V41.7568L90.3234 41.6543H91.2129L91.3909 41.7568V42.4758L91.2129 42.5783H90.3234L90.1458 42.4758Z" fill="white"/>
<path d="M94.3028 38.6662C93.7173 38.7069 93.1468 38.8094 92.5909 38.9739L92.4351 38.6043C92.5392 38.57 92.6357 38.5393 92.7245 38.5117C92.8133 38.4848 92.8987 38.4572 92.9803 38.4297C92.7356 38.2999 92.6131 38.1114 92.6131 37.8653C92.6131 37.646 92.6989 37.4593 92.8689 37.3055C93.0393 37.1516 93.2429 37.0746 93.4803 37.0746C93.7323 37.0746 93.9398 37.1601 94.1029 37.3309L93.8804 37.629C93.7694 37.5675 93.6507 37.5364 93.5247 37.5364C93.3915 37.5364 93.282 37.5675 93.197 37.629C93.1116 37.6902 93.0691 37.7694 93.0691 37.8653C93.0691 37.9678 93.1265 38.0534 93.2414 38.122C93.3563 38.1902 93.5098 38.2344 93.7024 38.2553C93.8288 38.2344 93.9471 38.2175 94.0585 38.204C94.1699 38.1902 94.2771 38.18 94.3813 38.1733L94.3028 38.6662Z" fill="white"/>
<path d="M94.881 42.5781C94.0138 42.5781 93.436 42.349 93.1469 41.89C92.998 42.1096 92.7556 42.2786 92.4187 42.3985C92.0814 42.5184 91.679 42.5781 91.2122 42.5781L91.0342 42.4756V41.7567L91.2122 41.6538C91.6939 41.6538 92.0515 41.6028 92.2851 41.5003C92.5182 41.397 92.6649 41.2262 92.7242 40.9868C92.7388 40.9111 92.7575 40.8171 92.7797 40.7039C92.802 40.5915 92.8242 40.4765 92.8464 40.3602C92.869 40.2439 92.887 40.1275 92.9023 40.0112C92.9168 39.8948 92.9318 39.7919 92.9463 39.7032L93.7025 39.7856C93.6654 40.0727 93.6321 40.3361 93.6022 40.5759C93.5727 40.8157 93.5582 40.9628 93.5582 41.0172C93.5582 41.4419 93.9985 41.6538 94.881 41.6538L95.0591 41.7567V42.4756L94.881 42.5781Z" fill="white"/>
<path d="M97.6387 44.6935L96.9495 44.0464L97.6387 43.3996L98.3279 44.0464L97.6387 44.6935ZM96.0156 44.6935L95.326 44.0464L96.0156 43.3996L96.7048 44.0464L96.0156 44.6935ZM98.5503 42.5781C97.6831 42.5781 97.1053 42.349 96.8162 41.89C96.6677 42.1096 96.4249 42.2786 96.088 42.3981C95.7503 42.5184 95.3483 42.5781 94.8815 42.5781L94.7039 42.4756V41.7567L94.8815 41.6541C95.3632 41.6541 95.7208 41.6025 95.9544 41.5003C96.1875 41.397 96.3342 41.2262 96.3935 40.9868C96.4081 40.9111 96.4272 40.8171 96.449 40.7039C96.4713 40.5915 96.4935 40.4765 96.516 40.3602C96.5383 40.2439 96.5563 40.1275 96.5716 40.0112C96.5861 39.8948 96.601 39.7919 96.6156 39.7032L97.3718 39.7856C97.3347 40.0727 97.3013 40.3361 97.2719 40.5759C97.242 40.8157 97.2274 40.9628 97.2274 41.0172C97.2274 41.4419 97.6681 41.6541 98.5503 41.6541L98.7284 41.7567V42.4756L98.5503 42.5781Z" fill="white"/>
<path d="M99.7943 40.4524C99.7943 40.6511 99.872 40.8308 100.028 40.9917C100.184 41.1526 100.398 41.288 100.673 41.3969C101.273 41.2056 101.573 40.8906 101.573 40.4524C101.573 40.2201 101.488 40.0228 101.317 39.8622C101.147 39.7013 100.936 39.621 100.684 39.621C100.432 39.621 100.22 39.6995 100.05 39.8569C99.8797 40.0143 99.7943 40.213 99.7943 40.4524ZM102.273 40.4524C102.273 40.9319 102.092 41.3287 101.729 41.6434C101.811 41.6505 101.892 41.6558 101.973 41.659C102.055 41.6629 102.14 41.6643 102.229 41.6643C102.6 41.6643 102.903 41.6165 103.141 41.5204C103.378 41.4249 103.497 41.2979 103.497 41.1406C103.497 40.812 103.431 40.4952 103.302 40.1907C103.172 39.8863 102.989 39.6002 102.752 39.3332C102.515 39.0665 102.227 38.8286 101.89 38.6199C101.553 38.4109 101.18 38.2415 100.773 38.1114L101.151 37.321C101.625 37.4781 102.053 37.6839 102.435 37.9367C102.816 38.1903 103.143 38.476 103.413 38.7943C103.684 39.1129 103.891 39.4584 104.036 39.8311C104.18 40.2045 104.253 40.5893 104.253 40.9867C104.253 41.4931 104.078 41.8849 103.73 42.1622C103.382 42.4394 102.892 42.5781 102.262 42.5781C102.01 42.5781 101.74 42.5455 101.451 42.4805C101.162 42.4157 100.887 42.3284 100.628 42.2184C100.295 42.3284 99.9428 42.4157 99.5718 42.4805C99.2012 42.5455 98.8604 42.5781 98.5491 42.5781L98.3711 42.4755V41.7566L98.5491 41.654C98.7417 41.654 98.927 41.6505 99.1051 41.6434C99.2827 41.6371 99.4531 41.6264 99.6166 41.613C99.2678 41.2912 99.094 40.9047 99.094 40.4524C99.094 40.2201 99.1346 40.0044 99.2161 39.8056C99.2981 39.6072 99.4106 39.4329 99.555 39.2819C99.7001 39.1316 99.8682 39.0135 100.061 38.9276C100.254 38.8423 100.461 38.7996 100.684 38.7996C100.906 38.7996 101.113 38.8423 101.307 38.9276C101.499 39.0135 101.668 39.1316 101.812 39.2819C101.957 39.4329 102.07 39.609 102.151 39.8109C102.232 40.0128 102.273 40.2264 102.273 40.4524Z" fill="white"/>
<path d="M1.10327 48.0511H2.17075V50.9159H6.22856V48.0511H7.29566V54.8998H6.22856V51.7989H2.17075V54.8998H1.10327V48.0511Z" fill="white"/>
<path d="M12.6434 52.0966C12.6135 51.7267 12.4726 51.4119 12.2211 51.1517C11.9687 50.8918 11.613 50.762 11.1536 50.762C10.9162 50.762 10.7033 50.7995 10.5142 50.8748C10.3254 50.9501 10.1642 51.0491 10.0306 51.1725C9.89733 51.2956 9.79357 51.4378 9.71929 51.5987C9.64539 51.7596 9.60442 51.9254 9.59715 52.0966H12.6434ZM13.5439 54.2017C13.4846 54.2632 13.3954 54.3421 13.277 54.4376C13.1584 54.5338 13.0048 54.6261 12.8157 54.7148C12.6269 54.8039 12.4045 54.881 12.1487 54.9461C11.8929 55.0112 11.6019 55.0437 11.2757 55.0437C10.8756 55.0437 10.5088 54.9818 10.1753 54.8587C9.84181 54.7353 9.55618 54.561 9.31917 54.335C9.08178 54.1091 8.89838 53.8385 8.76897 53.5242C8.63917 53.2087 8.57446 52.86 8.57446 52.4764C8.57446 52.1273 8.63726 51.8006 8.76322 51.4958C8.88919 51.1916 9.06724 50.9278 9.29697 50.705C9.5267 50.483 9.79893 50.3069 10.114 50.1764C10.4292 50.0466 10.7757 49.9812 11.1536 49.9812C11.5981 49.9812 11.9798 50.0604 12.2988 50.2177C12.6173 50.3748 12.8785 50.5834 13.0825 50.844C13.2862 51.1043 13.4363 51.402 13.5328 51.7373C13.6289 52.0725 13.6772 52.4219 13.6772 52.7847H9.59715C9.60442 52.9965 9.65458 53.1921 9.74724 53.3696C9.8399 53.5478 9.96395 53.7017 10.1194 53.8318C10.2752 53.9619 10.4533 54.0645 10.6531 54.1398C10.8534 54.2155 11.0647 54.253 11.2868 54.253C11.7241 54.253 12.0836 54.1847 12.3654 54.0475C12.6472 53.9107 12.8509 53.777 12.9769 53.6469L13.5439 54.2017Z" fill="white"/>
<path d="M14.7897 54.8999V50.423C14.7897 50.3611 14.7858 50.2621 14.7786 50.1253H15.7346L15.7679 50.8955C15.8273 50.8131 15.905 50.7225 16.0015 50.6232C16.0976 50.5238 16.2144 50.4333 16.3518 50.3512C16.4885 50.2692 16.6482 50.1988 16.8297 50.1408C17.0115 50.0825 17.2206 50.0535 17.458 50.0535C17.569 50.0535 17.6709 50.0605 17.7635 50.074C17.8562 50.0878 17.9435 50.1083 18.025 50.1355L17.8026 50.998C17.6693 50.9503 17.4986 50.9262 17.2911 50.9262C17.0759 50.9262 16.8779 50.9641 16.696 51.0394C16.5146 51.1143 16.3572 51.219 16.224 51.3523C16.0903 51.4857 15.985 51.6416 15.9069 51.8195C15.8292 51.9977 15.7901 52.1858 15.7901 52.3842V54.8999H14.7897Z" fill="white"/>
<path d="M18.8801 50.1253H19.8806V54.9H18.8801V50.1253ZM18.8135 48.2359H19.9365V49.2731H18.8135V48.2359Z" fill="white"/>
<path d="M21.7483 50.8954H20.8145V50.1252H21.7483V48.5643H22.7488V50.1252H24.2608V50.8954H22.7488V53.2467C22.7488 53.63 22.8139 53.8935 22.9433 54.0374C23.0731 54.1813 23.2565 54.2531 23.4939 54.2531C23.6865 54.2531 23.8457 54.2255 23.9717 54.171C24.0977 54.1159 24.2237 54.0338 24.3496 53.9246L24.8056 54.489C24.5905 54.6806 24.3703 54.8196 24.144 54.9052C23.9181 54.9904 23.6493 55.0332 23.338 55.0332C22.7894 55.0332 22.3877 54.8967 22.132 54.6226C21.8762 54.3489 21.7483 53.921 21.7483 53.339V50.8954Z" fill="white"/>
<path d="M28.797 52.6408C28.7675 52.6337 28.7101 52.6252 28.6247 52.615C28.5393 52.6051 28.4413 52.5966 28.3303 52.5895C28.2189 52.5824 28.1006 52.5757 27.9746 52.569C27.8482 52.5623 27.7261 52.5588 27.6078 52.5588C27.3256 52.5588 27.0982 52.5895 26.9239 52.6511C26.7497 52.7126 26.6127 52.7897 26.5123 52.8823C26.4124 52.9743 26.3439 53.0768 26.3067 53.19C26.2696 53.3028 26.2512 53.411 26.2512 53.5135C26.2512 53.7738 26.3473 53.9704 26.5403 54.1041C26.7329 54.2374 26.9998 54.3043 27.3409 54.3043C27.5331 54.3043 27.7169 54.2731 27.8911 54.2116C28.0649 54.1504 28.2189 54.068 28.3525 53.9651C28.4857 53.8626 28.5933 53.743 28.6749 53.6062C28.7564 53.469 28.797 53.329 28.797 53.185V52.6408ZM28.8085 54.3248C28.6155 54.5645 28.3617 54.7424 28.0469 54.8587C27.7318 54.9747 27.4075 55.0331 27.074 55.0331C26.8589 55.0331 26.646 55.0076 26.4346 54.9563C26.2233 54.9051 26.0307 54.8195 25.8565 54.6993C25.6823 54.5801 25.5414 54.4255 25.4341 54.2374C25.3266 54.0493 25.2729 53.8184 25.2729 53.5443C25.2729 53.0312 25.4675 52.6203 25.8565 52.3123C26.2459 52.0039 26.8072 51.8501 27.5408 51.8501C27.6595 51.8501 27.7854 51.8536 27.9191 51.8607C28.0523 51.8671 28.1783 51.8741 28.297 51.8809C28.4153 51.8879 28.519 51.895 28.6083 51.9014C28.6971 51.9084 28.7599 51.9152 28.797 51.9219V51.7475C28.797 51.3914 28.6806 51.1368 28.4471 50.9823C28.2135 50.8285 27.8965 50.7514 27.4964 50.7514C27.1035 50.7514 26.7922 50.8012 26.5625 50.9002C26.3328 50.9996 26.1402 51.1004 25.9847 51.2033L25.5176 50.577C25.6064 50.5084 25.7136 50.4402 25.84 50.3716C25.966 50.3033 26.1141 50.24 26.2845 50.1817C26.4549 50.1233 26.6475 50.0756 26.8627 50.0378C27.0775 49.9999 27.3256 49.9812 27.6078 49.9812C28.2748 49.9812 28.7989 50.13 29.1807 50.4278C29.5624 50.7259 29.7535 51.1485 29.7535 51.6963V54.6586C29.7535 54.7233 29.7569 54.8039 29.7646 54.8998H28.8307L28.8085 54.3248Z" fill="white"/>
<path d="M34.8338 50.9673C34.7672 50.9468 34.6543 50.9178 34.495 50.8799C34.3353 50.8425 34.0964 50.8237 33.7778 50.8237C33.496 50.8237 33.2403 50.8665 33.0109 50.9517C32.7808 51.0373 32.5825 51.1572 32.4159 51.3114C32.249 51.4656 32.1196 51.6487 32.0269 51.8609C31.9339 52.0731 31.8875 52.3058 31.8875 52.559C31.8875 52.7779 31.9159 52.9833 31.9714 53.1746C32.0269 53.367 32.1157 53.5343 32.2383 53.6778C32.3604 53.8218 32.5139 53.9349 32.6996 54.017C32.8846 54.0994 33.1109 54.14 33.3777 54.14C33.622 54.14 33.8368 54.1057 34.0225 54.0375C34.2074 53.9692 34.3594 53.878 34.4781 53.7652C34.5968 53.652 34.6857 53.5258 34.745 53.3854C34.8043 53.2454 34.8338 53.0997 34.8338 52.949V50.9673ZM31.8102 55.8756C31.9806 55.9849 32.1896 56.079 32.4381 56.1578C32.6862 56.2367 32.9883 56.2759 33.3444 56.2759C33.8406 56.2759 34.2113 56.149 34.4559 55.8961C34.7006 55.6426 34.8227 55.3105 34.8227 54.9V54.3147C34.771 54.3557 34.7025 54.4123 34.6171 54.4841C34.5317 54.5559 34.4241 54.6245 34.2947 54.6892C34.1649 54.7546 34.0114 54.8126 33.8334 54.8639C33.6557 54.9152 33.4516 54.941 33.2219 54.941C32.844 54.941 32.5086 54.8812 32.2157 54.7613C31.9231 54.6415 31.6766 54.4774 31.4763 54.2684C31.2765 54.0598 31.1244 53.8097 31.0207 53.5187C30.9169 53.228 30.8652 52.9115 30.8652 52.5692C30.8652 52.1993 30.9353 51.8588 31.0762 51.5476C31.2167 51.236 31.4151 50.9655 31.6708 50.736C31.9266 50.5072 32.2325 50.329 32.5882 50.2024C32.9439 50.0758 33.3406 50.0121 33.7778 50.0121C34.2002 50.0121 34.593 50.0464 34.9564 50.1151C35.3193 50.1837 35.6122 50.2586 35.8347 50.3407V54.9C35.8347 55.5913 35.6176 56.1271 35.1842 56.5068C34.7507 56.887 34.1408 57.0769 33.3551 57.0769C32.829 57.0769 32.4102 57.0239 32.0989 56.9178C31.7876 56.8113 31.5357 56.69 31.3431 56.5532L31.8102 55.8756Z" fill="white"/>
<path d="M41.0147 52.0966C40.9852 51.7267 40.8443 51.4119 40.5924 51.1517C40.3405 50.8918 39.9844 50.762 39.5249 50.762C39.2879 50.762 39.0746 50.7995 38.8855 50.8748C38.6967 50.9501 38.5355 51.0491 38.4023 51.1725C38.2687 51.2956 38.1649 51.4378 38.091 51.5987C38.0167 51.7596 37.9758 51.9254 37.9685 52.0966H41.0147ZM41.9153 54.2017C41.8559 54.2632 41.7671 54.3421 41.6488 54.4376C41.5297 54.5338 41.3762 54.6261 41.1874 54.7148C40.9983 54.8039 40.7758 54.881 40.52 54.9461C40.2643 55.0112 39.9733 55.0437 39.6474 55.0437C39.2473 55.0437 38.8801 54.9818 38.5466 54.8587C38.2131 54.7353 37.9279 54.561 37.6905 54.335C37.4535 54.1091 37.2697 53.8385 37.1403 53.5242C37.0105 53.2087 36.9458 52.86 36.9458 52.4764C36.9458 52.1273 37.0086 51.8006 37.1349 51.4958C37.2605 51.1916 37.4386 50.9278 37.6683 50.705C37.898 50.483 38.1703 50.3069 38.4858 50.1764C38.8005 50.0466 39.147 49.9812 39.5249 49.9812C39.9698 49.9812 40.3516 50.0604 40.6701 50.2177C40.9887 50.3748 41.2502 50.5834 41.4539 50.844C41.658 51.1043 41.8081 51.402 41.9042 51.7373C42.0003 52.0725 42.0489 52.4219 42.0489 52.7847H37.9685C37.9758 52.9965 38.0259 53.1921 38.1186 53.3696C38.2112 53.5478 38.3357 53.7017 38.4911 53.8318C38.647 53.9619 38.8246 54.0645 39.0249 54.1398C39.2251 54.2155 39.4361 54.253 39.6585 54.253C40.0958 54.253 40.4553 54.1847 40.7367 54.0475C41.0185 53.9107 41.2222 53.777 41.3482 53.6469L41.9153 54.2017Z" fill="white"/>
<path d="M51.6323 53.6981C51.5508 53.8215 51.4248 53.9619 51.2544 54.1193C51.0836 54.2766 50.8765 54.4255 50.6318 54.5659C50.3872 54.7063 50.1054 54.8244 49.7868 54.9199C49.4682 55.0161 49.116 55.0638 48.7308 55.0638C48.1821 55.0638 47.6817 54.9747 47.2299 54.7972C46.7777 54.6193 46.3883 54.371 46.0625 54.0528C45.7363 53.7342 45.4824 53.3576 45.3009 52.9229C45.1191 52.4883 45.0283 52.0145 45.0283 51.501C45.0283 51.0013 45.1191 50.5321 45.3009 50.0943C45.4824 49.6565 45.7363 49.2728 46.0625 48.9439C46.3883 48.6154 46.7796 48.3576 47.2353 48.1688C47.6913 47.9807 48.1971 47.8866 48.753 47.8866C49.1455 47.8866 49.4977 47.9315 49.809 48.0199C50.1203 48.109 50.3929 48.2201 50.6265 48.3537C50.8597 48.4874 51.0599 48.6327 51.2265 48.7901C51.3934 48.9475 51.5285 49.0985 51.6323 49.2417L50.8765 49.8376C50.7877 49.7212 50.682 49.5999 50.5595 49.473C50.4373 49.3464 50.2907 49.2318 50.1203 49.1292C49.9499 49.0263 49.7535 48.9411 49.5314 48.8722C49.309 48.8039 49.0532 48.77 48.7641 48.77C48.3564 48.77 47.9915 48.8414 47.6691 48.9853C47.3463 49.1292 47.0725 49.3241 46.8463 49.5702C46.62 49.8167 46.4477 50.1045 46.3294 50.4331C46.2107 50.7616 46.1513 51.111 46.1513 51.4801C46.1513 51.85 46.2126 52.1977 46.3347 52.5226C46.4572 52.8476 46.6295 53.1302 46.852 53.3696C47.0741 53.6097 47.3444 53.7978 47.6633 53.9347C47.9819 54.0715 48.3376 54.1398 48.7308 54.1398C49.0643 54.1398 49.3515 54.1005 49.5923 54.0217C49.8331 53.9432 50.0368 53.8491 50.2038 53.7395C50.3707 53.6298 50.5074 53.5185 50.615 53.4056C50.7222 53.2928 50.8133 53.1988 50.8876 53.1231L51.6323 53.6981Z" fill="white"/>
<path d="M54.9788 54.2424C55.2457 54.2424 55.4865 54.1933 55.7013 54.0935C55.9165 53.9945 56.098 53.8644 56.2462 53.7038C56.3944 53.5429 56.5077 53.358 56.5854 53.149C56.6631 52.9404 56.7022 52.7264 56.7022 52.5072C56.7022 52.2953 56.6631 52.0846 56.5854 51.8756C56.5077 51.667 56.3924 51.4802 56.2408 51.3162C56.0888 51.1517 55.907 51.0202 55.696 50.9208C55.4846 50.8218 55.2457 50.7719 54.9788 50.7719C54.712 50.7719 54.4711 50.8218 54.2563 50.9208C54.0412 51.0202 53.8597 51.1503 53.7115 51.3109C53.5629 51.4718 53.45 51.6571 53.3726 51.8657C53.2945 52.0743 53.2555 52.2883 53.2555 52.5072C53.2555 52.7264 53.2945 52.9386 53.3726 53.1441C53.45 53.3495 53.5648 53.5341 53.7169 53.6982C53.8689 53.8626 54.0507 53.9945 54.2617 54.0935C54.473 54.1933 54.712 54.2424 54.9788 54.2424ZM54.9788 55.0437C54.5787 55.0437 54.2119 54.9769 53.878 54.8436C53.5446 54.7099 53.2574 54.5267 53.0166 54.2937C52.7757 54.0614 52.5866 53.7922 52.4495 53.4878C52.3124 53.1837 52.2439 52.8562 52.2439 52.5072C52.2439 52.1585 52.3124 51.8314 52.4495 51.5266C52.5866 51.2224 52.7757 50.9537 53.0166 50.7206C53.2574 50.488 53.5446 50.3048 53.878 50.1715C54.2119 50.0381 54.5787 49.9713 54.9788 49.9713C55.3717 49.9713 55.735 50.0381 56.0685 50.1715C56.402 50.3048 56.6911 50.488 56.9358 50.7206C57.18 50.9537 57.3711 51.2224 57.5082 51.5266C57.6452 51.8314 57.7138 52.1585 57.7138 52.5072C57.7138 52.8562 57.6452 53.1837 57.5082 53.4878C57.3711 53.7922 57.18 54.0614 56.9358 54.2937C56.6911 54.5267 56.402 54.7099 56.0685 54.8436C55.735 54.9769 55.3717 55.0437 54.9788 55.0437Z" fill="white"/>
<path d="M58.848 54.9V50.428C58.848 50.3633 58.8442 50.2622 58.8369 50.1253H59.793L59.8263 50.8442C59.8856 50.7618 59.9634 50.6713 60.0598 50.5719C60.156 50.4729 60.2708 50.382 60.4044 50.3C60.5381 50.218 60.6954 50.149 60.8769 50.0945C61.0588 50.0397 61.2678 50.0121 61.5052 50.0121C61.9057 50.0121 62.2373 50.0861 62.5004 50.2332C62.7634 50.3806 62.9686 50.5942 63.1172 50.875C63.3243 50.649 63.5786 50.4489 63.8787 50.2742C64.1789 50.0998 64.5515 50.0121 64.996 50.0121C65.663 50.0121 66.1561 50.1953 66.4747 50.5617C66.7933 50.9277 66.9529 51.4192 66.9529 52.0349V54.9H65.9524V52.107C65.9524 51.6622 65.8575 51.3354 65.6687 51.1264C65.4796 50.9178 65.2035 50.8131 64.8402 50.8131C64.6326 50.8131 64.442 50.8527 64.2677 50.9312C64.0935 51.0101 63.9415 51.1144 63.8121 51.2445C63.6823 51.3743 63.582 51.5267 63.5119 51.7014C63.4415 51.8758 63.4063 52.0593 63.4063 52.2506V54.9H62.4058V52.107C62.4058 51.6622 62.3112 51.3354 62.1224 51.1264C61.9329 50.9178 61.6611 50.8131 61.305 50.8131C61.0308 50.8131 60.8011 50.8683 60.6158 50.9775C60.4301 51.0872 60.28 51.229 60.1655 51.4037C60.0503 51.578 59.9691 51.7785 59.9209 52.0041C59.8726 52.2304 59.8485 52.4564 59.8485 52.6817V54.9H58.848Z" fill="white"/>
<path d="M68.2974 54.9V50.428C68.2974 50.3633 68.2935 50.2622 68.2859 50.1253H69.2423L69.2756 50.8442C69.335 50.7618 69.4127 50.6713 69.5092 50.5719C69.6049 50.4729 69.7202 50.382 69.8534 50.3C69.987 50.218 70.1444 50.149 70.3263 50.0945C70.5078 50.0397 70.7172 50.0121 70.9542 50.0121C71.3547 50.0121 71.6863 50.0861 71.9493 50.2332C72.2124 50.3806 72.418 50.5942 72.5665 50.875C72.7737 50.649 73.0275 50.4489 73.3277 50.2742C73.6279 50.0998 74.0004 50.0121 74.4454 50.0121C75.1127 50.0121 75.6051 50.1953 75.9244 50.5617C76.2426 50.9277 76.4019 51.4192 76.4019 52.0349V54.9H75.4014V52.107C75.4014 51.6622 75.3072 51.3354 75.1185 51.1264C74.9289 50.9178 74.6525 50.8131 74.2899 50.8131C74.082 50.8131 73.8913 50.8527 73.7171 50.9312C73.5429 51.0101 73.3909 51.1144 73.2615 51.2445C73.1317 51.3743 73.0314 51.5267 72.9613 51.7014C72.8905 51.8758 72.8556 52.0593 72.8556 52.2506V54.9H71.8551V52.107C71.8551 51.6622 71.7602 51.3354 71.5714 51.1264C71.3823 50.9178 71.11 50.8131 70.7543 50.8131C70.4798 50.8131 70.2501 50.8683 70.0648 50.9775C69.8795 51.0872 69.7297 51.229 69.6149 51.4037C69.4992 51.578 69.4181 51.7785 69.3698 52.0041C69.322 52.2304 69.2979 52.4564 69.2979 52.6817V54.9H68.2974Z" fill="white"/>
<path d="M77.7923 50.1253H78.7928V54.9H77.7923V50.1253ZM77.7253 48.2359H78.8483V49.2731H77.7253V48.2359Z" fill="white"/>
<path d="M80.549 53.6982C80.7343 53.8697 80.9567 54.0065 81.2163 54.1091C81.4755 54.2116 81.7757 54.2633 82.1165 54.2633C82.4504 54.2633 82.7283 54.2134 82.9504 54.1144C83.1733 54.015 83.2843 53.8591 83.2843 53.6469C83.2843 53.5376 83.2598 53.4436 83.2119 53.3647C83.1633 53.2859 83.0821 53.2158 82.9673 53.154C82.8524 53.0924 82.7004 53.0362 82.5116 52.9849C82.3225 52.9336 82.087 52.8771 81.8056 52.8155C81.6053 52.7742 81.407 52.7193 81.211 52.6514C81.0142 52.5825 80.8384 52.492 80.6826 52.3792C80.5268 52.266 80.4008 52.1291 80.3047 51.9682C80.2082 51.8073 80.1603 51.6143 80.1603 51.3883C80.1603 51.1556 80.2174 50.9516 80.3323 50.7772C80.4471 50.6025 80.6007 50.4558 80.7936 50.3355C80.9862 50.216 81.2033 50.1251 81.4442 50.0636C81.6846 50.0021 81.935 49.9713 82.1946 49.9713C82.6319 49.9713 83.0079 50.024 83.323 50.1301C83.6377 50.2365 83.9138 50.3854 84.1515 50.5771L83.6067 51.2136C83.4508 51.0835 83.2563 50.9738 83.0228 50.8851C82.7892 50.796 82.517 50.7514 82.2057 50.7514C81.8868 50.7514 81.6314 50.7995 81.4384 50.8953C81.2458 50.9915 81.1493 51.1485 81.1493 51.3678C81.1493 51.5729 81.2772 51.7253 81.5334 51.8243C81.7887 51.9237 82.1242 52.0181 82.5392 52.1072C82.7839 52.1617 83.0117 52.225 83.2226 52.2968C83.434 52.3685 83.6193 52.4612 83.779 52.574C83.9383 52.6872 84.0642 52.8254 84.1569 52.9899C84.2495 53.154 84.2959 53.3527 84.2959 53.5854C84.2959 53.8251 84.2361 54.0359 84.1182 54.217C83.9995 54.3984 83.8399 54.5508 83.64 54.6742C83.4397 54.7973 83.21 54.8896 82.9504 54.9511C82.6912 55.0126 82.4205 55.0434 82.1391 55.0434C81.1608 55.0434 80.4272 54.8004 79.9375 54.3146L80.549 53.6982Z" fill="white"/>
<path d="M85.7965 53.6982C85.9818 53.8697 86.2039 54.0065 86.4639 54.1091C86.7231 54.2116 87.0233 54.2633 87.3641 54.2633C87.6975 54.2633 87.9759 54.2134 88.198 54.1144C88.4204 54.015 88.5315 53.8591 88.5315 53.6469C88.5315 53.5376 88.5073 53.4436 88.4595 53.3647C88.4109 53.2859 88.3293 53.2158 88.2148 53.154C88.1 53.0924 87.9476 53.0362 87.7592 52.9849C87.57 52.9336 87.3342 52.8771 87.0528 52.8155C86.8529 52.7742 86.6546 52.7193 86.4581 52.6514C86.2617 52.5825 86.0856 52.492 85.9302 52.3792C85.7743 52.266 85.648 52.1291 85.5522 51.9682C85.4558 51.8073 85.4075 51.6143 85.4075 51.3883C85.4075 51.1556 85.4649 50.9516 85.5798 50.7772C85.6947 50.6025 85.8482 50.4558 86.0412 50.3355C86.2338 50.216 86.4509 50.1251 86.6917 50.0636C86.9322 50.0021 87.1826 49.9713 87.4422 49.9713C87.8794 49.9713 88.255 50.024 88.5705 50.1301C88.8853 50.2365 89.1613 50.3854 89.3991 50.5771L88.8539 51.2136C88.698 51.0835 88.5035 50.9738 88.27 50.8851C88.0368 50.796 87.7646 50.7514 87.4529 50.7514C87.1343 50.7514 86.8789 50.7995 86.686 50.8953C86.4934 50.9915 86.3969 51.1485 86.3969 51.3678C86.3969 51.5729 86.5248 51.7253 86.7805 51.8243C87.0363 51.9237 87.3713 52.0181 87.7868 52.1072C88.0314 52.1617 88.2592 52.225 88.4702 52.2968C88.6816 52.3685 88.8669 52.4612 89.0262 52.574C89.1854 52.6872 89.3114 52.8254 89.4044 52.9899C89.4971 53.154 89.5434 53.3527 89.5434 53.5854C89.5434 53.8251 89.4837 54.0359 89.3654 54.217C89.2467 54.3984 89.0874 54.5508 88.8872 54.6742C88.6873 54.7973 88.4572 54.8896 88.198 54.9511C87.9384 55.0126 87.6681 55.0434 87.3866 55.0434C86.408 55.0434 85.6744 54.8004 85.1851 54.3146L85.7965 53.6982Z" fill="white"/>
<path d="M90.7547 50.1253H91.7552V54.9H90.7547V50.1253ZM90.6877 48.2359H91.8107V49.2731H90.6877V48.2359Z" fill="white"/>
<path d="M95.6684 54.2424C95.9353 54.2424 96.1761 54.1933 96.3913 54.0935C96.6061 53.9945 96.7876 53.8644 96.9361 53.7038C97.0839 53.5429 97.1973 53.358 97.2754 53.149C97.3531 52.9404 97.3918 52.7264 97.3918 52.5072C97.3918 52.2953 97.3531 52.0846 97.2754 51.8756C97.1973 51.667 97.0824 51.4802 96.9304 51.3162C96.7784 51.1517 96.5973 51.0202 96.3855 50.9208C96.1746 50.8218 95.9353 50.7719 95.6684 50.7719C95.4015 50.7719 95.1607 50.8218 94.9459 50.9208C94.7311 51.0202 94.5492 51.1503 94.4011 51.3109C94.2529 51.4718 94.1399 51.6571 94.0618 51.8657C93.9841 52.0743 93.9454 52.2883 93.9454 52.5072C93.9454 52.7264 93.9841 52.9386 94.0618 53.1441C94.1399 53.3495 94.2548 53.5341 94.4068 53.6982C94.5584 53.8626 94.7399 53.9945 94.9513 54.0935C95.1626 54.1933 95.4015 54.2424 95.6684 54.2424ZM95.6684 55.0437C95.2683 55.0437 94.9015 54.9769 94.568 54.8436C94.2345 54.7099 93.947 54.5267 93.7061 54.2937C93.4653 54.0614 93.2765 53.7922 93.1394 53.4878C93.002 53.1837 92.9338 52.8562 92.9338 52.5072C92.9338 52.1585 93.002 51.8314 93.1394 51.5266C93.2765 51.2224 93.4653 50.9537 93.7061 50.7206C93.947 50.488 94.2345 50.3048 94.568 50.1715C94.9015 50.0381 95.2683 49.9713 95.6684 49.9713C96.0612 49.9713 96.4246 50.0381 96.7581 50.1715C97.0916 50.3048 97.381 50.488 97.6253 50.7206C97.87 50.9537 98.0607 51.2224 98.1977 51.5266C98.3348 51.8314 98.4033 52.1585 98.4033 52.5072C98.4033 52.8562 98.3348 53.1837 98.1977 53.4878C98.0607 53.7922 97.87 54.0614 97.6253 54.2937C97.381 54.5267 97.0916 54.7099 96.7581 54.8436C96.4246 54.9769 96.0612 55.0437 95.6684 55.0437Z" fill="white"/>
<path d="M99.5379 54.9V50.428C99.5379 50.3633 99.534 50.2622 99.5264 50.1253H100.483L100.516 50.8442C100.582 50.7618 100.664 50.6713 100.76 50.5719C100.857 50.4729 100.976 50.382 101.116 50.3C101.257 50.218 101.422 50.149 101.611 50.0945C101.8 50.0397 102.013 50.0121 102.25 50.0121C102.925 50.0121 103.425 50.1939 103.751 50.5564C104.077 50.9192 104.24 51.4122 104.24 52.0349V54.9H103.24V52.107C103.24 51.6622 103.136 51.3354 102.928 51.1264C102.721 50.9178 102.428 50.8131 102.05 50.8131C101.761 50.8131 101.52 50.8683 101.327 50.9775C101.134 51.0872 100.981 51.229 100.866 51.4037C100.751 51.578 100.668 51.7767 100.616 51.9992C100.564 52.2216 100.538 52.4493 100.538 52.6817V54.9H99.5379Z" fill="white"/>
<path d="M90.3963 24.0235C90.3316 24.1022 90.3949 21.9853 90.3963 21.9546C90.3963 21.9533 90.3949 21.9542 90.394 21.9542H88.1425C88.1411 21.9542 88.1407 21.9546 88.1407 21.9533C88.142 21.9268 88.2363 19.9534 88.1407 19.8848L88.1402 19.8844C88.0705 19.8612 85.9242 19.8945 85.885 19.8848L85.8841 19.8844C85.793 19.8579 85.8782 21.9134 85.885 21.9533C85.885 21.9542 85.885 21.9542 85.886 21.9546C85.916 21.9824 83.6613 21.9546 83.6294 21.9542C83.6285 21.9542 83.6294 21.9533 83.6294 21.9542C83.6276 21.9836 83.5142 24.045 83.6281 24.0235C83.6294 24.0235 83.6299 24.024 83.6303 24.0244C83.6936 24.1211 81.5136 24.0244 81.4822 24.0235C81.4818 24.0235 81.4818 24.0227 81.4818 24.0214V21.9559C81.4818 21.9546 81.4827 21.9542 81.4818 21.9542C81.4522 21.9559 79.3778 22.0509 79.2302 21.9575C79.2298 21.9571 79.2302 21.9584 79.2302 21.9575C79.2585 21.9121 79.0599 19.8486 79.2261 19.8848C79.222 19.8806 79.2107 19.8848 79.2107 19.8848C78.9296 19.934 76.9997 19.8848 76.9714 19.8848C76.9701 19.8844 76.971 19.8844 76.971 19.8848C76.971 19.9155 76.9623 21.9331 76.955 21.9542C76.955 21.9546 76.9546 21.9542 76.9541 21.9542C76.7874 22.0177 74.6912 21.8785 74.7176 21.9542C74.3501 21.9003 75.0424 23.8338 74.7318 24.0122C74.7309 24.0122 74.7299 24.0118 74.7295 24.0109C74.7113 23.9672 72.8506 24.045 72.5527 24.0235H72.5518C72.3841 23.9369 72.3532 21.8553 72.5522 21.9542C72.524 21.9058 70.3267 21.9533 70.2966 21.9542C70.2961 21.9542 70.2966 21.9546 70.2966 21.9533C70.2939 21.9302 70.0625 20.0018 70.2948 19.8848C70.2961 19.8848 70.2961 19.8844 70.2961 19.8835C70.2365 19.7687 67.8588 19.9012 68.0405 19.8848C67.7144 19.8949 67.7139 21.8461 68.025 21.9542C68.2751 21.9071 65.8022 21.9533 65.7699 21.9542C65.769 21.9542 65.7699 21.9546 65.7699 21.9559V24.0214C65.7699 24.0227 65.7703 24.0235 65.769 24.0235C65.7375 24.0244 63.5193 24.1106 63.6222 24.0235C63.7384 23.9861 63.6236 21.9832 63.6222 21.9542C63.6222 21.9533 63.6213 21.9542 63.6204 21.9542H61.3684C61.3675 21.9542 61.3666 21.9533 61.3666 21.9525L61.3511 19.8861C61.3511 19.8848 61.3502 19.8848 61.3493 19.8848H59.1123C59.1119 19.8848 59.1114 19.8844 59.1114 19.8848C59.1069 19.91 58.7511 21.8814 59.0914 21.9533C59.0932 21.9533 59.0946 21.9554 59.0932 21.9559C58.9397 22.0593 56.8681 21.9559 56.8403 21.9542C56.8394 21.9542 56.8394 21.9533 56.8394 21.9546C56.8381 21.984 56.7 24.0366 56.8394 24.0235C57.0786 24.0395 55.0671 23.9226 54.7227 24.0223C54.7214 24.0227 54.7209 24.0223 54.7209 24.021C54.7364 23.9268 54.6931 21.9832 54.6927 21.9542C54.6927 21.9533 54.6918 21.9542 54.6908 21.9542H52.4653C52.4644 21.9542 52.463 21.9529 52.463 21.9525V19.8861C52.463 19.8848 52.4644 19.8848 52.463 19.8844C52.4366 19.884 50.3377 19.8095 50.2092 19.884C50.2083 19.8844 50.2088 19.8848 50.2101 19.8856C50.4506 20.0085 50.2161 21.9108 50.1819 21.9533L50.181 21.9542C50.0288 21.9979 48.0238 21.9546 47.9317 21.9542C47.9299 21.9542 47.9322 21.9542 47.9336 21.9554C48.0115 22.0135 48.0839 24.1026 47.929 24.0235C47.8138 23.9583 46.0765 23.9941 45.8328 24.0181C45.8305 24.0189 45.8328 24.0172 45.8346 24.0168C46.117 23.886 45.7932 21.9794 45.7895 21.9542C45.7891 21.9533 45.7891 21.9542 45.7877 21.9542H43.5512C43.5503 21.9542 43.5494 21.9529 43.5494 21.9525V19.8861C43.5494 19.8848 43.5485 19.8848 43.548 19.8848H41.2779C41.2779 19.8848 41.2095 21.9024 41.2769 21.9533C41.2779 21.9542 41.2774 21.9542 41.2765 21.9546C40.9695 22.0282 39.0409 21.9542 39.0409 21.9542H39.0227V24.0214C39.0227 24.0227 39.0227 24.0235 39.0222 24.0235C38.9926 24.0223 37.1123 23.9411 36.8759 24.0235H36.8746C36.7124 23.9739 37.0422 22.0547 36.86 21.9546C36.8595 21.9542 36.8595 21.9542 36.8591 21.9542C36.4742 21.9971 34.654 21.836 34.6199 21.9542C34.2646 22.0816 34.7178 19.9159 34.6048 19.8848C34.6039 19.8848 34.6039 19.8844 34.6039 19.8848C34.5939 19.8949 32.7145 19.8339 32.3479 19.8848C32.096 19.8293 32.1356 21.8158 32.3465 21.9525C32.3474 21.9533 32.3474 21.9542 32.3465 21.9546C32.2326 21.9971 30.4976 21.9294 30.115 21.9533C30.1132 21.9542 30.1136 21.9546 30.115 21.9554C30.2876 22.0257 29.9975 23.9659 30.0927 24.0235C30.4015 24.1199 28.0662 24.0282 27.9455 24.0235H27.945C27.8034 23.9377 28.314 21.9592 27.93 21.9542C27.9878 21.8423 26.0424 22.0316 25.6903 21.9542C25.4065 22.0257 25.5746 19.9458 25.6903 19.8848C25.9281 19.7948 23.5331 19.7826 23.4361 19.8823C23.4356 19.8835 23.437 19.8827 23.4379 19.884C23.4848 19.9307 23.5112 21.9626 23.4183 21.9542C23.667 22.0678 21.3043 21.9975 21.185 21.9559C21.1827 21.9554 21.1836 21.9559 21.1855 21.9571C21.3353 22.0795 21.3408 23.9773 21.1636 24.0235H21.1627C21.129 23.9962 19.1471 24.1136 19.0187 24.0257C19.0173 24.0252 19.0196 24.0235 19.0214 24.0235C19.3986 24.0282 18.79 22.0585 18.9909 21.9575C18.9927 21.9571 18.9945 21.9546 18.9927 21.9546C18.5486 21.9626 16.4893 22.0648 16.7603 21.9542C16.9129 21.9062 16.8619 19.9235 16.7608 19.8848C16.7603 19.8848 16.7603 19.8848 16.7594 19.8844C16.6592 19.8671 14.5052 19.7767 14.5047 19.8848C14.3193 19.8545 14.4282 21.8145 14.5042 21.9529C14.5042 21.9533 14.5033 21.9542 14.5029 21.9546C14.1016 22.0644 12.5821 21.9512 12.2582 21.9542C12.2573 21.9542 12.2573 21.9546 12.2577 21.9559C12.3042 22.0446 12.2523 23.9949 12.2518 24.0235C12.2518 24.024 12.2504 24.0235 12.25 24.0235H10.8931C10.8926 24.0235 10.8912 24.0227 10.8912 24.0235C10.8894 24.0517 10.7268 26.2385 10.8908 26.3634H10.8926C11.9995 26.4471 12.5429 26.3071 13.8301 26.3483C14.9338 26.2717 21.5485 26.2662 22.7601 26.3483C23.7677 26.2793 25.5031 26.4387 26.5239 26.3483C27.4075 26.3933 32.8944 26.3293 33.5718 26.3504C34.1184 26.2877 43.7598 26.2482 44.3834 26.3483C44.9537 26.4291 48.8004 26.4055 49.5068 26.3483C50.1846 26.2498 70.3727 26.3584 71.1311 26.3483C72.0785 26.3563 75.2902 26.3781 76.2968 26.3483C76.9154 26.3575 77.8551 26.3075 78.179 26.3504C79.0968 26.4661 85.0478 26.1998 85.7397 26.3024C87.1199 26.4694 87.564 26.4244 88.9906 26.3483C89.9034 26.2557 91.0818 26.2275 91.8862 26.3634C92.1572 26.3571 91.5637 24.0492 91.8803 24.0235C91.8821 24.0235 91.8839 24.0223 91.8821 24.0214C91.7546 23.976 90.6081 24.0063 90.3963 24.0235Z" fill="#F8C29B"/>
<path d="M21.2962 11.4125C21.3031 11.301 21.2716 9.35788 21.2962 9.34316C21.2694 9.26154 19.1736 9.21821 19.1486 9.34316C19.1659 9.46894 19.1458 11.2485 19.1486 11.4125C19.1663 11.3099 16.8975 11.4853 16.8934 11.4125C16.8611 11.3633 16.872 13.569 16.8934 13.4819C16.9071 13.5261 16.8711 15.3944 16.8934 15.5513C16.8907 15.6935 19.1404 15.3872 19.1486 15.5513C19.1217 15.5647 19.1736 17.7288 19.1486 17.6202C19.1572 17.6034 21.3181 17.6593 21.2962 17.6202C21.3031 17.7544 21.3149 15.4655 21.2962 15.5513C21.2821 15.5862 23.5678 15.7057 23.5518 15.5513C23.5796 15.4528 23.571 13.333 23.5518 13.4819C23.5528 13.4764 23.5723 11.5156 23.5518 11.4125C23.5473 11.5636 21.2794 11.4268 21.2962 11.4125Z" fill="#6E2A52"/>
<path d="M30.199 11.4124C30.1913 11.4241 30.1931 9.20584 30.199 9.34298C30.199 9.18691 28.0395 9.30765 28.0513 9.34298C28.0605 9.29082 28.0732 11.3366 28.0513 11.4124C28.0732 11.5667 25.7634 11.3021 25.7962 11.4124C25.7834 11.4494 25.7875 13.4043 25.7962 13.4817C25.7875 13.6311 25.8003 15.4678 25.7962 15.5511C25.767 15.5082 28.0272 15.6702 28.0513 15.5511C28.0618 15.5616 28.034 17.5839 28.0513 17.6201C28.0491 17.782 30.2031 17.6335 30.199 17.6201C30.1867 17.6874 30.1967 15.6293 30.199 15.5511C30.2314 15.6079 32.4528 15.5225 32.4546 15.5511C32.482 15.5452 32.4309 13.4153 32.4546 13.4817C32.4624 13.3475 32.4574 11.3232 32.4546 11.4124C32.4268 11.4401 30.2022 11.319 30.199 11.4124Z" fill="#80B9BB"/>
<path d="M39.1027 11.4123C39.1087 11.5049 39.1292 9.27144 39.1027 9.34296C39.0882 9.37872 36.9578 9.3337 36.9551 9.34296C36.9797 9.49146 36.9428 11.385 36.9551 11.4123C36.9701 11.2899 34.72 11.5385 34.6995 11.4123C34.6662 11.4876 34.7177 13.4035 34.6995 13.4817C34.6849 13.3429 34.6862 15.6533 34.6995 15.5511C34.6694 15.5183 36.966 15.6117 36.9551 15.5511C36.9432 15.4623 36.9738 17.4576 36.9551 17.62C36.9692 17.6394 39.1159 17.578 39.1027 17.62C39.0895 17.5645 39.1246 15.6562 39.1027 15.5511C39.1205 15.6247 41.3479 15.6811 41.3579 15.5511C41.3852 15.655 41.3615 13.5637 41.3579 13.4817C41.326 13.3547 41.3675 11.5221 41.3579 11.4123C41.3634 11.4439 39.0936 11.5579 39.1027 11.4123Z" fill="#113241"/>
<path d="M48.0061 11.4124C47.9915 11.3296 47.9974 9.20087 48.0061 9.34306C48.0339 9.46169 45.8684 9.36115 45.858 9.34306C45.8498 9.26523 45.8375 11.3712 45.858 11.4124C45.8297 11.5033 43.5932 11.3333 43.6028 11.4124C43.6238 11.2568 43.6238 13.6059 43.6028 13.4818C43.5923 13.462 43.5973 15.5735 43.6028 15.5512C43.5846 15.6387 45.8634 15.4199 45.858 15.5512C45.8798 15.584 45.8848 17.5814 45.858 17.6201C45.827 17.4863 48.0047 17.682 48.0061 17.6201C48.0384 17.6664 48.022 15.5562 48.0061 15.5512C47.986 15.6551 50.2294 15.5478 50.2612 15.5512C50.2444 15.5213 50.284 13.4494 50.2612 13.4818C50.269 13.5647 50.2512 11.5483 50.2612 11.4124C50.2858 11.2997 48.0061 11.5218 48.0061 11.4124Z" fill="#F49D41"/>
<path d="M56.9085 11.4125C56.9163 11.3233 56.8981 9.25774 56.9085 9.34314C56.8853 9.28592 54.7445 9.18201 54.7609 9.34314C54.7285 9.36249 54.7463 11.28 54.7609 11.4125C54.7477 11.4075 52.5098 11.4504 52.5052 11.4125C52.5144 11.3847 52.518 13.492 52.5052 13.4819C52.4861 13.6056 52.5271 15.4293 52.5052 15.5513C52.4893 15.643 54.785 15.5416 54.7609 15.5513C54.7868 15.415 54.77 17.7611 54.7609 17.6202C54.785 17.5386 56.9063 17.56 56.9085 17.6202C56.9049 17.5079 56.9331 15.6139 56.9085 15.5513C56.9395 15.7048 59.1819 15.4566 59.1641 15.5513C59.1327 15.5462 59.14 13.4188 59.1641 13.4819C59.1441 13.4945 59.1459 11.4012 59.1641 11.4125C59.1345 11.5442 56.9181 11.4428 56.9085 11.4125Z" fill="#E95345"/>
<path d="M65.8112 11.4124C65.8034 11.3051 65.8349 9.45537 65.8112 9.34304C65.818 9.18486 63.6895 9.45831 63.6635 9.34304C63.6635 9.22188 63.6398 11.2711 63.6635 11.4124C63.6758 11.3287 61.4161 11.4801 61.4083 11.4124C61.4307 11.5205 61.4334 13.5159 61.4083 13.4818C61.4175 13.5466 61.4097 15.5676 61.4083 15.5512C61.3874 15.6946 63.6776 15.5865 63.6635 15.5512C63.6334 15.6563 63.6462 17.6512 63.6635 17.6201C63.6594 17.4901 65.8271 17.5309 65.8112 17.6201C65.8203 17.5915 65.8162 15.7022 65.8112 15.5512C65.7975 15.7127 68.0436 15.714 68.0668 15.5512C68.0741 15.6105 68.0436 13.5247 68.0668 13.4818C68.0449 13.4242 68.0449 11.3552 68.0668 11.4124C68.0522 11.3838 65.8034 11.5205 65.8112 11.4124Z" fill="#BE343B"/>
<path d="M74.7142 11.4125C74.7384 11.2619 74.7129 9.39277 74.7142 9.34313C74.7452 9.28129 72.5848 9.25773 72.5666 9.34313C72.578 9.44494 72.5616 11.5581 72.5666 11.4125C72.5857 11.4075 70.2918 11.402 70.3114 11.4125C70.336 11.5282 70.3406 13.3683 70.3114 13.4819C70.3041 13.5971 70.2827 15.4292 70.3114 15.5512C70.3141 15.59 72.5825 15.6139 72.5666 15.5512C72.5912 15.6653 72.5397 17.7296 72.5666 17.6202C72.5456 17.4574 74.7142 17.6303 74.7142 17.6202C74.7425 17.552 74.6956 15.6388 74.7142 15.5512C74.7256 15.5479 76.9949 15.6497 76.9699 15.5512C76.9744 15.5769 76.9944 13.5887 76.9699 13.4819C76.9821 13.4398 76.9844 11.3805 76.9699 11.4125C76.943 11.5635 74.7197 11.4032 74.7142 11.4125Z" fill="#80B9BB"/>
<path d="M83.6174 11.4126C83.5919 11.5034 83.6456 9.45551 83.6174 9.34319C83.6083 9.50515 81.4374 9.26283 81.4697 9.34319C81.4442 9.34445 81.4962 11.3318 81.4697 11.4126C81.4583 11.3183 79.1813 11.5156 79.2141 11.4126C79.2 11.3903 79.2355 13.5892 79.2141 13.4819C79.2064 13.378 79.2228 15.5118 79.2141 15.5513C79.2264 15.7049 81.4788 15.4684 81.4697 15.5513C81.4697 15.5791 81.4998 17.6577 81.4697 17.6203C81.4647 17.6371 83.5928 17.6505 83.6174 17.6203C83.5896 17.6623 83.6415 15.5757 83.6174 15.5513C83.5864 15.6969 85.8566 15.6876 85.8726 15.5513C85.8425 15.5113 85.8789 13.6355 85.8726 13.4819C85.8534 13.5034 85.8926 11.2716 85.8726 11.4126C85.8512 11.3137 83.6015 11.3722 83.6174 11.4126Z" fill="#E95345"/>
<path d="M90.3965 2.99826C90.3323 2.92044 90.3938 4.99486 90.3965 5.06553C90.3965 5.06806 90.3938 5.06764 90.392 5.06764H88.145C88.1428 5.06764 88.1409 5.06722 88.1409 5.06932C88.1441 5.13158 88.2357 7.06802 88.1409 7.13659L88.1405 7.13743C88.0694 7.16057 85.9177 7.12691 85.8853 7.13659C85.8849 7.13743 85.8849 7.13743 85.8844 7.13743C85.7938 7.16015 85.8776 5.11938 85.8853 5.06806C85.8853 5.06722 85.8867 5.06764 85.8862 5.06637C85.8794 5.03987 83.6639 5.06722 83.6302 5.06764C83.6288 5.06764 83.6297 5.06806 83.6297 5.06722C83.6279 5.03651 83.5149 2.99069 83.627 2.99826C83.6283 2.99826 83.6306 2.99742 83.6315 2.99616C83.6757 2.90235 81.5549 2.9949 81.4843 2.99826C81.482 2.99826 81.482 2.99995 81.482 3.00247V5.06385C81.482 5.06595 81.4829 5.06764 81.4802 5.06764C81.4133 5.06427 79.3813 4.9713 79.2314 5.06427C79.2565 5.12317 79.0761 7.01206 79.2087 7.13154C79.2109 7.13406 79.2091 7.13659 79.2059 7.13659C78.9786 7.13491 77.0013 7.13575 76.9717 7.13659C76.9703 7.13743 76.9717 7.13743 76.9713 7.13659C76.9713 7.10714 76.9626 5.08825 76.9553 5.06764C76.9553 5.06722 76.9553 5.06764 76.9549 5.06764C76.7886 5.00411 74.6915 5.14336 74.7179 5.06764C74.3389 5.12317 75.0864 3.06515 74.6997 2.99826C75.0122 3.05338 72.8763 2.97555 72.5534 2.99826C72.5525 2.99826 72.5525 2.99826 72.5511 2.99911C72.394 3.08282 72.3644 4.94101 72.5215 5.06469C72.5242 5.06722 72.5229 5.06764 72.5197 5.06764H70.3005C70.2982 5.06764 70.2969 5.06722 70.2964 5.06848C70.2905 5.12191 70.0655 7.01206 70.2941 7.13575C70.295 7.13659 70.2964 7.13785 70.295 7.13953C70.2194 7.25186 67.86 7.1206 68.0408 7.13659C67.7197 7.12691 67.7142 5.23675 68.0107 5.07437C68.0139 5.07269 68.0153 5.06974 68.0116 5.07058C67.8244 5.08657 65.8339 5.06806 65.7711 5.06764C65.7692 5.06764 65.7701 5.06595 65.7701 5.06427V3.00247C65.7701 2.99995 65.7701 2.99826 65.7683 2.99826C65.6964 2.99574 63.52 2.9116 63.6225 2.99826C63.7373 3.03529 63.6266 5.00033 63.6229 5.06595C63.6225 5.06806 63.6207 5.06764 63.6188 5.06764H61.371C61.3687 5.06764 61.3669 5.06932 61.3669 5.07142L61.3514 7.13322C61.3514 7.13575 61.3496 7.13659 61.3477 7.13659H59.1144C59.1126 7.13659 59.1117 7.13743 59.1108 7.13575C59.1008 7.07769 58.7569 5.15135 59.0885 5.06932C59.0921 5.06806 59.0949 5.06637 59.0912 5.06427C58.9209 4.96373 56.8711 5.06595 56.8406 5.06764C56.8392 5.06764 56.8397 5.06806 56.8397 5.06722C56.8383 5.0344 56.7099 3.11942 56.8269 3.00415C56.8297 3.00121 56.8301 2.99911 56.826 2.99911C56.6589 3.00836 55.0528 3.09418 54.7244 2.99995C54.7221 2.99911 54.7212 2.99911 54.7212 3.00121C54.7362 3.09797 54.6938 5.00874 54.6929 5.06595C54.6929 5.06806 54.6911 5.06764 54.6884 5.06764H52.4678C52.4656 5.06764 52.4633 5.06932 52.4633 5.07142V7.13322C52.4633 7.13575 52.4647 7.13659 52.4619 7.13743C52.4004 7.13953 50.3507 7.21105 50.2109 7.13911C50.2086 7.13743 50.2095 7.13659 50.2122 7.13491C50.4495 7.00491 50.2168 5.11644 50.1822 5.06806C50.1812 5.06764 50.1812 5.06764 50.1808 5.06722C50.0264 5.02346 48.035 5.06469 47.9334 5.06764C47.9297 5.06764 47.9306 5.06764 47.9325 5.06469C47.9862 4.98098 48.0837 2.91875 47.9293 2.99826C47.8159 3.06221 46.1178 3.02898 45.8422 3.00415C45.8381 3.00415 45.8381 3.00668 45.8422 3.00878C46.11 3.16864 45.798 5.01631 45.7898 5.06637C45.7894 5.06848 45.788 5.06764 45.7862 5.06764H43.5538C43.5515 5.06764 43.5497 5.06932 43.5497 5.07142V7.13322C43.5497 7.13575 43.5474 7.13659 43.546 7.13659H41.2781C41.2781 7.13659 41.2103 5.1421 41.2758 5.06974C41.2777 5.06764 41.2772 5.06722 41.2749 5.06637C40.962 4.9936 39.0412 5.06764 39.0412 5.06764H39.023V3.00247C39.023 2.99995 39.023 2.99826 39.0207 2.99826C38.9537 3.00121 37.1135 3.07946 36.8767 2.99911C36.8753 2.99826 36.8748 2.99826 36.8744 2.99911C36.7141 3.05338 37.0416 4.96289 36.8612 5.06722C36.8598 5.06764 36.8594 5.06764 36.8584 5.06764C36.4726 5.02473 34.6543 5.18543 34.6201 5.06764C34.2639 4.93975 34.719 7.11093 34.6042 7.13659C34.5987 7.13743 32.7162 7.18791 32.3481 7.13659C32.0967 7.19254 32.135 5.2153 32.3445 5.07058C32.3472 5.06848 32.3477 5.06722 32.3445 5.06637C32.2183 5.02599 30.5084 5.09204 30.1194 5.06806C30.1162 5.06806 30.1162 5.06595 30.1194 5.06427C30.2843 4.96625 29.9991 3.05506 30.093 2.99826C30.4018 2.90151 28.0701 2.99364 27.9462 2.99826L27.9448 2.99911C27.8046 3.08619 28.3142 5.06259 27.9303 5.06764C27.9881 5.1787 26.0427 4.99023 25.6906 5.06764C25.4068 4.9957 25.5749 7.07601 25.6906 7.13659C25.9293 7.22746 23.5024 7.23882 23.435 7.13743C23.4345 7.13743 23.435 7.13743 23.4345 7.13659C23.435 7.12733 23.5138 5.05922 23.4186 5.06764C23.6536 4.96036 21.3948 5.02094 21.1989 5.0588C21.193 5.05922 21.1926 5.05796 21.1953 5.05375C21.336 4.85477 21.3374 3.04286 21.1639 2.99826H21.163C21.1302 3.02561 19.1829 2.90992 19.0221 2.99364C19.0199 2.9949 19.0235 2.99826 19.0271 2.99826C19.3956 3.01215 18.7921 4.94353 18.9966 5.06217C18.9994 5.06427 19.0012 5.06764 18.9975 5.06764C18.5639 5.05922 16.4882 4.95615 16.7606 5.06764C16.9132 5.1156 16.8622 7.09662 16.761 7.13659L16.7597 7.13743C16.6576 7.15468 14.5054 7.24513 14.505 7.13659C14.32 7.1673 14.4285 5.21866 14.5032 5.07058C14.5045 5.06806 14.5032 5.06722 14.5009 5.06637C14.0955 4.95742 12.5741 5.1076 12.2562 5.06806C12.2557 5.06806 12.2562 5.06848 12.2566 5.06806C12.3045 5.00916 12.253 3.05842 12.2521 2.99953C12.2521 2.99784 12.2503 2.99826 12.248 2.99826H10.8961C10.8933 2.99826 10.8915 2.99911 10.8915 2.99742C10.8874 2.93222 10.7298 0.787541 10.8911 0.659231C10.8915 0.658389 10.8929 0.657969 10.8933 0.657969C11.9997 0.574672 12.5441 0.714762 13.8304 0.673534C14.9345 0.7501 21.5479 0.755148 22.7604 0.673534C23.7684 0.742527 25.5034 0.583086 26.5241 0.673534C27.4078 0.62852 32.8943 0.692465 33.572 0.671431C34.12 0.734114 43.7601 0.772817 44.3837 0.673534C44.954 0.592762 48.8006 0.61632 49.5071 0.673534C50.1849 0.771976 70.3729 0.663438 71.1313 0.673534C72.0788 0.66512 75.2905 0.643665 76.2971 0.673534C76.9157 0.663438 77.8554 0.714341 78.1792 0.671431C79.0971 0.555741 85.0481 0.822038 85.74 0.718969C87.1202 0.552376 87.5643 0.597389 88.9909 0.673534C89.9037 0.765665 91.0821 0.794272 91.8865 0.658389C92.1557 0.6647 91.5717 2.94358 91.8746 2.99742C91.8778 2.99826 91.881 3.00079 91.8778 3.00163C91.7284 3.04496 90.6061 3.01509 90.3965 2.99826Z" fill="#F8C29B"/>
</svg>
