<svg width="133" height="76" viewBox="0 0 133 76" fill="none" xmlns="http://www.w3.org/2000/svg">
<path d="M6.13316 49.1145L5.2528 48.2205L6.13316 47.3261L7.01302 48.2205L6.13316 49.1145ZM5.09687 47.284L4.21652 46.3896L5.09687 45.4956L5.97674 46.3896L5.09687 47.284ZM4.06059 49.1145L3.18073 48.2205L4.06059 47.3261L4.94045 48.2205L4.06059 49.1145ZM9.28404 49.4405C9.40674 49.6678 9.5177 49.9258 9.61741 50.2142C9.71664 50.5031 9.80414 50.7963 9.87991 51.094C9.95567 51.3921 10.0148 51.6927 10.0573 51.9953C10.0999 52.2983 10.1214 52.5769 10.1214 52.833C10.1214 53.618 9.72837 54.1977 8.94334 54.5711C8.15782 54.945 6.93676 55.1322 5.28116 55.1322C4.43893 55.1322 3.71305 55.0819 3.10252 54.9827C2.49199 54.8834 1.98851 54.7275 1.59111 54.5144C1.1937 54.3013 0.900417 54.032 0.711246 53.7055C0.521587 53.3795 0.427246 52.9885 0.427246 52.5344C0.427246 52.1468 0.498124 51.7235 0.63988 51.2646C0.782124 50.8056 0.975694 50.3633 1.22206 49.9376L1.97434 50.3061C1.82281 50.638 1.70696 50.9542 1.6263 51.2572C1.54565 51.5608 1.50606 51.8345 1.50606 52.0803C1.50606 52.3927 1.57449 52.6605 1.71185 52.8824C1.84871 53.1048 2.06868 53.2847 2.37174 53.4215C2.67432 53.5589 3.06439 53.661 3.54245 53.727C4.02051 53.793 4.60024 53.8262 5.28116 53.8262C5.81103 53.8262 6.31011 53.8028 6.77839 53.7553C7.24716 53.7079 7.65385 53.6415 7.99944 53.5564C8.34454 53.4714 8.61877 53.3746 8.8226 53.2656C9.02595 53.1571 9.12762 53.0408 9.12762 52.9176C9.12762 52.7382 9.10612 52.53 9.06359 52.2934C9.02155 52.0569 8.95947 51.8086 8.87931 51.5481C8.79865 51.288 8.70676 51.0261 8.60264 50.7602C8.49852 50.4962 8.38463 50.245 8.26194 50.0084L9.28404 49.4405Z" fill="white"/>
<path d="M11.8104 55.0325L11.739 46.0777L12.8608 45.8788L12.79 55.0325H11.8104Z" fill="white"/>
<path d="M19.5314 55.0326C18.8876 55.0326 18.3626 54.8953 17.9559 54.6211C17.7472 55.3019 17.3215 55.9241 16.6782 56.4872C16.0349 57.0503 15.2166 57.5112 14.2229 57.8709L13.5698 56.7502C14.611 56.3523 15.4478 55.8933 16.0823 55.3733C16.7163 54.8528 17.0849 54.3087 17.189 53.7408C17.0565 53.4949 16.9216 53.1924 16.7847 52.8331C16.6479 52.4734 16.489 52.0237 16.3091 51.4846L17.3738 50.9875C17.4872 51.338 17.603 51.688 17.7213 52.0384C17.8396 52.3879 17.932 52.6391 17.9985 52.7906C18.0737 52.9798 18.1544 53.1357 18.2395 53.2584C18.3245 53.3815 18.4242 53.4808 18.5376 53.5565C18.651 53.6328 18.7884 53.6846 18.9492 53.7124C19.11 53.7408 19.3041 53.755 19.5314 53.755L19.7582 53.8972V54.8909L19.5314 55.0326Z" fill="white"/>
<path d="M19.3042 54.8908V53.8971L19.5315 53.7554H20.6665L20.8938 53.8971V54.8908L20.6665 55.0325H19.5315L19.3042 54.8908Z" fill="white"/>
<path d="M20.4395 54.8908V53.8971L20.6668 53.7554H21.8023L22.0291 53.8971V54.8908L21.8023 55.0325H20.6668L20.4395 54.8908Z" fill="white"/>
<path d="M21.5747 54.8908V53.8971L21.8015 53.7554H22.937L23.1643 53.8971V54.8908L22.937 55.0325H21.8015L21.5747 54.8908Z" fill="white"/>
<path d="M22.7095 54.8908V53.8971L22.9368 53.7554H24.0723L24.2991 53.8971V54.8908L24.0723 55.0325H22.9368L22.7095 54.8908Z" fill="white"/>
<path d="M23.8452 54.8908V53.8971L24.072 53.7554H25.2075L25.4348 53.8971V54.8908L25.2075 55.0325H24.072L23.8452 54.8908Z" fill="white"/>
<path d="M24.981 54.8908V53.8971L25.2078 53.7554H26.3433L26.5706 53.8971V54.8908L26.3433 55.0325H25.2078L24.981 54.8908Z" fill="white"/>
<path d="M26.1162 54.8908V53.8971L26.3435 53.7554H27.479L27.7058 53.8971V54.8908L27.479 55.0325H26.3435L26.1162 54.8908Z" fill="white"/>
<path d="M27.2515 54.8908V53.8971L27.4783 53.7554H28.6138L28.8411 53.8971V54.8908L28.6138 55.0325H27.4783L27.2515 54.8908Z" fill="white"/>
<path d="M28.3862 54.8908V53.8971L28.6135 53.7554H29.749L29.9758 53.8971V54.8908L29.749 55.0325H28.6135L28.3862 54.8908Z" fill="white"/>
<path d="M29.5215 54.8908V53.8971L29.7488 53.7554H30.8843L31.1116 53.8971V54.8908L30.8843 55.0325H29.7488L29.5215 54.8908Z" fill="white"/>
<path d="M30.6565 54.8908V53.8971L30.8833 53.7554H32.0193L32.2461 53.8971V54.8908L32.0193 55.0325H30.8833L30.6565 54.8908Z" fill="white"/>
<path d="M31.7917 54.8908V53.8971L32.019 53.7554H33.1546L33.3819 53.8971V54.8908L33.1546 55.0325H32.019L31.7917 54.8908Z" fill="white"/>
<path d="M32.9277 54.8908V53.8971L33.155 53.7554H34.2901L34.5174 53.8971V54.8908L34.2901 55.0325H33.155L32.9277 54.8908Z" fill="white"/>
<path d="M34.0623 54.8908V53.8971L34.2896 53.7554H35.4251L35.6524 53.8971V54.8908L35.4251 55.0325H34.2896L34.0623 54.8908Z" fill="white"/>
<path d="M35.1982 54.8908V53.8971L35.4255 53.7554H36.5611L36.7883 53.8971V54.8908L36.5611 55.0325H35.4255L35.1982 54.8908Z" fill="white"/>
<path d="M36.3333 54.8908V53.8971L36.5601 53.7554H37.6956L37.9229 53.8971V54.8908L37.6956 55.0325H36.5601L36.3333 54.8908Z" fill="white"/>
<path d="M37.4685 54.8908V53.8971L37.6958 53.7554H38.8313L39.0581 53.8971V54.8908L38.8313 55.0325H37.6958L37.4685 54.8908Z" fill="white"/>
<path d="M38.6038 54.8908V53.8971L38.8306 53.7554H39.9661L40.1934 53.8971V54.8908L39.9661 55.0325H38.8306L38.6038 54.8908Z" fill="white"/>
<path d="M39.739 54.8908V53.8971L39.9663 53.7554H41.1018L41.3286 53.8971V54.8908L41.1018 55.0325H39.9663L39.739 54.8908Z" fill="white"/>
<path d="M40.875 54.8908V53.8971L41.1018 53.7554H42.2373L42.4646 53.8971V54.8908L42.2373 55.0325H41.1018L40.875 54.8908Z" fill="white"/>
<path d="M42.0095 54.8908V53.8971L42.2368 53.7554H43.3723L43.5991 53.8971V54.8908L43.3723 55.0325H42.2368L42.0095 54.8908Z" fill="white"/>
<path d="M43.1448 54.8908V53.8971L43.3721 53.7554H44.5076L44.7344 53.8971V54.8908L44.5076 55.0325H43.3721L43.1448 54.8908Z" fill="white"/>
<path d="M44.28 54.8908V53.8971L44.5073 53.7554H45.6428L45.8701 53.8971V54.8908L45.6428 55.0325H44.5073L44.28 54.8908Z" fill="white"/>
<path d="M45.4153 54.8908V53.8971L45.6426 53.7554H46.7781L47.0049 53.8971V54.8908L46.7781 55.0325H45.6426L45.4153 54.8908Z" fill="white"/>
<path d="M46.5505 54.8908V53.8971L46.7778 53.7554H47.9133L48.1406 53.8971V54.8908L47.9133 55.0325H46.7778L46.5505 54.8908Z" fill="white"/>
<path d="M47.6863 54.8908V53.8971L47.9136 53.7554H49.0486L49.2759 53.8971V54.8908L49.0486 55.0325H47.9136L47.6863 54.8908Z" fill="white"/>
<path d="M48.8215 54.8908V53.8971L49.0488 53.7554H50.1843L50.4116 53.8971V54.8908L50.1843 55.0325H49.0488L48.8215 54.8908Z" fill="white"/>
<path d="M49.9568 54.8908V53.8971L50.1836 53.7554H51.3191L51.5464 53.8971V54.8908L51.3191 55.0325H50.1836L49.9568 54.8908Z" fill="white"/>
<path d="M55.1375 49.9093L54.2571 49.0153L55.1375 48.1208L56.0173 49.0153L55.1375 49.9093ZM53.0654 49.9093L52.185 49.0153L53.0654 48.1208L53.9452 49.0153L53.0654 49.9093ZM56.0031 55.0326C54.896 55.0326 54.1579 54.7158 53.7888 54.0814C53.5996 54.3849 53.2897 54.6186 52.8591 54.7838C52.4289 54.95 51.9152 55.0326 51.3193 55.0326L51.092 54.8908V53.8971L51.3193 53.7554C51.9343 53.7554 52.3908 53.684 52.689 53.5428C52.9872 53.4001 53.1734 53.164 53.2497 52.8331C53.2682 52.7285 53.2922 52.5985 53.3205 52.4421C53.3489 52.2866 53.3772 52.1278 53.4056 51.967C53.4339 51.8062 53.4574 51.6454 53.477 51.4846C53.4955 51.3238 53.5146 51.1815 53.5337 51.0589L54.4986 51.1727C54.4512 51.5696 54.4086 51.9338 54.371 52.2651C54.3329 52.5965 54.3138 52.7999 54.3138 52.8751C54.3138 53.4621 54.8769 53.7554 56.0031 53.7554L56.2304 53.8971V54.8908L56.0031 55.0326Z" fill="white"/>
<path d="M55.7754 54.8907V53.8971L56.0022 53.7553C56.2011 53.7553 56.4001 53.7436 56.5986 53.7201C56.7975 53.6962 56.9744 53.6561 57.1309 53.5989C57.2868 53.5422 57.4144 53.467 57.5141 53.3721C57.6133 53.2773 57.6632 53.1639 57.6632 53.031L57.6202 46.0777L58.742 45.8788L58.6848 52.9176C58.6848 53.3154 58.6071 53.6488 58.4507 53.9181C58.2947 54.1879 58.0909 54.4059 57.8406 54.5711C57.5899 54.7373 57.3059 54.8546 56.9891 54.9264C56.6719 54.9973 56.3429 55.0325 56.0022 55.0325L55.7754 54.8907Z" fill="white"/>
<path d="M60.6016 55.0325L60.5303 46.0777L61.6516 45.8788L61.5807 55.0325H60.6016Z" fill="white"/>
<path d="M69.3302 46.8715L68.4503 45.9781L69.3302 45.0841L70.21 45.9781L69.3302 46.8715ZM68.1238 52.5344C68.5779 52.5344 68.9753 52.4685 69.316 52.336L69.2872 50.051C68.9372 50.0886 68.6014 50.1527 68.2797 50.2431C67.9576 50.333 67.6716 50.4464 67.4209 50.5833C67.1701 50.7206 66.9717 50.8765 66.825 51.0515C66.6784 51.227 66.6051 51.4181 66.6051 51.6263C66.6051 51.7969 66.6451 51.9386 66.7258 52.052C66.806 52.1654 66.9174 52.2578 67.0592 52.3287C67.2009 52.3995 67.3642 52.4518 67.5485 52.4851C67.7332 52.5183 67.9248 52.5344 68.1238 52.5344ZM67.2576 46.8715L66.3778 45.9781L67.2576 45.0841L68.138 45.9781L67.2576 46.8715ZM71.6432 55.0326C70.2809 55.0326 69.5194 54.4983 69.3585 53.4289C68.9611 53.6562 68.4924 53.7696 67.9532 53.7696C67.6316 53.7696 67.3309 53.727 67.0523 53.6415C66.7727 53.5565 66.5293 53.4338 66.3211 53.273C66.1128 53.1117 65.9471 52.9108 65.8244 52.6693C65.7012 52.4284 65.6396 52.1566 65.6396 51.8531C65.6396 51.1248 65.9593 50.5051 66.5982 49.9943C67.2366 49.483 68.1282 49.1096 69.2735 48.8731V48.007L70.3948 47.809L70.3381 52.62C70.3283 53.0271 70.4276 53.3175 70.6358 53.4929C70.844 53.6679 71.1799 53.7554 71.6432 53.7554L71.8705 53.8971V54.8908L71.6432 55.0326Z" fill="white"/>
<path d="M71.4158 54.8908V53.8971L71.6431 53.7554H72.7786L73.0054 53.8971V54.8908L72.7786 55.0325H71.6431L71.4158 54.8908Z" fill="white"/>
<path d="M72.5515 54.8908V53.8971L72.7788 53.7554H73.9143L74.1411 53.8971V54.8908L73.9143 55.0325H72.7788L72.5515 54.8908Z" fill="white"/>
<path d="M73.6868 54.8908V53.8971L73.9136 53.7554H75.0491L75.2764 53.8971V54.8908L75.0491 55.0325H73.9136L73.6868 54.8908Z" fill="white"/>
<path d="M74.8215 54.8908V53.8971L75.0488 53.7554H76.1843L76.4112 53.8971V54.8908L76.1843 55.0325H75.0488L74.8215 54.8908Z" fill="white"/>
<path d="M75.9573 54.8908V53.8971L76.1841 53.7554H77.3196L77.5469 53.8971V54.8908L77.3196 55.0325H76.1841L75.9573 54.8908Z" fill="white"/>
<path d="M77.0933 54.8908V53.8971L77.3201 53.7554H78.4556L78.6829 53.8971V54.8908L78.4556 55.0325H77.3201L77.0933 54.8908Z" fill="white"/>
<path d="M78.2283 54.8908V53.8971L78.4551 53.7554H79.5906L79.8179 53.8971V54.8908L79.5906 55.0325H78.4551L78.2283 54.8908Z" fill="white"/>
<path d="M79.3635 54.8908V53.8971L79.5903 53.7554H80.7258L80.9531 53.8971V54.8908L80.7258 55.0325H79.5903L79.3635 54.8908Z" fill="white"/>
<path d="M80.4988 54.8908V53.8971L80.7256 53.7554H81.8611L82.0884 53.8971V54.8908L81.8611 55.0325H80.7256L80.4988 54.8908Z" fill="white"/>
<path d="M81.634 54.8908V53.8971L81.8613 53.7554H82.9968L83.2241 53.8971V54.8908L82.9968 55.0325H81.8613L81.634 54.8908Z" fill="white"/>
<path d="M82.7688 54.8908V53.8971L82.9961 53.7554H84.1316L84.3589 53.8971V54.8908L84.1316 55.0325H82.9961L82.7688 54.8908Z" fill="white"/>
<path d="M83.9041 54.8908V53.8971L84.1314 53.7554H85.2669L85.4942 53.8971V54.8908L85.2669 55.0325H84.1314L83.9041 54.8908Z" fill="white"/>
<path d="M85.0398 54.8908V53.8971L85.2671 53.7554H86.4026L86.6299 53.8971V54.8908L86.4026 55.0325H85.2671L85.0398 54.8908Z" fill="white"/>
<path d="M86.1746 54.8908V53.8971L86.4019 53.7554H87.5374L87.7642 53.8971V54.8908L87.5374 55.0325H86.4019L86.1746 54.8908Z" fill="white"/>
<path d="M87.3103 54.8908V53.8971L87.5376 53.7554H88.6731L88.8999 53.8971V54.8908L88.6731 55.0325H87.5376L87.3103 54.8908Z" fill="white"/>
<path d="M88.4456 54.8908V53.8971L88.6729 53.7554H89.8084L90.0352 53.8971V54.8908L89.8084 55.0325H88.6729L88.4456 54.8908Z" fill="white"/>
<path d="M89.5813 54.8908V53.8971L89.8086 53.7554H90.9441L91.1709 53.8971V54.8908L90.9441 55.0325H89.8086L89.5813 54.8908Z" fill="white"/>
<path d="M90.7161 54.8908V53.8971L90.9434 53.7554H92.0789L92.3057 53.8971V54.8908L92.0789 55.0325H90.9434L90.7161 54.8908Z" fill="white"/>
<path d="M91.8513 54.8908V53.8971L92.0786 53.7554H93.2141L93.4409 53.8971V54.8908L93.2141 55.0325H92.0786L91.8513 54.8908Z" fill="white"/>
<path d="M92.9871 54.8908V53.8971L93.2144 53.7554H94.3499L94.5767 53.8971V54.8908L94.3499 55.0325H93.2144L92.9871 54.8908Z" fill="white"/>
<path d="M94.1216 54.8908V53.8971L94.3489 53.7554H95.4844L95.7112 53.8971V54.8908L95.4844 55.0325H94.3489L94.1216 54.8908Z" fill="white"/>
<path d="M95.2576 54.8908V53.8971L95.4849 53.7554H96.6204L96.8472 53.8971V54.8908L96.6204 55.0325H95.4849L95.2576 54.8908Z" fill="white"/>
<path d="M96.3933 54.8908V53.8971L96.6206 53.7554H97.7561L97.9829 53.8971V54.8908L97.7561 55.0325H96.6206L96.3933 54.8908Z" fill="white"/>
<path d="M97.5281 54.8908V53.8971L97.7549 53.7554H98.8909L99.1177 53.8971V54.8908L98.8909 55.0325H97.7549L97.5281 54.8908Z" fill="white"/>
<path d="M98.6631 54.8908V53.8971L98.8899 53.7554H100.026L100.253 53.8971V54.8908L100.026 55.0325H98.8899L98.6631 54.8908Z" fill="white"/>
<path d="M99.7983 54.8908V53.8971L100.026 53.7554H101.161L101.388 53.8971V54.8908L101.161 55.0325H100.026L99.7983 54.8908Z" fill="white"/>
<path d="M100.934 54.8908V53.8971L101.161 53.7554H102.296L102.523 53.8971V54.8908L102.296 55.0325H101.161L100.934 54.8908Z" fill="white"/>
<path d="M102.069 54.8908V53.8971L102.296 53.7554H103.431L103.658 53.8971V54.8908L103.431 55.0325H102.296L102.069 54.8908Z" fill="white"/>
<path d="M103.205 54.8908V53.8971L103.432 53.7554H104.567L104.794 53.8971V54.8908L104.567 55.0325H103.432L103.205 54.8908Z" fill="white"/>
<path d="M104.341 54.8908V53.8971L104.567 53.7554H105.703L105.93 53.8971V54.8908L105.703 55.0325H104.567L104.341 54.8908Z" fill="white"/>
<path d="M105.475 54.8908V53.8971L105.702 53.7554H106.837L107.065 53.8971V54.8908L106.837 55.0325H105.702L105.475 54.8908Z" fill="white"/>
<path d="M106.61 54.8908V53.8971L106.837 53.7554H107.973L108.2 53.8971V54.8908L107.973 55.0325H106.837L106.61 54.8908Z" fill="white"/>
<path d="M107.746 54.8908V53.8971L107.972 53.7554H109.108L109.335 53.8971V54.8908L109.108 55.0325H107.972L107.746 54.8908Z" fill="white"/>
<path d="M108.881 54.8908V53.8971L109.108 53.7554H110.243L110.47 53.8971V54.8908L110.243 55.0325H109.108L108.881 54.8908Z" fill="white"/>
<path d="M110.016 54.8908V53.8971L110.243 53.7554H111.378L111.606 53.8971V54.8908L111.378 55.0325H110.243L110.016 54.8908Z" fill="white"/>
<path d="M111.151 54.8908V53.8971L111.379 53.7554H112.514L112.741 53.8971V54.8908L112.514 55.0325H111.379L111.151 54.8908Z" fill="white"/>
<path d="M112.287 54.8908V53.8971L112.514 53.7554H113.649L113.877 53.8971V54.8908L113.649 55.0325H112.514L112.287 54.8908Z" fill="white"/>
<path d="M113.422 54.8908V53.8971L113.649 53.7554H114.784L115.011 53.8971V54.8908L114.784 55.0325H113.649L113.422 54.8908Z" fill="white"/>
<path d="M114.558 54.8908V53.8971L114.784 53.7554H115.92L116.147 53.8971V54.8908L115.92 55.0325H114.784L114.558 54.8908Z" fill="white"/>
<path d="M119.865 49.6257C119.117 49.6819 118.389 49.8237 117.679 50.051L117.48 49.5402C117.613 49.4928 117.736 49.4503 117.85 49.4121C117.963 49.375 118.072 49.3369 118.176 49.2988C117.864 49.1194 117.708 48.8589 117.708 48.5187C117.708 48.2156 117.817 47.9576 118.034 47.7449C118.252 47.5323 118.512 47.4258 118.815 47.4258C119.136 47.4258 119.401 47.5441 119.609 47.7801L119.325 48.1922C119.184 48.1071 119.032 48.0641 118.871 48.0641C118.701 48.0641 118.561 48.1071 118.453 48.1922C118.344 48.2767 118.29 48.3862 118.29 48.5187C118.29 48.6604 118.363 48.7787 118.51 48.8735C118.656 48.9679 118.852 49.029 119.098 49.0578C119.26 49.029 119.411 49.0055 119.553 48.9869C119.695 48.9679 119.832 48.9537 119.965 48.9444L119.865 49.6257Z" fill="white"/>
<path d="M120.603 55.0325C119.496 55.0325 118.759 54.7158 118.39 54.0814C118.2 54.3849 117.89 54.6186 117.46 54.7843C117.029 54.9499 116.516 55.0325 115.92 55.0325L115.692 54.8908V53.8971L115.92 53.7549C116.535 53.7549 116.991 53.6845 117.289 53.5428C117.587 53.4001 117.774 53.164 117.85 52.8331C117.869 52.7285 117.893 52.5985 117.921 52.4421C117.949 52.2866 117.978 52.1278 118.006 51.967C118.035 51.8062 118.058 51.6454 118.077 51.4846C118.096 51.3238 118.115 51.1815 118.134 51.0588L119.099 51.1727C119.052 51.5696 119.009 51.9337 118.971 52.2651C118.933 52.5965 118.915 52.7998 118.915 52.8751C118.915 53.4621 119.477 53.7549 120.603 53.7549L120.831 53.8971V54.8908L120.603 55.0325Z" fill="white"/>
<path d="M124.124 57.9564L123.244 57.0619L124.124 56.168L125.004 57.0619L124.124 57.9564ZM122.052 57.9564L121.171 57.0619L122.052 56.168L122.931 57.0619L122.052 57.9564ZM125.288 55.0325C124.18 55.0325 123.443 54.7158 123.074 54.0814C122.884 54.3849 122.574 54.6186 122.144 54.7838C121.713 54.9499 121.2 55.0325 120.604 55.0325L120.377 54.8908V53.8971L120.604 53.7554C121.219 53.7554 121.675 53.684 121.973 53.5428C122.271 53.4001 122.458 53.164 122.534 52.8331C122.553 52.7285 122.577 52.5985 122.605 52.4421C122.633 52.2866 122.662 52.1278 122.691 51.967C122.719 51.8062 122.742 51.6454 122.761 51.4846C122.78 51.3238 122.799 51.1815 122.818 51.0588L123.783 51.1727C123.736 51.5696 123.693 51.9337 123.655 52.2651C123.617 52.5965 123.599 52.7998 123.599 52.8751C123.599 53.4621 124.161 53.7554 125.288 53.7554L125.515 53.8971V54.8908L125.288 55.0325Z" fill="white"/>
<path d="M126.876 52.0944C126.876 52.3691 126.975 52.6174 127.174 52.8398C127.373 53.0622 127.647 53.2494 127.997 53.3999C128.764 53.1355 129.147 52.7 129.147 52.0944C129.147 51.7733 129.038 51.5006 128.82 51.2787C128.603 51.0563 128.333 50.9453 128.012 50.9453C127.69 50.9453 127.42 51.0538 127.203 51.2713C126.985 51.4888 126.876 51.7635 126.876 52.0944ZM130.041 52.0944C130.041 52.7572 129.809 53.3056 129.345 53.7406C129.45 53.7504 129.554 53.7577 129.658 53.7621C129.762 53.7675 129.871 53.7694 129.985 53.7694C130.458 53.7694 130.845 53.7035 131.149 53.5705C131.451 53.4385 131.603 53.2631 131.603 53.0456C131.603 52.5915 131.519 52.1536 131.354 51.7327C131.188 51.3119 130.955 50.9165 130.652 50.5475C130.349 50.1789 129.982 49.85 129.552 49.5616C129.121 49.2727 128.646 49.0386 128.125 48.8588L128.608 47.7664C129.214 47.9834 129.76 48.2678 130.247 48.6173C130.734 48.9678 131.151 49.3627 131.496 49.8026C131.841 50.243 132.106 50.7205 132.291 51.2357C132.475 51.7518 132.568 52.2836 132.568 52.833C132.568 53.5329 132.345 54.0744 131.901 54.4576C131.456 54.8408 130.831 55.0324 130.027 55.0324C129.705 55.0324 129.36 54.9875 128.991 54.8975C128.622 54.8081 128.272 54.6874 127.941 54.5353C127.515 54.6874 127.066 54.8081 126.592 54.8975C126.119 54.9875 125.684 55.0324 125.286 55.0324L125.059 54.8907V53.897L125.286 53.7553C125.532 53.7553 125.769 53.7504 125.996 53.7406C126.223 53.7318 126.44 53.7171 126.649 53.6986C126.204 53.2538 125.982 52.7196 125.982 52.0944C125.982 51.7733 126.034 51.4752 126.138 51.2005C126.242 50.9263 126.386 50.6853 126.57 50.4766C126.756 50.2689 126.97 50.1056 127.217 49.9868C127.463 49.8691 127.728 49.8099 128.012 49.8099C128.296 49.8099 128.56 49.8691 128.807 49.9868C129.052 50.1056 129.268 50.2689 129.452 50.4766C129.637 50.6853 129.781 50.9287 129.885 51.2078C129.989 51.4869 130.041 51.7821 130.041 52.0944Z" fill="white"/>
<path d="M0.881104 62.5973H2.24391V66.5568H7.42435V62.5973H8.78667V72.0633H7.42435V67.7773H2.24391V72.0633H0.881104V62.5973Z" fill="white"/>
<path d="M15.614 68.1887C15.5759 67.6775 15.396 67.2425 15.0749 66.8827C14.7528 66.5235 14.2987 66.3441 13.7121 66.3441C13.409 66.3441 13.1372 66.3959 12.8958 66.5C12.6548 66.6041 12.449 66.741 12.2784 66.9116C12.1083 67.0817 11.9758 67.2781 11.881 67.5005C11.7866 67.7229 11.7343 67.9522 11.7251 68.1887H15.614ZM16.7637 71.0984C16.688 71.1834 16.5741 71.2924 16.423 71.4244C16.2715 71.5573 16.0755 71.6849 15.834 71.8076C15.593 71.9308 15.309 72.0373 14.9825 72.1272C14.656 72.2172 14.2845 72.2621 13.868 72.2621C13.3572 72.2621 12.8889 72.1766 12.4632 72.0065C12.0374 71.8359 11.6727 71.595 11.3702 71.2826C11.0671 70.9703 10.833 70.5964 10.6678 70.1619C10.502 69.7259 10.4194 69.244 10.4194 68.7137C10.4194 68.2312 10.4996 67.7796 10.6604 67.3583C10.8212 66.938 11.0485 66.5733 11.3418 66.2654C11.6351 65.9585 11.9827 65.7151 12.3849 65.5347C12.7872 65.3553 13.2296 65.2649 13.7121 65.2649C14.2796 65.2649 14.7669 65.3744 15.1741 65.5919C15.5808 65.8089 15.9142 66.0973 16.1747 66.4575C16.4348 66.8172 16.6264 67.2288 16.7496 67.6921C16.8722 68.1555 16.9338 68.6384 16.9338 69.1399H11.7251C11.7343 69.4326 11.7984 69.7029 11.9167 69.9483C12.035 70.1946 12.1933 70.4073 12.3918 70.5871C12.5907 70.767 12.818 70.9087 13.0732 71.0128C13.3288 71.1174 13.5987 71.1692 13.8822 71.1692C14.4404 71.1692 14.8994 71.0749 15.2592 70.8853C15.6189 70.6961 15.879 70.5114 16.0398 70.3315L16.7637 71.0984Z" fill="white"/>
<path d="M18.3535 72.0632V65.8754C18.3535 65.7899 18.3486 65.653 18.3394 65.4638H19.5599L19.6024 66.5284C19.6782 66.4145 19.7774 66.2894 19.9006 66.152C20.0233 66.0147 20.1724 65.8896 20.3479 65.7762C20.5224 65.6628 20.7262 65.5655 20.9579 65.4854C21.1901 65.4047 21.457 65.3646 21.7601 65.3646C21.9018 65.3646 22.0318 65.3744 22.1501 65.393C22.2684 65.412 22.3799 65.4404 22.484 65.478L22.2 66.6701C22.0299 66.6041 21.8119 66.5709 21.5469 66.5709C21.2722 66.5709 21.0195 66.6232 20.7873 66.7273C20.5556 66.8309 20.3547 66.9756 20.1846 67.1599C20.014 67.3441 19.8796 67.5597 19.7799 67.8055C19.6807 68.0519 19.6308 68.3119 19.6308 68.5861V72.0632H18.3535Z" fill="white"/>
<path d="M23.5763 65.4639H24.8535V72.0633H23.5763V65.4639ZM23.4912 62.8524H24.9249V64.286H23.4912V62.8524Z" fill="white"/>
<path d="M27.2381 66.5284H26.0459V65.4638H27.2381V63.3064H28.5154V65.4638H30.4457V66.5284H28.5154V69.7782C28.5154 70.308 28.5985 70.6722 28.7637 70.8711C28.9294 71.07 29.1635 71.1693 29.4666 71.1693C29.7125 71.1693 29.9158 71.1311 30.0766 71.0559C30.2375 70.9796 30.3983 70.8662 30.5591 70.7152L31.1413 71.4953C30.8666 71.7602 30.5855 71.9523 30.2966 72.0706C30.0082 72.1883 29.6651 72.2475 29.2677 72.2475C28.5672 72.2475 28.0544 72.0588 27.7279 71.68C27.4014 71.3017 27.2381 70.7103 27.2381 69.9058V66.5284Z" fill="white"/>
<path d="M36.2363 68.9409C36.1987 68.9312 36.1254 68.9194 36.0164 68.9053C35.9074 68.8916 35.7822 68.8798 35.6405 68.8701C35.4982 68.8603 35.3472 68.851 35.1864 68.8417C35.0251 68.8324 34.8691 68.8275 34.7181 68.8275C34.3578 68.8275 34.0675 68.8701 33.8451 68.9551C33.6227 69.0402 33.4477 69.1467 33.3196 69.2748C33.192 69.4019 33.1045 69.5436 33.0571 69.7C33.0097 69.8559 32.9862 70.0055 32.9862 70.1472C32.9862 70.507 33.1089 70.7787 33.3553 70.9635C33.6011 71.1477 33.9418 71.2401 34.3774 71.2401C34.6228 71.2401 34.8574 71.1971 35.0798 71.1121C35.3017 71.0275 35.4982 70.9136 35.6688 70.7714C35.8389 70.6296 35.9763 70.4644 36.0804 70.2753C36.1845 70.0856 36.2363 69.8921 36.2363 69.6932V68.9409ZM36.251 71.2685C36.0046 71.5999 35.6806 71.8457 35.2788 72.0065C34.8765 72.1668 34.4624 72.2475 34.0367 72.2475C33.762 72.2475 33.4902 72.2123 33.2204 72.1414C32.9505 72.0705 32.7047 71.9523 32.4823 71.7861C32.2598 71.6214 32.08 71.4078 31.9431 71.1477C31.8057 70.8877 31.7373 70.5685 31.7373 70.1897C31.7373 69.4805 31.9856 68.9126 32.4823 68.4869C32.9794 68.0607 33.696 67.848 34.6325 67.848C34.7841 67.848 34.9449 67.8529 35.1155 67.8627C35.2856 67.8715 35.4464 67.8813 35.5979 67.8906C35.749 67.9003 35.8815 67.9101 35.9954 67.9189C36.1088 67.9287 36.1889 67.938 36.2363 67.9473V67.7063C36.2363 67.2141 36.0877 66.8622 35.7896 66.6486C35.4914 66.436 35.0866 66.3294 34.5758 66.3294C34.0743 66.3294 33.6769 66.3984 33.3836 66.5352C33.0903 66.6726 32.8445 66.8119 32.646 66.9541L32.0497 66.0885C32.1631 65.9937 32.2999 65.8993 32.4612 65.8045C32.6221 65.7102 32.8112 65.6227 33.0287 65.542C33.2463 65.4614 33.4921 65.3954 33.7669 65.3431C34.0411 65.2908 34.3578 65.2649 34.7181 65.2649C35.5696 65.2649 36.2388 65.4707 36.7261 65.8822C37.2135 66.2942 37.4574 66.8783 37.4574 67.6354V71.7299C37.4574 71.8193 37.4618 71.9308 37.4716 72.0632H36.2794L36.251 71.2685Z" fill="white"/>
<path d="M43.9435 66.6277C43.8584 66.5993 43.7142 66.5592 43.5109 66.5069C43.3071 66.4551 43.002 66.4292 42.5954 66.4292C42.2356 66.4292 41.9091 66.4884 41.6163 66.6062C41.3225 66.7244 41.0693 66.8901 40.8566 67.1032C40.6435 67.3163 40.4783 67.5695 40.36 67.8628C40.2412 68.1561 40.1821 68.4777 40.1821 68.8276C40.1821 69.1302 40.2183 69.4141 40.2891 69.6786C40.36 69.9445 40.4734 70.1757 40.6298 70.3741C40.7858 70.573 40.9818 70.7294 41.2189 70.8428C41.455 70.9567 41.7438 71.0129 42.0845 71.0129C42.3964 71.0129 42.6706 70.9655 42.9077 70.8712C43.1438 70.7768 43.3379 70.6507 43.4894 70.4948C43.6409 70.3384 43.7543 70.1639 43.8301 69.9699C43.9059 69.7763 43.9435 69.575 43.9435 69.3667V66.6277ZM40.0833 73.4118C40.3009 73.5628 40.5678 73.6929 40.885 73.8018C41.2017 73.9108 41.5874 73.9651 42.042 73.9651C42.6755 73.9651 43.1487 73.7896 43.461 73.4402C43.7734 73.0897 43.9293 72.6308 43.9293 72.0633V71.2544C43.8633 71.3111 43.7758 71.3893 43.6668 71.4885C43.5578 71.5877 43.4205 71.6825 43.2552 71.772C43.0895 71.8624 42.8935 71.9426 42.6662 72.0134C42.4394 72.0843 42.1789 72.12 41.8856 72.12C41.4031 72.12 40.9749 72.0374 40.601 71.8717C40.2275 71.706 39.9127 71.4792 39.6571 71.1903C39.4019 70.902 39.2079 70.5564 39.0754 70.1541C38.9429 69.7524 38.877 69.3149 38.877 68.8418C38.877 68.3305 38.9664 67.8599 39.1463 67.4297C39.3257 66.9991 39.5789 66.6252 39.9054 66.308C40.2319 65.9918 40.6225 65.7454 41.0766 65.5705C41.5307 65.3955 42.0371 65.3075 42.5954 65.3075C43.1345 65.3075 43.636 65.3549 44.0999 65.4497C44.5633 65.5445 44.9373 65.6482 45.2213 65.7616V72.0633C45.2213 73.0188 44.9441 73.7593 44.3908 74.2843C43.8374 74.8097 43.0587 75.0722 42.0557 75.0722C41.3841 75.0722 40.8493 74.9988 40.4519 74.8522C40.0545 74.7051 39.7329 74.5374 39.487 74.3483L40.0833 73.4118Z" fill="white"/>
<path d="M51.8345 68.1887C51.7969 67.6775 51.617 67.2425 51.2953 66.8827C50.9737 66.5235 50.5191 66.3441 49.9325 66.3441C49.63 66.3441 49.3577 66.3959 49.1162 66.5C48.8752 66.6041 48.6694 66.741 48.4993 66.9116C48.3287 67.0817 48.1963 67.2781 48.1019 67.5005C48.0071 67.7229 47.9548 67.9522 47.9455 68.1887H51.8345ZM52.9842 71.0984C52.9084 71.1834 52.795 71.2924 52.644 71.4244C52.492 71.5573 52.2959 71.6849 52.055 71.8076C51.8135 71.9308 51.5295 72.0373 51.203 72.1272C50.8764 72.2172 50.5049 72.2621 50.089 72.2621C49.5781 72.2621 49.1094 72.1766 48.6836 72.0065C48.2579 71.8359 47.8937 71.595 47.5906 71.2826C47.2881 70.9703 47.0534 70.5964 46.8882 70.1619C46.7225 69.7259 46.6399 69.244 46.6399 68.7137C46.6399 68.2312 46.7201 67.7796 46.8814 67.3583C47.0417 66.938 47.269 66.5733 47.5623 66.2654C47.8556 65.9585 48.2031 65.7151 48.6059 65.5347C49.0077 65.3553 49.4501 65.2649 49.9325 65.2649C50.5005 65.2649 50.9879 65.3744 51.3946 65.5919C51.8013 65.8089 52.1351 66.0973 52.3952 66.4575C52.6557 66.8172 52.8473 67.2288 52.97 67.6921C53.0927 68.1555 53.1548 68.6384 53.1548 69.1399H47.9455C47.9548 69.4326 48.0188 69.7029 48.1371 69.9483C48.2554 70.1946 48.4143 70.4073 48.6127 70.5871C48.8117 70.767 49.0385 70.9087 49.2941 71.0128C49.5498 71.1174 49.8191 71.1692 50.1031 71.1692C50.6614 71.1692 51.1204 71.0749 51.4796 70.8853C51.8394 70.6961 52.0994 70.5114 52.2603 70.3315L52.9842 71.0984Z" fill="white"/>
<path d="M65.3893 70.4023C65.2852 70.5729 65.1244 70.767 64.9068 70.9845C64.6888 71.202 64.4244 71.4077 64.112 71.6018C63.7997 71.7958 63.4399 71.9591 63.0332 72.091C62.6265 72.224 62.1768 72.29 61.6851 72.29C60.9846 72.29 60.3457 72.1668 59.7689 71.9214C59.1916 71.6756 58.6945 71.3325 58.2785 70.8926C57.8621 70.4522 57.538 69.9317 57.3063 69.331C57.0741 68.7303 56.9583 68.0753 56.9583 67.3656C56.9583 66.675 57.0741 66.0264 57.3063 65.4213C57.538 64.8162 57.8621 64.2859 58.2785 63.8313C58.6945 63.3772 59.1941 63.0209 59.7758 62.7599C60.3579 62.4999 61.0037 62.3699 61.7134 62.3699C62.2145 62.3699 62.6642 62.4319 63.0616 62.5541C63.459 62.6773 63.807 62.8308 64.1052 63.0155C64.4029 63.2003 64.6585 63.4012 64.8712 63.6187C65.0843 63.8362 65.2568 64.0449 65.3893 64.2428L64.4244 65.0664C64.311 64.9056 64.1761 64.738 64.0196 64.5625C63.8637 64.3875 63.6765 64.2292 63.459 64.0874C63.2415 63.9452 62.9907 63.8274 62.7072 63.7321C62.4232 63.6377 62.0967 63.5908 61.7276 63.5908C61.207 63.5908 60.7412 63.6896 60.3296 63.8885C59.9175 64.0874 59.568 64.3567 59.2791 64.6969C58.9902 65.0376 58.7703 65.4354 58.6192 65.8895C58.4677 66.3436 58.3919 66.8265 58.3919 67.3368C58.3919 67.848 58.4701 68.3285 58.6261 68.7777C58.7825 69.2268 59.0025 69.6174 59.2865 69.9483C59.57 70.2801 59.9151 70.5402 60.3223 70.7293C60.729 70.9185 61.1831 71.0128 61.6851 71.0128C62.1108 71.0128 62.4774 70.9586 62.7849 70.8496C63.0924 70.7411 63.3524 70.611 63.5655 70.4595C63.7787 70.308 63.9532 70.154 64.0905 69.9981C64.2274 69.8422 64.3437 69.7122 64.4386 69.6076L65.3893 70.4023Z" fill="white"/>
<path d="M69.662 71.1546C70.0027 71.1546 70.3102 71.0867 70.5844 70.9488C70.8591 70.812 71.0908 70.6321 71.28 70.4102C71.4691 70.1878 71.6138 69.9322 71.7131 69.6433C71.8123 69.3549 71.8621 69.0592 71.8621 68.7562C71.8621 68.4634 71.8123 68.1721 71.7131 67.8833C71.6138 67.5949 71.4667 67.3368 71.2731 67.11C71.0791 66.8827 70.8469 66.7009 70.5775 66.5636C70.3077 66.4267 70.0027 66.3578 69.662 66.3578C69.3213 66.3578 69.0138 66.4267 68.7396 66.5636C68.4649 66.7009 68.2332 66.8808 68.044 67.1027C67.8544 67.3251 67.7102 67.5812 67.6114 67.8696C67.5117 68.1579 67.4619 68.4536 67.4619 68.7562C67.4619 69.0592 67.5117 69.3525 67.6114 69.6365C67.7102 69.9205 67.8568 70.1756 68.0509 70.4024C68.2449 70.6297 68.4771 70.812 68.7465 70.9488C69.0163 71.0867 69.3213 71.1546 69.662 71.1546ZM69.662 72.2622C69.1512 72.2622 68.6829 72.1698 68.2567 71.9855C67.8309 71.8008 67.4643 71.5476 67.1568 71.2255C66.8494 70.9043 66.6079 70.5324 66.4329 70.1116C66.2579 69.6912 66.1704 69.2386 66.1704 68.7562C66.1704 68.2743 66.2579 67.8222 66.4329 67.4008C66.6079 66.9805 66.8494 66.609 67.1568 66.2869C67.4643 65.9653 67.8309 65.7121 68.2567 65.5279C68.6829 65.3436 69.1512 65.2512 69.662 65.2512C70.1635 65.2512 70.6274 65.3436 71.0532 65.5279C71.4789 65.7121 71.848 65.9653 72.1603 66.2869C72.4722 66.609 72.7161 66.9805 72.8911 67.4008C73.0661 67.8222 73.1536 68.2743 73.1536 68.7562C73.1536 69.2386 73.0661 69.6912 72.8911 70.1116C72.7161 70.5324 72.4722 70.9043 72.1603 71.2255C71.848 71.5476 71.4789 71.8008 71.0532 71.9855C70.6274 72.1698 70.1635 72.2622 69.662 72.2622Z" fill="white"/>
<path d="M74.6013 72.0633V65.8823C74.6013 65.7928 74.5964 65.6531 74.5872 65.4639H75.8077L75.8503 66.4576C75.926 66.3437 76.0252 66.2186 76.1484 66.0812C76.2711 65.9444 76.4178 65.8187 76.5884 65.7054C76.759 65.592 76.9599 65.4966 77.1916 65.4214C77.4237 65.3456 77.6906 65.3075 77.9937 65.3075C78.505 65.3075 78.9283 65.4096 79.2641 65.613C79.5999 65.8168 79.8619 66.112 80.0516 66.5001C80.316 66.1878 80.6406 65.9111 81.0238 65.6697C81.4071 65.4287 81.8827 65.3075 82.4502 65.3075C83.3017 65.3075 83.9313 65.5607 84.338 66.067C84.7447 66.5729 84.9485 67.2523 84.9485 68.1033V72.0633H83.6713V68.203C83.6713 67.5881 83.55 67.1365 83.309 66.8476C83.0676 66.5592 82.7151 66.4146 82.2513 66.4146C81.9863 66.4146 81.7429 66.4693 81.5205 66.5778C81.2981 66.6868 81.104 66.831 80.9388 67.0109C80.7731 67.1902 80.645 67.4009 80.5556 67.6424C80.4656 67.8833 80.4206 68.137 80.4206 68.4014V72.0633H79.1434V68.203C79.1434 67.5881 79.0226 67.1365 78.7817 66.8476C78.5397 66.5592 78.1926 66.4146 77.738 66.4146C77.3881 66.4146 77.0948 66.4908 76.8582 66.6418C76.6211 66.7934 76.4295 66.9894 76.2833 67.2308C76.1362 67.4718 76.0326 67.7489 75.971 68.0607C75.9094 68.3736 75.8786 68.6859 75.8786 68.9972V72.0633H74.6013Z" fill="white"/>
<path d="M86.6653 72.0633V65.8823C86.6653 65.7928 86.6604 65.6531 86.6506 65.4639H87.8717L87.9142 66.4576C87.99 66.3437 88.0892 66.2186 88.2124 66.0812C88.3346 65.9444 88.4817 65.8187 88.6518 65.7054C88.8224 65.592 89.0233 65.4966 89.2555 65.4214C89.4872 65.3456 89.7546 65.3075 90.0572 65.3075C90.5685 65.3075 90.9918 65.4096 91.3276 65.613C91.6634 65.8168 91.9259 66.112 92.1156 66.5001C92.38 66.1878 92.7041 65.9111 93.0873 65.6697C93.4706 65.4287 93.9462 65.3075 94.5142 65.3075C95.3662 65.3075 95.9948 65.5607 96.4024 66.067C96.8087 66.5729 97.012 67.2523 97.012 68.1033V72.0633H95.7347V68.203C95.7347 67.5881 95.6145 67.1365 95.3735 66.8476C95.1315 66.5592 94.7786 66.4146 94.3157 66.4146C94.0503 66.4146 93.8069 66.4693 93.5844 66.5778C93.362 66.6868 93.168 66.831 93.0028 67.0109C92.837 67.1902 92.709 67.4009 92.6195 67.6424C92.5291 67.8833 92.4846 68.137 92.4846 68.4014V72.0633H91.2073V68.203C91.2073 67.5881 91.0861 67.1365 90.8451 66.8476C90.6037 66.5592 90.2561 66.4146 89.802 66.4146C89.4515 66.4146 89.1582 66.4908 88.9217 66.6418C88.6851 66.7934 88.4939 66.9894 88.3473 67.2308C88.1997 67.4718 88.0961 67.7489 88.0345 68.0607C87.9734 68.3736 87.9426 68.6859 87.9426 68.9972V72.0633H86.6653Z" fill="white"/>
<path d="M98.7865 65.4639H100.064V72.0633H98.7865V65.4639ZM98.7009 62.8524H100.135V64.286H98.7009V62.8524Z" fill="white"/>
<path d="M102.306 70.4024C102.543 70.6394 102.827 70.8286 103.158 70.9703C103.489 71.1121 103.872 71.1834 104.307 71.1834C104.733 71.1834 105.088 71.1145 105.372 70.9777C105.656 70.8403 105.798 70.6248 105.798 70.3315C105.798 70.1805 105.767 70.0505 105.706 69.9415C105.644 69.8325 105.54 69.7357 105.393 69.6502C105.247 69.5651 105.053 69.4874 104.812 69.4165C104.57 69.3457 104.27 69.2675 103.91 69.1824C103.655 69.1252 103.401 69.0495 103.151 68.9556C102.9 68.8603 102.676 68.7352 102.477 68.5793C102.278 68.4229 102.117 68.2337 101.994 68.0113C101.871 67.7889 101.81 67.5221 101.81 67.2097C101.81 66.8881 101.883 66.6061 102.029 66.3651C102.176 66.1237 102.372 65.9208 102.618 65.7547C102.864 65.5895 103.141 65.4638 103.449 65.3788C103.756 65.2937 104.076 65.2512 104.407 65.2512C104.965 65.2512 105.445 65.324 105.847 65.4707C106.249 65.6178 106.602 65.8236 106.905 66.0885L106.21 66.9683C106.011 66.7884 105.762 66.6369 105.464 66.5142C105.166 66.391 104.819 66.3294 104.421 66.3294C104.014 66.3294 103.688 66.3959 103.442 66.5284C103.196 66.6613 103.072 66.8783 103.072 67.1814C103.072 67.4649 103.236 67.6755 103.563 67.8124C103.889 67.9497 104.317 68.0802 104.847 68.2034C105.159 68.2787 105.45 68.3662 105.719 68.4654C105.989 68.5646 106.226 68.6927 106.43 68.8486C106.633 69.005 106.794 69.1961 106.912 69.4234C107.03 69.6502 107.09 69.9248 107.09 70.2465C107.09 70.5778 107.013 70.8692 106.863 71.1194C106.711 71.3701 106.507 71.5808 106.252 71.7514C105.997 71.9215 105.703 72.049 105.372 72.1341C105.041 72.2191 104.695 72.2617 104.336 72.2617C103.087 72.2617 102.151 71.9259 101.525 71.2543L102.306 70.4024Z" fill="white"/>
<path d="M109.005 70.4024C109.242 70.6394 109.525 70.8286 109.857 70.9703C110.188 71.1121 110.571 71.1834 111.006 71.1834C111.432 71.1834 111.788 71.1145 112.071 70.9777C112.355 70.8403 112.497 70.6248 112.497 70.3315C112.497 70.1805 112.466 70.0505 112.405 69.9415C112.343 69.8325 112.239 69.7357 112.093 69.6502C111.946 69.5651 111.751 69.4874 111.511 69.4165C111.269 69.3457 110.968 69.2675 110.609 69.1824C110.354 69.1252 110.101 69.0495 109.85 68.9556C109.599 68.8603 109.374 68.7352 109.176 68.5793C108.977 68.4229 108.816 68.2337 108.693 68.0113C108.57 67.7889 108.509 67.5221 108.509 67.2097C108.509 66.8881 108.582 66.6061 108.729 66.3651C108.875 66.1237 109.071 65.9208 109.318 65.7547C109.563 65.5895 109.841 65.4638 110.148 65.3788C110.455 65.2937 110.775 65.2512 111.106 65.2512C111.664 65.2512 112.144 65.324 112.547 65.4707C112.948 65.6178 113.301 65.8236 113.604 66.0885L112.908 66.9683C112.709 66.7884 112.461 66.6369 112.163 66.5142C111.865 66.391 111.518 66.3294 111.12 66.3294C110.713 66.3294 110.387 66.3959 110.141 66.5284C109.895 66.6613 109.772 66.8783 109.772 67.1814C109.772 67.4649 109.935 67.6755 110.261 67.8124C110.588 67.9497 111.016 68.0802 111.546 68.2034C111.858 68.2787 112.149 68.3662 112.419 68.4654C112.688 68.5646 112.925 68.6927 113.128 68.8486C113.332 69.005 113.493 69.1961 113.611 69.4234C113.73 69.6502 113.789 69.9248 113.789 70.2465C113.789 70.5778 113.713 70.8692 113.561 71.1194C113.41 71.3701 113.207 71.5808 112.951 71.7514C112.696 71.9215 112.402 72.049 112.071 72.1341C111.74 72.2191 111.395 72.2617 111.035 72.2617C109.786 72.2617 108.849 71.9259 108.225 71.2543L109.005 70.4024Z" fill="white"/>
<path d="M115.336 65.4639H116.613V72.0633H115.336V65.4639ZM115.25 62.8524H116.684V64.286H115.25V62.8524Z" fill="white"/>
<path d="M121.609 71.1546C121.949 71.1546 122.257 71.0867 122.531 70.9488C122.806 70.812 123.037 70.6321 123.227 70.4102C123.416 70.1878 123.56 69.9322 123.66 69.6433C123.759 69.3549 123.809 69.0592 123.809 68.7562C123.809 68.4634 123.759 68.1721 123.66 67.8833C123.56 67.5949 123.414 67.3368 123.22 67.11C123.026 66.8827 122.794 66.7009 122.524 66.5636C122.255 66.4267 121.949 66.3578 121.609 66.3578C121.268 66.3578 120.96 66.4267 120.686 66.5636C120.412 66.7009 120.18 66.8808 119.991 67.1027C119.801 67.3251 119.657 67.5812 119.557 67.8696C119.458 68.1579 119.409 68.4536 119.409 68.7562C119.409 69.0592 119.458 69.3525 119.557 69.6365C119.657 69.9205 119.804 70.1756 119.998 70.4024C120.191 70.6297 120.423 70.812 120.693 70.9488C120.963 71.0867 121.268 71.1546 121.609 71.1546ZM121.609 72.2622C121.098 72.2622 120.629 72.1698 120.204 71.9855C119.778 71.8008 119.411 71.5476 119.103 71.2255C118.796 70.9043 118.555 70.5324 118.38 70.1116C118.204 69.6912 118.117 69.2386 118.117 68.7562C118.117 68.2743 118.204 67.8222 118.38 67.4008C118.555 66.9805 118.796 66.609 119.103 66.2869C119.411 65.9653 119.778 65.7121 120.204 65.5279C120.629 65.3436 121.098 65.2512 121.609 65.2512C122.11 65.2512 122.574 65.3436 123 65.5279C123.425 65.7121 123.795 65.9653 124.107 66.2869C124.419 66.609 124.663 66.9805 124.838 67.4008C125.013 67.8222 125.1 68.2743 125.1 68.7562C125.1 69.2386 125.013 69.6912 124.838 70.1116C124.663 70.5324 124.419 70.9043 124.107 71.2255C123.795 71.5476 123.425 71.8008 123 71.9855C122.574 72.1698 122.11 72.2622 121.609 72.2622Z" fill="white"/>
<path d="M126.548 72.0633V65.8823C126.548 65.7928 126.543 65.6531 126.534 65.4639H127.755L127.797 66.4576C127.882 66.3437 127.986 66.2186 128.109 66.0812C128.232 65.9444 128.384 65.8187 128.563 65.7054C128.743 65.592 128.953 65.4966 129.195 65.4214C129.436 65.3456 129.709 65.3075 130.011 65.3075C130.872 65.3075 131.511 65.5587 131.927 66.0597C132.344 66.5612 132.552 67.2425 132.552 68.1033V72.0633H131.274V68.203C131.274 67.5881 131.142 67.1365 130.877 66.8476C130.612 66.5592 130.238 66.4146 129.756 66.4146C129.386 66.4146 129.079 66.4908 128.833 66.6418C128.587 66.7934 128.391 66.9894 128.244 67.2308C128.097 67.4718 127.991 67.7465 127.925 68.0539C127.858 68.3613 127.825 68.6761 127.825 68.9972V72.0633H126.548Z" fill="white"/>
<path d="M116.297 32.7379C116.214 32.8466 116.295 29.9207 116.297 29.8783C116.297 29.8765 116.295 29.8777 116.294 29.8777H113.42C113.418 29.8777 113.417 29.8783 113.417 29.8765C113.419 29.8399 113.539 27.1122 113.417 27.0175L113.417 27.0169C113.328 26.9849 110.588 27.0308 110.538 27.0175L110.536 27.0169C110.42 26.9803 110.529 29.8213 110.538 29.8765C110.538 29.8777 110.538 29.8777 110.539 29.8783C110.577 29.9166 107.699 29.8783 107.658 29.8777C107.657 29.8777 107.658 29.8765 107.658 29.8777C107.656 29.9184 107.511 32.7676 107.656 32.7379C107.658 32.7379 107.659 32.7385 107.659 32.7391C107.74 32.8728 104.957 32.7391 104.917 32.7379C104.916 32.7379 104.916 32.7367 104.916 32.735V29.88C104.916 29.8783 104.917 29.8777 104.916 29.8777C104.878 29.88 102.23 30.0114 102.042 29.8823C102.041 29.8818 102.042 29.8835 102.042 29.8823C102.078 29.8195 101.824 26.9675 102.036 27.0175C102.031 27.0117 102.017 27.0175 102.017 27.0175C101.658 27.0855 99.194 27.0175 99.158 27.0175C99.1562 27.0169 99.1574 27.0169 99.1574 27.0175C99.1574 27.0599 99.1463 29.8486 99.137 29.8777C99.137 29.8783 99.1365 29.8777 99.1359 29.8777C98.923 29.9655 96.2469 29.773 96.2806 29.8777C95.8114 29.8033 96.6953 32.4757 96.2987 32.7222C96.2975 32.7222 96.2963 32.7216 96.2958 32.7205C96.2725 32.66 93.897 32.7676 93.5167 32.7379H93.5156C93.3016 32.6181 93.262 29.741 93.5161 29.8777C93.4801 29.8108 90.6749 29.8765 90.6365 29.8777C90.6359 29.8777 90.6365 29.8783 90.6365 29.8765C90.633 29.8445 90.3376 27.1791 90.6342 27.0175C90.6359 27.0175 90.6359 27.0169 90.6359 27.0157C90.5597 26.857 87.5242 27.0401 87.7563 27.0175C87.3399 27.0314 87.3393 29.7283 87.7365 29.8777C88.0557 29.8126 84.8987 29.8765 84.8574 29.8777C84.8562 29.8777 84.8574 29.8783 84.8574 29.88V32.735C84.8574 32.7367 84.858 32.7379 84.8562 32.7379C84.8161 32.7391 81.9842 32.8583 82.1156 32.7379C82.2639 32.6862 82.1173 29.9178 82.1156 29.8777C82.1156 29.8765 82.1144 29.8777 82.1133 29.8777H79.2383C79.2371 29.8777 79.2359 29.8765 79.2359 29.8754L79.2162 27.0192C79.2162 27.0175 79.215 27.0175 79.2138 27.0175H76.358C76.3574 27.0175 76.3569 27.0169 76.3569 27.0175C76.351 27.0524 75.8969 29.7771 76.3313 29.8765C76.3336 29.8765 76.3353 29.8794 76.3336 29.88C76.1376 30.0231 73.4929 29.88 73.4574 29.8777C73.4563 29.8777 73.4563 29.8765 73.4563 29.8783C73.4545 29.919 73.2783 32.7559 73.4563 32.7379C73.7616 32.76 71.1936 32.5984 70.754 32.7362C70.7522 32.7367 70.7517 32.7362 70.7517 32.7344C70.7714 32.6042 70.7162 29.9178 70.7156 29.8777C70.7156 29.8765 70.7144 29.8777 70.7133 29.8777H67.872C67.8708 29.8777 67.8691 29.8759 67.8691 29.8754V27.0192C67.8691 27.0175 67.8708 27.0175 67.8691 27.0169C67.8354 27.0163 65.1558 26.9134 64.9918 27.0163C64.9906 27.0169 64.9912 27.0175 64.9929 27.0186C65.3 27.1884 65.0005 29.8178 64.9569 29.8765L64.9557 29.8777C64.7615 29.9382 62.2017 29.8783 62.0842 29.8777C62.0819 29.8777 62.0848 29.8777 62.0865 29.8794C62.186 29.9597 62.2784 32.8472 62.0807 32.7379C61.9336 32.6478 59.7157 32.6972 59.4046 32.7303C59.4017 32.7315 59.4046 32.7292 59.4069 32.7286C59.7675 32.5478 59.354 29.9126 59.3493 29.8777C59.3488 29.8765 59.3488 29.8777 59.347 29.8777H56.4918C56.4906 29.8777 56.4895 29.8759 56.4895 29.8754V27.0192C56.4895 27.0175 56.4883 27.0175 56.4877 27.0175H53.5895C53.5895 27.0175 53.5022 29.8062 53.5883 29.8765C53.5895 29.8777 53.5889 29.8777 53.5877 29.8783C53.1958 29.98 50.7336 29.8777 50.7336 29.8777H50.7104V32.735C50.7104 32.7367 50.7104 32.7379 50.7098 32.7379C50.672 32.7362 48.2715 32.6239 47.9697 32.7379H47.968C47.761 32.6693 48.182 30.0167 47.9494 29.8783C47.9488 29.8777 47.9488 29.8777 47.9482 29.8777C47.4568 29.937 45.1331 29.7143 45.0895 29.8777C44.6359 30.0539 45.2145 27.0605 45.0703 27.0175C45.0691 27.0175 45.0691 27.0169 45.0691 27.0175C45.0563 27.0314 42.657 26.9471 42.1889 27.0175C41.8673 26.9407 41.9179 29.6864 42.1871 29.8754C42.1883 29.8765 42.1883 29.8777 42.1871 29.8783C42.0418 29.937 39.8268 29.8434 39.3383 29.8765C39.336 29.8777 39.3366 29.8783 39.3383 29.8794C39.5587 29.9765 39.1883 32.6582 39.3098 32.7379C39.7041 32.8711 36.7227 32.7443 36.5686 32.7379H36.568C36.3871 32.6193 37.039 29.8847 36.5488 29.8777C36.6227 29.723 34.139 29.9847 33.6895 29.8777C33.3272 29.9765 33.5418 27.1018 33.6895 27.0175C33.993 26.893 30.9355 26.8762 30.8116 27.014C30.811 27.0157 30.8128 27.0146 30.8139 27.0163C30.8738 27.0808 30.9075 29.8893 30.7889 29.8777C31.1064 30.0347 28.0901 29.9376 27.9378 29.88C27.9348 29.8794 27.936 29.88 27.9383 29.8818C28.1297 30.051 28.1366 32.6739 27.9104 32.7379H27.9093C27.8662 32.7001 25.3361 32.8623 25.1721 32.7408C25.1703 32.7402 25.1732 32.7379 25.1756 32.7379C25.6571 32.7443 24.8802 30.0219 25.1366 29.8823C25.1389 29.8818 25.1413 29.8783 25.1389 29.8783C24.572 29.8893 21.9429 30.0306 22.2889 29.8777C22.4837 29.8114 22.4186 27.071 22.2895 27.0175C22.2889 27.0175 22.2889 27.0175 22.2878 27.0169C22.1598 26.993 19.4099 26.868 19.4093 27.0175C19.1726 26.9756 19.3116 29.6846 19.4087 29.8759C19.4087 29.8765 19.4075 29.8777 19.407 29.8783C18.8946 30.03 16.9547 29.8736 16.5413 29.8777C16.5401 29.8777 16.5401 29.8783 16.5407 29.88C16.6 30.0027 16.5337 32.6984 16.5331 32.7379C16.5331 32.7385 16.5314 32.7379 16.5308 32.7379H14.7985C14.7979 32.7379 14.7961 32.7367 14.7961 32.7379C14.7938 32.7769 14.5862 35.7993 14.7956 35.972H14.7979C16.211 36.0877 16.9047 35.8941 18.5481 35.9511C19.9571 35.8452 28.4018 35.8377 29.9486 35.9511C31.2349 35.8557 33.4505 36.0761 34.7537 35.9511C35.8818 36.0133 42.8867 35.9249 43.7514 35.954C44.4492 35.8673 56.7581 35.8127 57.5542 35.9511C58.2823 36.0627 63.1931 36.0302 64.0951 35.9511C64.9604 35.815 90.7336 35.965 91.7018 35.9511C92.9114 35.9621 97.0116 35.9924 98.2968 35.9511C99.0864 35.9639 100.286 35.8947 100.7 35.954C101.871 36.1139 109.469 35.7458 110.352 35.8877C112.114 36.1185 112.681 36.0563 114.502 35.9511C115.668 35.8232 117.172 35.7842 118.199 35.972C118.545 35.9633 117.787 32.7734 118.191 32.7379C118.194 32.7379 118.196 32.7362 118.194 32.735C118.031 32.6722 116.567 32.7141 116.297 32.7379Z" fill="white"/>
<path d="M28.0795 15.3075C28.0882 15.1535 28.0481 12.4677 28.0795 12.4473C28.0452 12.3345 25.3697 12.2746 25.3377 12.4473C25.3598 12.6212 25.3342 15.0808 25.3377 15.3075C25.3604 15.1657 22.4638 15.4081 22.4586 15.3075C22.4173 15.2395 22.4313 18.2881 22.4586 18.1678C22.4761 18.2288 22.4301 20.8111 22.4586 21.028C22.4551 21.2245 25.3272 20.8012 25.3377 21.028C25.3034 21.0466 25.3697 24.0376 25.3377 23.8876C25.3487 23.8644 28.1074 23.9417 28.0795 23.8876C28.0882 24.0731 28.1034 20.9094 28.0795 21.028C28.0615 21.0762 30.9795 21.2414 30.9592 21.028C30.9946 20.8919 30.9836 17.9619 30.9592 18.1678C30.9603 18.1602 30.9853 15.45 30.9592 15.3075C30.9534 15.5163 28.058 15.3273 28.0795 15.3075Z" fill="white"/>
<path d="M39.4459 15.3074C39.4361 15.3237 39.4384 12.2576 39.4459 12.4472C39.4459 12.2314 36.689 12.3983 36.7041 12.4472C36.7157 12.3751 36.732 15.2027 36.7041 15.3074C36.732 15.5208 33.7832 15.155 33.825 15.3074C33.8088 15.3585 33.814 18.0606 33.825 18.1676C33.814 18.374 33.8303 20.9127 33.825 21.0278C33.7878 20.9685 36.6733 21.1924 36.7041 21.0278C36.7175 21.0424 36.682 23.8374 36.7041 23.8875C36.7012 24.1113 39.4512 23.9061 39.4459 23.8875C39.4302 23.9805 39.443 21.136 39.4459 21.0278C39.4872 21.1063 42.3233 20.9883 42.3256 21.0278C42.3605 21.0197 42.2954 18.0757 42.3256 18.1676C42.3355 17.9821 42.3291 15.1841 42.3256 15.3074C42.2901 15.3458 39.45 15.1783 39.4459 15.3074Z" fill="white"/>
<path d="M50.8124 15.3072C50.82 15.4352 50.8461 12.3482 50.8124 12.447C50.7938 12.4965 48.0741 12.4342 48.0706 12.447C48.102 12.6523 48.0549 15.2695 48.0706 15.3072C48.0898 15.138 45.2171 15.4817 45.1909 15.3072C45.1485 15.4113 45.2142 18.0593 45.1909 18.1675C45.1723 17.9756 45.174 21.169 45.1909 21.0277C45.1525 20.9823 48.0845 21.1114 48.0706 21.0277C48.0554 20.905 48.0944 23.6629 48.0706 23.8873C48.0886 23.9141 50.8293 23.8292 50.8124 23.8873C50.7955 23.8106 50.8403 21.1731 50.8124 21.0277C50.8351 21.1294 53.6787 21.2074 53.6915 21.0277C53.7264 21.1713 53.6961 18.2809 53.6915 18.1675C53.6508 17.9919 53.7037 15.459 53.6915 15.3072C53.6985 15.3509 50.8008 15.5084 50.8124 15.3072Z" fill="white"/>
<path d="M62.1789 15.3075C62.1603 15.193 62.1678 12.2508 62.1789 12.4473C62.2143 12.6113 59.4498 12.4723 59.4364 12.4473C59.426 12.3397 59.4103 15.2505 59.4364 15.3075C59.4004 15.4331 56.5452 15.1982 56.5574 15.3075C56.5841 15.0924 56.5841 18.3393 56.5574 18.1677C56.544 18.1404 56.5504 21.0588 56.5574 21.0279C56.5341 21.1489 59.4434 20.8465 59.4364 21.0279C59.4644 21.0733 59.4708 23.8341 59.4364 23.8876C59.3969 23.7027 62.1771 23.9731 62.1789 23.8876C62.2201 23.9515 62.1992 21.0349 62.1789 21.0279C62.1533 21.1716 65.0172 21.0233 65.0579 21.0279C65.0364 20.9867 65.087 18.123 65.0579 18.1677C65.0678 18.2823 65.0451 15.4953 65.0579 15.3075C65.0893 15.1517 62.1789 15.4587 62.1789 15.3075Z" fill="white"/>
<path d="M73.5442 15.3076C73.5541 15.1843 73.5308 12.3293 73.5442 12.4474C73.5145 12.3683 70.7814 12.2247 70.8024 12.4474C70.7611 12.4741 70.7838 15.1244 70.8024 15.3076C70.7855 15.3006 67.9285 15.3599 67.9227 15.3076C67.9343 15.2692 67.939 18.1818 67.9227 18.1678C67.8983 18.3387 67.9506 20.8594 67.9227 21.028C67.9024 21.1548 70.8332 21.0146 70.8024 21.028C70.8355 20.8396 70.814 24.0824 70.8024 23.8877C70.8332 23.7748 73.5413 23.8045 73.5442 23.8877C73.5395 23.7324 73.5756 21.1147 73.5442 21.028C73.5837 21.2402 76.4465 20.8972 76.4239 21.028C76.3837 21.021 76.393 18.0806 76.4239 18.1678C76.3983 18.1852 76.4006 15.2919 76.4239 15.3076C76.3861 15.4896 73.5564 15.3494 73.5442 15.3076Z" fill="white"/>
<path d="M84.9104 15.3074C84.9005 15.1592 84.9406 12.6025 84.9104 12.4472C84.9191 12.2286 82.2017 12.6065 82.1686 12.4472C82.1686 12.2797 82.1383 15.1121 82.1686 15.3074C82.1843 15.1917 79.2994 15.401 79.2895 15.3074C79.318 15.4569 79.3215 18.2147 79.2895 18.1676C79.3011 18.2572 79.2912 21.0505 79.2895 21.0279C79.2627 21.2261 82.1866 21.0767 82.1686 21.0279C82.1302 21.1732 82.1465 23.9305 82.1686 23.8875C82.1633 23.7078 84.9307 23.7642 84.9104 23.8875C84.922 23.848 84.9168 21.2366 84.9104 21.0279C84.8929 21.2512 87.7604 21.2529 87.79 21.0279C87.7994 21.1099 87.7604 18.227 87.79 18.1676C87.7621 18.088 87.7621 15.2284 87.79 15.3074C87.7714 15.2679 84.9005 15.4569 84.9104 15.3074Z" fill="white"/>
<path d="M96.2764 15.3075C96.3072 15.0993 96.2747 12.5159 96.2764 12.4473C96.316 12.3618 93.5578 12.3292 93.5346 12.4473C93.5491 12.588 93.5282 15.5087 93.5346 15.3075C93.559 15.3005 90.6305 15.293 90.6555 15.3075C90.6869 15.4674 90.6927 18.0107 90.6555 18.1677C90.6462 18.327 90.6189 20.8593 90.6555 21.0279C90.659 21.0814 93.5549 21.1146 93.5346 21.0279C93.566 21.1855 93.5003 24.0388 93.5346 23.8876C93.5078 23.6626 96.2764 23.9015 96.2764 23.8876C96.3125 23.7934 96.2526 21.1489 96.2764 21.0279C96.291 21.0233 99.1881 21.164 99.1561 21.0279C99.1619 21.0634 99.1875 18.3154 99.1561 18.1677C99.1718 18.1096 99.1747 15.2633 99.1561 15.3075C99.1218 15.5162 96.2834 15.2947 96.2764 15.3075Z" fill="white"/>
<path d="M107.642 15.3076C107.61 15.4332 107.679 12.6026 107.642 12.4473C107.631 12.6712 104.859 12.3363 104.901 12.4473C104.868 12.4491 104.934 15.1959 104.901 15.3076C104.886 15.1773 101.979 15.45 102.021 15.3076C102.003 15.2767 102.048 18.316 102.021 18.1678C102.011 18.0242 102.032 20.9733 102.021 21.028C102.037 21.2402 104.912 20.9134 104.901 21.028C104.901 21.0664 104.939 23.9394 104.901 23.8876C104.894 23.9109 107.611 23.9295 107.642 23.8876C107.607 23.9458 107.673 21.0617 107.642 21.028C107.603 21.2292 110.501 21.2164 110.522 21.028C110.483 20.9728 110.53 18.38 110.522 18.1678C110.497 18.1974 110.547 15.1128 110.522 15.3076C110.494 15.1709 107.622 15.2517 107.642 15.3076Z" fill="white"/>
<path d="M116.297 3.67758C116.215 3.57001 116.294 6.4372 116.297 6.53489C116.297 6.53838 116.294 6.5378 116.291 6.5378H113.423C113.42 6.5378 113.418 6.53722 113.418 6.54012C113.422 6.62618 113.539 9.30266 113.418 9.39743L113.417 9.3986C113.326 9.43058 110.579 9.38406 110.538 9.39743C110.537 9.3986 110.537 9.3986 110.537 9.3986C110.421 9.43 110.528 6.60932 110.538 6.53838C110.538 6.53722 110.54 6.5378 110.539 6.53605C110.53 6.49942 107.702 6.53722 107.659 6.5378C107.657 6.5378 107.658 6.53838 107.658 6.53722C107.656 6.49477 107.512 3.66711 107.655 3.67758C107.657 3.67758 107.659 3.67641 107.661 3.67467C107.717 3.545 105.009 3.67293 104.919 3.67758C104.916 3.67758 104.916 3.6799 104.916 3.68339V6.53256C104.916 6.53547 104.918 6.5378 104.914 6.5378C104.829 6.53314 102.235 6.40464 102.043 6.53314C102.075 6.61455 101.845 9.22532 102.014 9.39046C102.017 9.39395 102.015 9.39743 102.011 9.39743C101.72 9.39511 99.1961 9.39627 99.1583 9.39743C99.1566 9.3986 99.1583 9.3986 99.1577 9.39743C99.1577 9.35673 99.1467 6.56629 99.1374 6.5378C99.1374 6.53722 99.1374 6.5378 99.1368 6.5378C98.9245 6.45 96.2473 6.64246 96.281 6.5378C95.7972 6.61455 96.7514 3.77003 96.2577 3.67758C96.6566 3.75375 93.9299 3.64618 93.5176 3.67758C93.5165 3.67758 93.5165 3.67758 93.5147 3.67874C93.3141 3.79445 93.2763 6.36278 93.4769 6.53373C93.4804 6.53722 93.4787 6.5378 93.4746 6.5378H90.6415C90.6386 6.5378 90.6368 6.53722 90.6362 6.53896C90.6287 6.61281 90.3414 9.22532 90.6333 9.39627C90.6345 9.39743 90.6362 9.39918 90.6345 9.4015C90.538 9.55676 87.5257 9.37534 87.7566 9.39743C87.3466 9.38406 87.3396 6.77154 87.7182 6.5471C87.7223 6.54477 87.724 6.5407 87.7194 6.54187C87.4804 6.56396 84.9391 6.53838 84.8589 6.5378C84.8566 6.5378 84.8577 6.53547 84.8577 6.53314V3.68339C84.8577 3.6799 84.8577 3.67758 84.8554 3.67758C84.7635 3.67409 81.9851 3.5578 82.1159 3.67758C82.2624 3.72875 82.1211 6.44476 82.1165 6.53547C82.1159 6.53838 82.1136 6.5378 82.1112 6.5378H79.2415C79.2386 6.5378 79.2362 6.54012 79.2362 6.54303L79.2165 9.39278C79.2165 9.39627 79.2141 9.39743 79.2118 9.39743H76.3607C76.3583 9.39743 76.3572 9.3986 76.356 9.39627C76.3432 9.31603 75.9042 6.65351 76.3275 6.54012C76.3322 6.53838 76.3357 6.53605 76.331 6.53314C76.1135 6.39418 73.4967 6.53547 73.4578 6.5378C73.456 6.5378 73.4566 6.53838 73.4566 6.53722C73.4548 6.49186 73.2909 3.84504 73.4403 3.68572C73.4438 3.68165 73.4444 3.67874 73.4391 3.67874C73.2257 3.69153 71.1753 3.81015 70.756 3.6799C70.7531 3.67874 70.752 3.67874 70.752 3.68165C70.7712 3.81538 70.7171 6.45639 70.7159 6.53547C70.7159 6.53838 70.7136 6.5378 70.7101 6.5378H67.8752C67.8723 6.5378 67.8694 6.54012 67.8694 6.54303V9.39278C67.8694 9.39627 67.8712 9.39743 67.8677 9.3986C67.7892 9.4015 65.1724 9.50035 64.9938 9.40092C64.9909 9.3986 64.9921 9.39743 64.9956 9.39511C65.2985 9.21544 65.0014 6.60525 64.9572 6.53838C64.956 6.5378 64.956 6.5378 64.9555 6.53722C64.7583 6.47674 62.2159 6.53373 62.0863 6.5378C62.0816 6.5378 62.0828 6.5378 62.0851 6.53373C62.1537 6.41802 62.2782 3.56768 62.081 3.67758C61.9362 3.76596 59.7684 3.72002 59.4165 3.68572C59.4113 3.68572 59.4113 3.68921 59.4165 3.69211C59.7585 3.91307 59.3601 6.46686 59.3497 6.53605C59.3491 6.53896 59.3473 6.5378 59.345 6.5378H56.495C56.4921 6.5378 56.4898 6.54012 56.4898 6.54303V9.39278C56.4898 9.39627 56.4869 9.39743 56.4851 9.39743H53.5898C53.5898 9.39743 53.5031 6.64072 53.5869 6.5407C53.5892 6.5378 53.5886 6.53722 53.5857 6.53605C53.1862 6.43546 50.734 6.5378 50.734 6.5378H50.7107V3.68339C50.7107 3.6799 50.7107 3.67758 50.7078 3.67758C50.6223 3.68165 48.273 3.7898 47.9706 3.67874C47.9689 3.67758 47.9683 3.67758 47.9677 3.67874C47.763 3.75375 48.1811 6.39301 47.9508 6.53722C47.9491 6.5378 47.9485 6.5378 47.9474 6.5378C47.4548 6.47849 45.1334 6.70061 45.0898 6.5378C44.6351 6.36103 45.216 9.36197 45.0695 9.39743C45.0625 9.3986 42.6591 9.46837 42.1892 9.39743C41.8682 9.47477 41.9171 6.74189 42.1846 6.54187C42.1881 6.53896 42.1886 6.53722 42.1846 6.53605C42.0235 6.48023 39.8405 6.57152 39.3439 6.53838C39.3398 6.53838 39.3398 6.53547 39.3439 6.53314C39.5544 6.39766 39.1904 3.75608 39.3101 3.67758C39.7044 3.54384 36.7276 3.67118 36.5695 3.67758L36.5677 3.67874C36.3886 3.7991 37.0393 6.53082 36.5491 6.5378C36.623 6.6913 34.1393 6.43081 33.6898 6.5378C33.3275 6.43837 33.5421 9.3137 33.6898 9.39743C33.9945 9.52303 30.8962 9.53873 30.8102 9.3986C30.8096 9.3986 30.8102 9.3986 30.8096 9.39743C30.8102 9.38464 30.9108 6.52617 30.7892 6.5378C31.0893 6.38952 28.2056 6.47325 27.9555 6.52559C27.948 6.52617 27.9474 6.52442 27.9509 6.51861C28.1306 6.24358 28.1323 3.73921 27.9107 3.67758H27.9096C27.8677 3.71537 25.3817 3.55547 25.1765 3.67118C25.1736 3.67293 25.1782 3.67758 25.1829 3.67758C25.6533 3.69677 24.8828 6.36626 25.1439 6.53024C25.1474 6.53314 25.1497 6.5378 25.1451 6.5378C24.5915 6.52617 21.9415 6.38371 22.2893 6.5378C22.4841 6.60408 22.4189 9.3422 22.2898 9.39743L22.2881 9.3986C22.1578 9.42244 19.4102 9.54745 19.4096 9.39743C19.1735 9.43988 19.3119 6.74654 19.4073 6.54187C19.409 6.53838 19.4073 6.53722 19.4044 6.53605C18.8868 6.38545 16.9446 6.59304 16.5387 6.53838C16.5381 6.53838 16.5387 6.53896 16.5393 6.53838C16.6003 6.45697 16.5346 3.76073 16.5334 3.67932C16.5334 3.677 16.5311 3.67758 16.5282 3.67758H14.8023C14.7988 3.67758 14.7965 3.67874 14.7965 3.67641C14.7912 3.58629 14.59 0.621987 14.7959 0.444641C14.7965 0.443478 14.7982 0.442896 14.7988 0.442896C16.2113 0.327767 16.9062 0.521394 18.5484 0.46441C19.958 0.570237 28.401 0.577214 29.9489 0.46441C31.2358 0.55977 33.4508 0.339396 34.754 0.46441C35.8821 0.402194 42.8865 0.490576 43.7517 0.461503C44.4513 0.548141 56.7584 0.601636 57.5545 0.46441C58.2826 0.352769 63.1935 0.385331 64.0954 0.46441C64.9607 0.600473 90.7339 0.450455 91.7021 0.46441C92.9117 0.452781 97.0119 0.423126 98.2971 0.46441C99.0868 0.450455 100.286 0.520812 100.7 0.461503C101.872 0.301601 109.469 0.669667 110.352 0.527208C112.114 0.296949 112.681 0.359165 114.503 0.46441C115.668 0.591751 117.172 0.63129 118.199 0.443478C118.543 0.4522 117.798 3.60199 118.184 3.67641C118.188 3.67758 118.192 3.68107 118.188 3.68223C117.998 3.74212 116.565 3.70084 116.297 3.67758Z" fill="white"/>
</svg>
