<svg width="393" height="161" viewBox="0 0 393 161" fill="none" xmlns="http://www.w3.org/2000/svg">
<path d="M9.47881 94.7272C9.52104 95.4192 9.32676 107.483 9.47881 107.574C9.31268 108.081 -3.64231 108.35 -3.79718 107.574C-3.69018 106.793 -3.81407 95.7457 -3.79718 94.7272C-3.68736 95.3644 -17.7123 94.2753 -17.7377 94.7272C-17.9376 95.0327 -17.87 81.3397 -17.7377 81.8803C-17.6532 81.6061 -17.8756 70.0076 -17.7377 69.0334C-17.7546 68.1507 -3.84786 70.052 -3.79718 69.0334C-3.9633 68.9499 -3.64231 55.5154 -3.79718 56.1892C-3.74368 56.2937 9.61396 55.9463 9.47881 56.1892C9.52104 55.3561 9.59425 69.5662 9.47881 69.0334C9.39152 68.8167 23.5207 68.075 23.4221 69.0334C23.5939 69.6446 23.5404 82.8048 23.4221 81.8803C23.4277 81.9142 23.5488 94.0873 23.4221 94.7272C23.394 93.7896 9.37463 94.6384 9.47881 94.7272Z" fill="white" fill-opacity="0.025"/>
<path d="M64.5141 94.7271C64.4662 94.654 64.4775 108.425 64.5141 107.574C64.5141 108.543 51.1649 107.793 51.2381 107.574C51.2944 107.898 51.3733 95.1972 51.2381 94.7271C51.3733 93.7686 37.0949 95.4114 37.2976 94.7271C37.2188 94.4973 37.2441 82.3608 37.2976 81.8803C37.2441 80.9531 37.323 69.5505 37.2976 69.0334C37.1174 69.2998 51.0889 68.2943 51.2381 69.0334C51.3029 68.9681 51.1311 56.4138 51.2381 56.1892C51.224 55.1837 64.5395 56.1056 64.5141 56.1892C64.4381 55.7713 64.5 68.5476 64.5141 69.0334C64.714 68.6808 78.4462 69.211 78.4574 69.0334C78.6264 69.07 78.311 82.2929 78.4574 81.8803C78.5053 82.7134 78.4743 95.2808 78.4574 94.7271C78.2857 94.5547 64.5338 95.3069 64.5141 94.7271Z" fill="white" fill-opacity="0.025"/>
<path d="M119.55 94.7274C119.586 94.1529 119.713 108.018 119.55 107.574C119.46 107.352 106.291 107.632 106.274 107.574C106.426 106.652 106.198 94.8972 106.274 94.7274C106.367 95.4874 92.4571 93.9439 92.3304 94.7274C92.1249 94.2599 92.4431 82.3663 92.3304 81.8806C92.2403 82.7424 92.2488 68.3991 92.3304 69.0337C92.1446 69.2374 106.341 68.6576 106.274 69.0337C106.201 69.5848 106.389 57.1976 106.274 56.1895C106.361 56.0693 119.631 56.4506 119.55 56.1895C119.468 56.5342 119.685 68.3808 119.55 69.0337C119.66 68.5767 133.428 68.2267 133.49 69.0337C133.659 68.3886 133.513 81.3713 133.49 81.8806C133.293 82.6693 133.549 94.0458 133.49 94.7274C133.524 94.5315 119.493 93.8238 119.55 94.7274Z" fill="white" fill-opacity="0.025"/>
<path d="M174.585 94.7274C174.495 95.2419 174.531 108.457 174.585 107.574C174.757 106.838 161.371 107.462 161.306 107.574C161.255 108.057 161.179 94.9834 161.306 94.7274C161.131 94.1633 147.306 95.2184 147.365 94.7274C147.495 95.6937 147.495 81.1101 147.365 81.8806C147.301 82.0033 147.332 68.8953 147.365 69.0337C147.253 68.4905 161.34 69.8485 161.306 69.0337C161.441 68.83 161.472 56.4297 161.306 56.1895C161.114 57.02 174.576 55.8055 174.585 56.1895C174.785 55.9022 174.683 69.0024 174.585 69.0337C174.461 68.3886 188.328 69.0546 188.525 69.0337C188.421 69.2191 188.666 82.0817 188.525 81.8806C188.573 81.3661 188.463 93.8838 188.525 94.7274C188.677 95.4273 174.585 94.0484 174.585 94.7274Z" fill="white" fill-opacity="0.025"/>
<path d="M229.617 94.7273C229.665 95.281 229.553 108.104 229.617 107.574C229.474 107.929 216.24 108.574 216.341 107.574C216.142 107.454 216.251 95.55 216.341 94.7273C216.26 94.7587 202.426 94.4923 202.398 94.7273C202.454 94.8997 202.477 81.8178 202.398 81.8805C202.28 81.1127 202.533 69.791 202.398 69.0336C202.3 68.4643 216.491 69.0937 216.341 69.0336C216.502 69.8798 216.398 55.3145 216.341 56.1894C216.491 56.6961 229.603 56.5629 229.617 56.1894C229.595 56.8867 229.77 68.6445 229.617 69.0336C229.809 68.0804 243.671 69.6213 243.561 69.0336C243.366 69.065 243.412 82.2722 243.561 81.8805C243.437 81.8021 243.448 94.7979 243.561 94.7273C243.378 93.9099 229.677 94.5393 229.617 94.7273Z" fill="white" fill-opacity="0.025"/>
<path d="M284.651 94.7272C284.603 95.3932 284.797 106.877 284.651 107.574C284.693 108.556 271.535 106.858 271.375 107.574C271.375 108.326 271.228 95.6048 271.375 94.7272C271.451 95.247 257.482 94.3068 257.434 94.7272C257.572 94.056 257.589 81.6688 257.434 81.8804C257.491 81.4782 257.443 68.9317 257.434 69.0335C257.305 68.1429 271.462 68.8141 271.375 69.0335C271.189 68.3806 271.268 55.996 271.375 56.1893C271.349 56.9963 284.749 56.743 284.651 56.1893C284.707 56.3669 284.682 68.0959 284.651 69.0335C284.566 68.0306 298.45 68.0228 298.594 69.0335C298.639 68.6653 298.45 81.614 298.594 81.8804C298.459 82.2382 298.459 95.0824 298.594 94.7272C298.504 94.9048 284.603 94.056 284.651 94.7272Z" fill="white" fill-opacity="0.025"/>
<path d="M339.686 94.7273C339.835 95.6622 339.678 107.266 339.686 107.574C339.878 107.958 326.523 108.104 326.41 107.574C326.481 106.942 326.379 93.8236 326.41 94.7273C326.528 94.7586 312.349 94.7926 312.47 94.7273C312.622 94.0091 312.65 82.5856 312.47 81.8804C312.425 81.1648 312.292 69.791 312.47 69.0336C312.487 68.7933 326.509 68.6444 326.41 69.0336C326.562 68.3258 326.244 55.5103 326.41 56.1893C326.281 57.2 339.686 56.1266 339.686 56.1893C339.861 56.6124 339.571 68.4903 339.686 69.0336C339.757 69.0545 353.784 68.4224 353.63 69.0336C353.658 68.8742 353.782 81.217 353.63 81.8804C353.706 82.1416 353.72 94.9258 353.63 94.7273C353.463 93.7897 339.72 94.7847 339.686 94.7273Z" fill="white" fill-opacity="0.025"/>
<path d="M394.722 94.7272C394.564 94.1631 394.896 106.877 394.722 107.574C394.665 106.569 381.246 108.073 381.446 107.574C381.288 107.566 381.609 95.2287 381.446 94.7272C381.375 95.3123 367.3 94.0874 367.502 94.7272C367.415 94.8657 367.635 81.2144 367.502 81.8804C367.454 82.5255 367.556 69.279 367.502 69.0335C367.578 68.0803 381.502 69.548 381.446 69.0335C381.446 68.8612 381.632 55.9569 381.446 56.1893C381.415 56.0848 394.57 56.0013 394.722 56.1893C394.55 55.9281 394.871 68.8821 394.722 69.0335C394.53 68.1299 408.564 68.1874 408.662 69.0335C408.476 69.2817 408.702 80.9271 408.662 81.8804C408.544 81.7472 408.786 95.6022 408.662 94.7272C408.53 95.341 394.623 94.978 394.722 94.7272Z" fill="white" fill-opacity="0.025"/>
<path d="M9.47881 34.7272C9.52104 35.4192 9.32676 47.4826 9.47881 47.574C9.31268 48.0807 -3.64231 48.3497 -3.79718 47.574C-3.69018 46.7931 -3.81407 35.7457 -3.79718 34.7272C-3.68736 35.3644 -17.7123 34.2753 -17.7377 34.7272C-17.9376 35.0327 -17.87 21.3397 -17.7377 21.8803C-17.6532 21.6061 -17.8756 10.0076 -17.7377 9.03345C-17.7546 8.1507 -3.84786 10.052 -3.79718 9.03345C-3.9633 8.94987 -3.64231 -4.48461 -3.79718 -3.81079C-3.74368 -3.70633 9.61396 -4.05368 9.47881 -3.81079C9.52104 -4.64392 9.59425 9.56623 9.47881 9.03345C9.39152 8.81668 23.5207 8.07496 23.4221 9.03345C23.5939 9.64458 23.5404 22.8048 23.4221 21.8803C23.4277 21.9142 23.5488 34.0873 23.4221 34.7272C23.394 33.7896 9.37463 34.6384 9.47881 34.7272Z" fill="white" fill-opacity="0.025"/>
<path d="M64.5141 34.7271C64.4662 34.654 64.4775 48.4254 64.5141 47.574C64.5141 48.5429 51.1649 47.7933 51.2381 47.574C51.2944 47.8978 51.3733 35.1972 51.2381 34.7271C51.3733 33.7686 37.0949 35.4114 37.2976 34.7271C37.2188 34.4973 37.2441 22.3608 37.2976 21.8803C37.2441 20.9531 37.323 9.55051 37.2976 9.0334C37.1174 9.29979 51.0889 8.2943 51.2381 9.0334C51.3029 8.96811 51.1311 -3.58623 51.2381 -3.81084C51.224 -4.81633 64.5395 -3.89441 64.5141 -3.81084C64.4381 -4.22871 64.5 8.54763 64.5141 9.0334C64.714 8.68082 78.4462 9.21099 78.4574 9.0334C78.6264 9.06997 78.311 22.2929 78.4574 21.8803C78.5053 22.7134 78.4743 35.2808 78.4574 34.7271C78.2857 34.5547 64.5338 35.3069 64.5141 34.7271Z" fill="white" fill-opacity="0.025"/>
<path d="M119.55 34.7274C119.586 34.1529 119.713 48.0183 119.55 47.5743C119.46 47.3523 106.291 47.6317 106.274 47.5743C106.426 46.6524 106.198 34.8972 106.274 34.7274C106.367 35.4874 92.4571 33.9439 92.3304 34.7274C92.1249 34.2599 92.4431 22.3663 92.3304 21.8806C92.2403 22.7424 92.2488 8.39908 92.3304 9.03372C92.1446 9.23743 106.341 8.65764 106.274 9.03372C106.201 9.58479 106.389 -2.80241 106.274 -3.81052C106.361 -3.93066 119.631 -3.54935 119.55 -3.81052C119.468 -3.46578 119.685 8.3808 119.55 9.03372C119.66 8.57668 133.428 8.22671 133.49 9.03372C133.659 8.38864 133.513 21.3713 133.49 21.8806C133.293 22.6693 133.549 34.0458 133.49 34.7274C133.524 34.5315 119.493 33.8238 119.55 34.7274Z" fill="white" fill-opacity="0.025"/>
<path d="M174.585 34.7274C174.495 35.2419 174.531 48.457 174.585 47.5743C174.757 46.8378 161.371 47.462 161.306 47.5743C161.255 48.0574 161.179 34.9834 161.306 34.7274C161.131 34.1633 147.306 35.2184 147.365 34.7274C147.495 35.6937 147.495 21.1101 147.365 21.8806C147.301 22.0033 147.332 8.89528 147.365 9.0337C147.253 8.49047 161.34 9.84855 161.306 9.0337C161.441 8.82999 161.472 -3.57026 161.306 -3.81054C161.114 -2.98003 174.576 -4.19445 174.585 -3.81054C174.785 -4.09782 174.683 9.00236 174.585 9.0337C174.461 8.38862 188.328 9.0546 188.525 9.0337C188.421 9.21913 188.666 22.0817 188.525 21.8806C188.573 21.3661 188.463 33.8838 188.525 34.7274C188.677 35.4273 174.585 34.0484 174.585 34.7274Z" fill="white" fill-opacity="0.025"/>
<path d="M229.617 34.7273C229.665 35.281 229.553 48.1044 229.617 47.5742C229.474 47.9294 216.24 48.5745 216.341 47.5742C216.142 47.4541 216.251 35.55 216.341 34.7273C216.26 34.7587 202.426 34.4923 202.398 34.7273C202.454 34.8997 202.477 21.8178 202.398 21.8805C202.28 21.1127 202.533 9.79103 202.398 9.03364C202.3 8.46429 216.491 9.09371 216.341 9.03364C216.502 9.87983 216.398 -4.68551 216.341 -3.8106C216.491 -3.30393 229.603 -3.43713 229.617 -3.8106C229.595 -3.11328 229.77 8.6445 229.617 9.03364C229.809 8.08038 243.671 9.62127 243.561 9.03364C243.366 9.06498 243.412 22.2722 243.561 21.8805C243.437 21.8021 243.448 34.7979 243.561 34.7273C243.378 33.9099 229.677 34.5393 229.617 34.7273Z" fill="white" fill-opacity="0.025"/>
<path d="M284.651 34.7272C284.603 35.3932 284.797 46.8768 284.651 47.5741C284.693 48.5561 271.535 46.8585 271.375 47.5741C271.375 48.3262 271.228 35.6048 271.375 34.7272C271.451 35.247 257.482 34.3068 257.434 34.7272C257.572 34.056 257.589 21.6688 257.434 21.8804C257.491 21.4782 257.443 8.93167 257.434 9.03353C257.305 8.14295 271.462 8.81415 271.375 9.03353C271.189 8.38061 271.268 -4.00397 271.375 -3.81071C271.349 -3.0037 284.749 -3.25703 284.651 -3.81071C284.707 -3.63311 284.682 8.09594 284.651 9.03353C284.566 8.03065 298.45 8.02281 298.594 9.03353C298.639 8.66528 298.45 21.614 298.594 21.8804C298.459 22.2382 298.459 35.0824 298.594 34.7272C298.504 34.9048 284.603 34.056 284.651 34.7272Z" fill="white" fill-opacity="0.025"/>
<path d="M339.686 34.7273C339.835 35.6622 339.678 47.2659 339.686 47.5741C339.878 47.958 326.523 48.1043 326.41 47.5741C326.481 46.9421 326.379 33.8236 326.41 34.7273C326.528 34.7586 312.349 34.7926 312.47 34.7273C312.622 34.0091 312.65 22.5856 312.47 21.8804C312.425 21.1648 312.292 9.79095 312.47 9.03356C312.487 8.79329 326.509 8.64442 326.41 9.03356C326.562 8.3258 326.244 -4.48972 326.41 -3.81068C326.281 -2.79996 339.686 -3.87336 339.686 -3.81068C339.861 -3.38758 339.571 8.49033 339.686 9.03356C339.757 9.05445 353.784 8.42243 353.63 9.03356C353.658 8.87425 353.782 21.217 353.63 21.8804C353.706 22.1416 353.72 34.9258 353.63 34.7273C353.463 33.7897 339.72 34.7847 339.686 34.7273Z" fill="white" fill-opacity="0.025"/>
<path d="M394.722 34.7272C394.564 34.1631 394.896 46.8768 394.722 47.5741C394.665 46.5686 381.246 48.0729 381.446 47.5741C381.288 47.5663 381.609 35.2287 381.446 34.7272C381.375 35.3123 367.3 34.0874 367.502 34.7272C367.415 34.8657 367.635 21.2144 367.502 21.8804C367.454 22.5255 367.556 9.27904 367.502 9.03354C367.578 8.08028 381.502 9.54804 381.446 9.03354C381.446 8.86117 381.632 -4.04314 381.446 -3.8107C381.415 -3.91516 394.57 -3.99874 394.722 -3.8107C394.55 -4.07187 394.871 8.88206 394.722 9.03354C394.53 8.1299 408.564 8.18736 408.662 9.03354C408.476 9.28165 408.702 20.9271 408.662 21.8804C408.544 21.7472 408.786 35.6022 408.662 34.7272C408.53 35.341 394.623 34.978 394.722 34.7272Z" fill="white" fill-opacity="0.025"/>
<path d="M9.47881 147.113C9.52104 147.805 9.32676 159.868 9.47881 159.96C9.31268 160.466 -3.64231 160.735 -3.79718 159.96C-3.69018 159.179 -3.81407 148.131 -3.79718 147.113C-3.68736 147.75 -17.7123 146.661 -17.7377 147.113C-17.9376 147.418 -17.87 133.725 -17.7377 134.266C-17.6532 133.992 -17.8756 122.393 -17.7377 121.419C-17.7546 120.536 -3.84786 122.438 -3.79718 121.419C-3.9633 121.335 -3.64231 107.901 -3.79718 108.575C-3.74368 108.679 9.61396 108.332 9.47881 108.575C9.52104 107.742 9.59425 121.952 9.47881 121.419C9.39152 121.202 23.5207 120.461 23.4221 121.419C23.5939 122.03 23.5404 135.19 23.4221 134.266C23.4277 134.3 23.5488 146.473 23.4221 147.113C23.394 146.175 9.37463 147.024 9.47881 147.113Z" fill="white" fill-opacity="0.025"/>
<path d="M64.5141 147.113C64.4662 147.039 64.4775 160.811 64.5141 159.959C64.5141 160.928 51.1649 160.179 51.2381 159.959C51.2944 160.283 51.3733 147.583 51.2381 147.113C51.3733 146.154 37.0949 147.797 37.2976 147.113C37.2188 146.883 37.2441 134.746 37.2976 134.266C37.2441 133.339 37.323 121.936 37.2976 121.419C37.1174 121.685 51.0889 120.68 51.2381 121.419C51.3029 121.354 51.1311 108.799 51.2381 108.575C51.224 107.569 64.5395 108.491 64.5141 108.575C64.4381 108.157 64.5 120.933 64.5141 121.419C64.714 121.066 78.4462 121.596 78.4574 121.419C78.6264 121.455 78.311 134.678 78.4574 134.266C78.5053 135.099 78.4743 147.666 78.4574 147.113C78.2857 146.94 64.5338 147.692 64.5141 147.113Z" fill="white" fill-opacity="0.025"/>
<path d="M119.55 147.113C119.586 146.538 119.713 160.404 119.55 159.96C119.46 159.738 106.291 160.017 106.274 159.96C106.426 159.038 106.198 147.283 106.274 147.113C106.367 147.873 92.4571 146.329 92.3304 147.113C92.1249 146.645 92.4431 134.752 92.3304 134.266C92.2403 135.128 92.2488 120.785 92.3304 121.419C92.1446 121.623 106.341 121.043 106.274 121.419C106.201 121.97 106.389 109.583 106.274 108.575C106.361 108.455 119.631 108.836 119.55 108.575C119.468 108.92 119.685 120.766 119.55 121.419C119.66 120.962 133.428 120.612 133.49 121.419C133.659 120.774 133.513 133.757 133.49 134.266C133.293 135.055 133.549 146.431 133.49 147.113C133.524 146.917 119.493 146.209 119.55 147.113Z" fill="white" fill-opacity="0.025"/>
<path d="M174.585 147.113C174.495 147.627 174.531 160.843 174.585 159.96C174.757 159.223 161.371 159.847 161.306 159.96C161.255 160.443 161.179 147.369 161.306 147.113C161.131 146.549 147.306 147.604 147.365 147.113C147.495 148.079 147.495 133.496 147.365 134.266C147.301 134.389 147.332 121.281 147.365 121.419C147.253 120.876 161.34 122.234 161.306 121.419C161.441 121.215 161.472 108.815 161.306 108.575C161.114 109.405 174.576 108.191 174.585 108.575C174.785 108.288 174.683 121.388 174.585 121.419C174.461 120.774 188.328 121.44 188.525 121.419C188.421 121.605 188.666 134.467 188.525 134.266C188.573 133.752 188.463 146.269 188.525 147.113C188.677 147.813 174.585 146.434 174.585 147.113Z" fill="white" fill-opacity="0.025"/>
<path d="M229.617 147.113C229.665 147.667 229.553 160.49 229.617 159.96C229.474 160.315 216.24 160.96 216.341 159.96C216.142 159.84 216.251 147.936 216.341 147.113C216.26 147.144 202.426 146.878 202.398 147.113C202.454 147.285 202.477 134.203 202.398 134.266C202.28 133.498 202.533 122.177 202.398 121.419C202.3 120.85 216.491 121.479 216.341 121.419C216.502 122.265 216.398 107.7 216.341 108.575C216.491 109.082 229.603 108.948 229.617 108.575C229.595 109.272 229.77 121.03 229.617 121.419C229.809 120.466 243.671 122.007 243.561 121.419C243.366 121.45 243.412 134.658 243.561 134.266C243.437 134.188 243.448 147.183 243.561 147.113C243.378 146.295 229.677 146.925 229.617 147.113Z" fill="white" fill-opacity="0.025"/>
<path d="M284.651 147.113C284.603 147.779 284.797 159.262 284.651 159.96C284.693 160.942 271.535 159.244 271.375 159.96C271.375 160.712 271.228 147.99 271.375 147.113C271.451 147.632 257.482 146.692 257.434 147.113C257.572 146.442 257.589 134.054 257.434 134.266C257.491 133.864 257.443 121.317 257.434 121.419C257.305 120.528 271.462 121.2 271.375 121.419C271.189 120.766 271.268 108.382 271.375 108.575C271.349 109.382 284.749 109.128 284.651 108.575C284.707 108.752 284.682 120.481 284.651 121.419C284.566 120.416 298.45 120.408 298.594 121.419C298.639 121.051 298.45 133.999 298.594 134.266C298.459 134.624 298.459 147.468 298.594 147.113C298.504 147.29 284.603 146.442 284.651 147.113Z" fill="white" fill-opacity="0.025"/>
<path d="M339.686 147.113C339.835 148.048 339.678 159.651 339.686 159.96C339.878 160.344 326.523 160.49 326.41 159.96C326.481 159.328 326.379 146.209 326.41 147.113C326.528 147.144 312.349 147.178 312.47 147.113C312.622 146.395 312.65 134.971 312.47 134.266C312.425 133.55 312.292 122.176 312.47 121.419C312.487 121.179 326.509 121.03 326.41 121.419C326.562 120.711 326.244 107.896 326.41 108.575C326.281 109.586 339.686 108.512 339.686 108.575C339.861 108.998 339.571 120.876 339.686 121.419C339.757 121.44 353.784 120.808 353.63 121.419C353.658 121.26 353.782 133.603 353.63 134.266C353.706 134.527 353.72 147.311 353.63 147.113C353.463 146.175 339.72 147.17 339.686 147.113Z" fill="white" fill-opacity="0.025"/>
<path d="M394.722 147.113C394.564 146.549 394.896 159.262 394.722 159.96C394.665 158.954 381.246 160.458 381.446 159.96C381.288 159.952 381.609 147.614 381.446 147.113C381.375 147.698 367.3 146.473 367.502 147.113C367.415 147.251 367.635 133.6 367.502 134.266C367.454 134.911 367.556 121.665 367.502 121.419C367.578 120.466 381.502 121.934 381.446 121.419C381.446 121.247 381.632 108.342 381.446 108.575C381.415 108.47 394.57 108.387 394.722 108.575C394.55 108.314 394.871 121.268 394.722 121.419C394.53 120.515 408.564 120.573 408.662 121.419C408.476 121.667 408.702 133.313 408.662 134.266C408.544 134.133 408.786 147.988 408.662 147.113C408.53 147.726 394.623 147.363 394.722 147.113Z" fill="white" fill-opacity="0.025"/>
</svg>
